<svg width="25" height="25" viewBox="0 0 25 25" fill="none" xmlns="http://www.w3.org/2000/svg">
<g clip-path="url(#clip0)">
<path d="M20.7046 18.1943C20.4457 18.1943 20.2359 18.4042 20.2359 18.6631V23.2569C20.2359 23.5153 20.0256 23.7256 19.7671 23.7256H3.64331C3.38484 23.7256 3.17456 23.5153 3.17456 23.2569V14.7725C3.17456 14.5136 2.9647 14.3037 2.70581 14.3037C2.44692 14.3037 2.23706 14.5136 2.23706 14.7725V23.2569C2.23706 24.0323 2.86791 24.6631 3.64331 24.6631H19.7671C20.5425 24.6631 21.1734 24.0323 21.1734 23.2569V18.6631C21.1734 18.4042 20.9635 18.1943 20.7046 18.1943Z" fill="#002B67"/>
<path d="M22.5448 9.43567C22.1421 9.03301 21.6734 8.73634 21.1734 8.54354V5.72508C21.1731 5.72503 21.1727 5.72499 21.1723 5.72499C21.1723 5.60307 21.1258 5.48325 21.0361 5.39363L16.4429 0.80043C16.3533 0.710805 16.2334 0.664352 16.1115 0.664305C16.1115 0.663883 16.1115 0.663508 16.1115 0.663086H3.64331C2.86791 0.663086 2.23706 1.29393 2.23706 2.06934V10.8037C2.23706 11.0626 2.44692 11.2725 2.70581 11.2725C2.9647 11.2725 3.17456 11.0626 3.17456 10.8037V2.06929C3.17456 1.81082 3.38484 1.60054 3.64331 1.60054H15.6427V4.78758C15.6427 5.56299 16.2736 6.19383 17.049 6.19383H20.2359V8.30855C19.0639 8.16282 17.8389 8.53777 16.941 9.43567L10.2603 16.1163C10.0772 16.2994 10.0772 16.5962 10.2603 16.7793C10.4433 16.9623 10.7402 16.9623 10.9233 16.7793L17.6039 10.0986C18.7833 8.9192 20.7024 8.91915 21.8819 10.0986C23.0613 11.278 23.0613 13.1971 21.8819 14.3764L15.6162 20.642C14.8808 21.3775 13.6841 21.3775 12.9487 20.642C12.5924 20.2858 12.3962 19.8121 12.3962 19.3083C12.3962 18.8045 12.5924 18.3307 12.9487 17.9745L19.2448 11.6784C19.3835 11.5397 19.568 11.4632 19.7642 11.4632C19.9604 11.4632 20.1449 11.5396 20.2837 11.6784C20.4224 11.8172 20.4988 12.0017 20.4988 12.1979C20.4988 12.3941 20.4224 12.5786 20.2836 12.7173L14.6093 18.3917C14.4262 18.5747 14.4262 18.8715 14.6093 19.0546C14.7923 19.2376 15.0891 19.2376 15.2722 19.0546L20.9466 13.3803C21.2624 13.0645 21.4364 12.6445 21.4364 12.1979C21.4364 11.7512 21.2624 11.3313 20.9466 11.0155C20.6308 10.6997 20.2108 10.5257 19.7642 10.5257C19.3176 10.5257 18.8977 10.6997 18.5818 11.0155L12.2858 17.3115C11.1848 18.4125 11.1848 20.204 12.2858 21.305C12.8363 21.8555 13.5593 22.1308 14.2825 22.1307C15.0055 22.1306 15.7287 21.8554 16.2792 21.305L22.5448 15.0393C24.0897 13.4944 24.0897 10.9806 22.5448 9.43567ZM17.049 5.25633C16.7905 5.25633 16.5802 5.04605 16.5802 4.78758V2.26354L19.573 5.25633H17.049Z" fill="#002B67"/>
<path fill-rule="evenodd" clip-rule="evenodd" d="M21.1734 8.54354C21.6733 8.73634 22.1421 9.03301 22.5448 9.43567C24.0897 10.9806 24.0897 13.4944 22.5448 15.0393L16.2792 21.305C15.7287 21.8554 15.0055 22.1306 14.2825 22.1307C13.5593 22.1308 12.8363 21.8555 12.2858 21.305C11.1848 20.204 11.1848 18.4125 12.2858 17.3115L18.5818 11.0155C18.8977 10.6997 19.3176 10.5257 19.7642 10.5257C20.2108 10.5257 20.6308 10.6997 20.9466 11.0155C21.2624 11.3313 21.4363 11.7512 21.4363 12.1979C21.4363 12.6445 21.2624 13.0645 20.9466 13.3803L15.2722 19.0546C15.0891 19.2376 14.7923 19.2376 14.6093 19.0546C14.4262 18.8715 14.4262 18.5747 14.6093 18.3917L20.2836 12.7173C20.4224 12.5786 20.4988 12.3941 20.4988 12.1979C20.4988 12.0017 20.4224 11.8172 20.2837 11.6784C20.1449 11.5396 19.9604 11.4632 19.7642 11.4632C19.568 11.4632 19.3835 11.5397 19.2448 11.6784L12.9487 17.9745C12.5924 18.3307 12.3962 18.8045 12.3962 19.3083C12.3962 19.8121 12.5924 20.2858 12.9487 20.642C13.6841 21.3775 14.8808 21.3775 15.6162 20.642L21.8818 14.3764C23.0613 13.1971 23.0613 11.278 21.8818 10.0986C20.7024 8.91915 18.7833 8.9192 17.6039 10.0986L10.9232 16.7793C10.7402 16.9623 10.4433 16.9623 10.2603 16.7793C10.0772 16.5962 10.0772 16.2994 10.2603 16.1163L16.941 9.43567C17.8389 8.53777 19.0639 8.16282 20.2359 8.30855L21.1734 8.54354Z" fill="#E15C66"/>
</g>
<defs>
<clipPath id="clip0">
<rect width="24" height="24" fill="white" transform="translate(0.970215 0.663086)"/>
</clipPath>
</defs>
</svg>
