<svg width="420" height="312" viewBox="0 0 420 312" fill="none" xmlns="http://www.w3.org/2000/svg">
<path d="M78.3965 106.479V33.5405C78.3965 15.3152 93.1711 0.540527 111.396 0.540527H356.098C374.323 0.540527 389.098 15.3151 389.098 33.5405V80.2651M78.3965 208.791V278.103C78.3965 296.328 93.1711 311.103 111.396 311.103H356.098C374.323 311.103 389.098 296.328 389.098 278.103V239.265" stroke="#002B67"/>
<line x1="78.3965" y1="59.8765" x2="389.098" y2="59.8765" stroke="#002B67"/>
<rect x="105.607" y="35.3057" width="5.82571" height="5.82571" stroke="#002B67"/>
<rect x="120.104" y="35.3057" width="5.82571" height="5.82571" stroke="#002B67"/>
<rect x="134.601" y="35.3057" width="5.82571" height="5.82571" stroke="#002B67"/>
<line x1="87.2666" y1="136.821" x2="180.81" y2="136.821" stroke="#C96164"/>
<line x1="62.6816" y1="136.821" x2="80.3322" y2="136.821" stroke="#C96164"/>
<line x1="52.0244" y1="136.821" x2="57.2948" y2="136.821" stroke="#C96164"/>
<line x1="123.017" y1="173.063" x2="180.811" y2="173.063" stroke="#C96164"/>
<line x1="31.0957" y1="173.063" x2="53.4657" y2="173.063" stroke="#C96164"/>
<line x1="62.6816" y1="173.063" x2="111.933" y2="173.063" stroke="#C96164"/>
<line x1="17.5898" y1="173.063" x2="24.2695" y2="173.063" stroke="#C96164"/>
<line x1="105.107" y1="209.306" x2="180.811" y2="209.306" stroke="#C96164"/>
<line x1="13.7871" y1="209.306" x2="17.5897" y2="209.306" stroke="#C96164"/>
<line x1="24.2695" y1="209.306" x2="94.882" y2="209.306" stroke="#C96164"/>
<line x1="0.28125" y1="209.306" x2="6.96088" y2="209.306" stroke="#C96164"/>
<rect x="202.776" y="111.333" width="215.895" height="124.454" rx="11.5" fill="white" stroke="#C96164"/>
<path d="M203.392 123.378L312.251 183.868L418.614 123.378" stroke="#C96164"/>
<path d="M338.65 168.851L406.701 235.932" stroke="#C96164"/>
<path d="M285.107 168.688L216.892 235.932" stroke="#C96164"/>
<rect x="217.392" y="206.155" width="104.937" height="60.2747" rx="5.5" fill="white" stroke="#C96164"/>
<path d="M217.437 211.783L270.606 241.328L322.557 211.783" stroke="#C96164"/>
<path d="M283.834 234.326L316.738 266.757" stroke="#C96164"/>
<path d="M256.933 234.326L224.03 266.757" stroke="#C96164"/>
</svg>
