<svg width="47" height="46" viewBox="0 0 47 46" fill="none" xmlns="http://www.w3.org/2000/svg">
<line x1="7.76469" y1="7.15768" x2="10.85" y2="10.243" stroke="#E15C66"/>
<line y1="-0.5" x2="4.36324" y2="-0.5" transform="matrix(-0.707107 0.707107 0.707107 0.707107 39.3989 7.51123)" stroke="#E15C66"/>
<line x1="36.3238" y1="35.8159" x2="39.409" y2="38.9012" stroke="#E15C66"/>
<line y1="-0.5" x2="4.36324" y2="-0.5" transform="matrix(-0.707107 0.707107 0.707107 0.707107 10.4966 36.1694)" stroke="#E15C66"/>
<line x1="5.41455" y1="23.2461" x2="0.786633" y2="23.2461" stroke="#E15C66"/>
<line x1="46.0239" y1="23.2461" x2="41.396" y2="23.2461" stroke="#E15C66"/>
<line x1="23.7573" y1="5.20068" x2="23.7573" y2="0.838768" stroke="#E15C66"/>
<path d="M24.2573 36.169V29.0768M24.2573 29.0768C24.2573 29.0768 24.7231 24.9583 26.4993 23.3318C28.3398 21.6463 32.6646 21.6504 32.6646 21.6504C32.6646 21.6504 32.5778 26.5819 30.4227 28.2362C28.4951 29.7158 24.2573 29.0768 24.2573 29.0768Z" stroke="#002B67"/>
<path d="M24.2573 33.8954V29.0246M24.2573 29.0246C24.2573 29.0246 23.9374 26.1961 22.7176 25.079C21.4536 23.9215 18.4834 23.9243 18.4834 23.9243C18.4834 23.9243 18.543 27.3112 20.0231 28.4473C21.3469 29.4635 24.2573 29.0246 24.2573 29.0246Z" stroke="#002B67"/>
<path d="M17.5684 34.4335V38.7738C17.5684 42.4678 20.563 45.4625 24.2571 45.4625V45.4625C27.9511 45.4625 30.9458 42.4678 30.9458 38.7738V34.4336" stroke="#002B67"/>
<circle cx="24.2569" cy="23.5049" r="12.7559" stroke="#002B67"/>
<line x1="30.9458" y1="39.4487" x2="25.3409" y2="39.4487" stroke="#002B67"/>
<line x1="23.4053" y1="39.4487" x2="21.7014" y2="39.4487" stroke="#002B67"/>
</svg>
