<svg width="36" height="34" viewBox="0 0 36 34" fill="none" xmlns="http://www.w3.org/2000/svg">
<path d="M28.3257 12.0958V6.61792M28.3257 6.61792C28.3257 6.61792 28.6854 3.43679 30.0573 2.1805C31.4789 0.878686 34.8194 0.881836 34.8194 0.881836C34.8194 0.881836 34.7523 4.69086 33.0877 5.9686C31.5989 7.11144 28.3257 6.61792 28.3257 6.61792Z" stroke="#E15C66"/>
<path d="M28.3257 10.3397V6.57761M28.3257 6.57761C28.3257 6.57761 28.0786 4.39287 27.1364 3.53008C26.1601 2.63602 23.8659 2.63818 23.8659 2.63818C23.8659 2.63818 23.912 5.25415 25.0552 6.13167C26.0777 6.91655 28.3257 6.57761 28.3257 6.57761Z" stroke="#E15C66"/>
<path d="M0.634277 33.3843V18.9399H3.42464V13.6874L10.9751 9.74805V18.9399H14.4221V13.6874L21.6443 9.74805V18.9399H24.9271V13.6874L32.4776 9.74805V18.9399H35.268V33.3843H0.634277Z" stroke="#002B67"/>
<circle cx="7.61762" cy="26.579" r="2.05121" stroke="#E15C66"/>
<circle cx="17.9511" cy="26.579" r="2.05121" stroke="#E15C66"/>
<circle cx="28.2846" cy="26.579" r="2.05121" stroke="#E15C66"/>
</svg>
