<svg width="322" height="322" viewBox="0 0 322 322" fill="none" xmlns="http://www.w3.org/2000/svg">
<path d="M316.821 180.731V28.9375C316.821 16.7872 306.971 6.9375 294.821 6.9375H28.1196C15.9694 6.9375 6.11963 16.7872 6.11963 28.9375V227.38C6.11963 239.53 15.9694 249.38 28.1196 249.38H148.257" stroke="#002B67"/>
<path d="M49.194 33.0068H39.7109C35.8449 33.0068 32.7109 36.1408 32.7109 40.0068V174.601C32.7109 178.467 35.8449 181.601 39.7109 181.601H49.194" stroke="#C96164"/>
<path d="M32.6836 102.524L101.332 162.483L168.243 80.7999L208.215 94.7034L274.257 41.6963M274.257 41.6963L267.305 71.2412M274.257 41.6963H245.721" stroke="#C96164"/>
<path d="M58.0161 92.8502L92.9434 62.6211L125.826 102.202" stroke="#C96164"/>
<path d="M154.767 127.515L174.963 148.229L202.409 127.515H278.016M278.016 127.515L254.713 109.908M278.016 127.515L254.713 148.229" stroke="#C96164"/>
<line x1="121.625" y1="31.2129" x2="181.533" y2="31.2129" stroke="#002B67"/>
<line x1="6.42188" y1="207.486" x2="148.092" y2="207.486" stroke="#002B67"/>
<line y1="-0.5" x2="33.4503" y2="-0.5" transform="matrix(0.999553 0.0298951 0 1 114.656 228.217)" stroke="#002B67"/>
<line x1="121.627" y1="53.8447" x2="154.783" y2="53.8447" stroke="#002B67"/>
<line y1="-0.5" x2="13.4121" y2="-0.5" transform="matrix(0.997217 -0.0745596 0 1 168.16 55.3447)" stroke="#002B67"/>
<circle cx="241.72" cy="241.593" r="75.492" stroke="#C96164"/>
<path d="M257.97 252.939L257.97 252.939L257.975 252.948C259.026 254.719 259.569 257.001 259.569 259.823C259.569 263.858 258.018 267.241 254.889 270.002C251.762 272.761 247.782 274.155 242.908 274.155C236.976 274.155 232.338 272.596 228.935 269.531C225.573 266.474 223.87 262.231 223.87 256.733V256.233H223.37H220.803H220.303V256.733C220.303 263.08 222.175 268.133 225.968 271.828L225.97 271.83C229.67 275.402 234.837 277.325 241.41 277.653V286.064V286.564H241.91H244.524H245.024V286.064V277.595C250.411 277.205 254.764 275.469 258.037 272.355L258.037 272.355C261.443 269.113 263.136 264.888 263.136 259.728C263.136 257.146 262.749 254.878 261.96 252.936C261.204 250.998 260.039 249.246 258.474 247.68C256.907 246.114 254.943 244.754 252.591 243.593C250.248 242.406 246.895 241.066 242.547 239.575C238.223 238.091 234.887 236.632 232.522 235.201C230.194 233.742 228.553 232.149 227.56 230.435C226.605 228.732 226.104 226.372 226.104 223.314C226.104 219.074 227.587 215.647 230.548 212.991C233.542 210.334 237.534 208.983 242.575 208.983C247.756 208.983 251.78 210.591 254.71 213.766L254.714 213.769C257.683 216.923 259.189 221.117 259.189 226.404V226.904H259.689H262.256H262.756V226.404C262.756 220.17 261.148 215.191 257.876 211.525C254.686 207.922 250.208 205.941 244.501 205.541V197.121V196.621H244.001H241.387H240.887V197.121V205.532C235.558 205.805 231.178 207.496 227.785 210.634C224.278 213.847 222.537 218.123 222.537 223.409C222.537 226.637 223.118 229.414 224.304 231.719L224.304 231.719L224.307 231.724C225.522 234.024 227.372 236.031 229.834 237.748L229.838 237.751C232.301 239.436 236.09 241.165 241.174 242.944L241.178 242.945C246.268 244.684 250.078 246.334 252.631 247.89C255.184 249.447 256.948 251.135 257.97 252.939Z" stroke="#C96164"/>
<path d="M121.771 249.337V286.812M121.771 286.812H55.1479V314.572H170.35M121.771 286.812H155.777" stroke="#002B67"/>
</svg>
