<svg width="373" height="391" viewBox="0 0 373 391" fill="none" xmlns="http://www.w3.org/2000/svg">
<line x1="19.1779" y1="256.478" x2="370.252" y2="326.888" stroke="#C96164"/>
<path d="M146.209 355.737C146.209 355.737 165.582 292.241 197.061 293.15C227.831 294.04 244.979 355.737 244.979 355.737V389.965H146.209V355.737Z" stroke="#002B67"/>
<line x1="146.209" y1="355.237" x2="205.198" y2="355.237" stroke="#002B67"/>
<line x1="218.575" y1="355.237" x2="244.979" y2="355.237" stroke="#002B67"/>
<circle cx="68.7822" cy="81.6157" r="67.312" stroke="#C96164"/>
<line x1="69.2954" y1="169.742" x2="69.2954" y2="206.155" stroke="#C96164"/>
<line x1="107.032" y1="169.742" x2="107.032" y2="194.803" stroke="#C96164"/>
<line y1="-0.5" x2="25.081" y2="-0.5" transform="matrix(-0.0398709 0.999205 -1 0 32.0322 169.65)" stroke="#C96164"/>
<line x1="31.5322" y1="207.379" x2="31.5322" y2="219.956" stroke="#C96164"/>
<line x1="69.2954" y1="219.955" x2="69.2954" y2="232.533" stroke="#C96164"/>
<line x1="107.032" y1="207.379" x2="107.032" y2="219.956" stroke="#C96164"/>
<path d="M84.6647 92.718L84.6646 92.7181L84.6697 92.7266C85.696 94.4567 86.2268 96.6858 86.2268 99.4447C86.2268 103.387 84.7116 106.692 81.6542 109.39C78.5983 112.087 74.7085 113.449 69.9446 113.449C64.1455 113.449 59.6125 111.925 56.2872 108.929C53.0027 105.943 51.338 101.797 51.338 96.423V95.923H50.838H48.3276H47.8276V96.423C47.8276 102.632 49.6594 107.576 53.3714 111.192L53.373 111.194C56.9916 114.688 62.044 116.569 68.4683 116.891V125.106V125.606H68.9683H71.5252H72.0252V125.106V116.835C77.2904 116.451 81.5459 114.754 84.747 111.708L84.7471 111.708C88.0806 108.535 89.7371 104.4 89.7371 99.3518C89.7371 96.8253 89.3586 94.6058 88.586 92.7051C87.8463 90.8088 86.7064 89.0942 85.1743 87.5621C83.6418 86.0296 81.7201 84.6984 79.4192 83.5634C77.1264 82.4015 73.8478 81.0916 69.5955 79.6328C65.3671 78.1822 62.1053 76.7553 59.7936 75.3566C57.5184 73.9304 55.915 72.374 54.9449 70.6998C54.012 69.0365 53.5229 66.7312 53.5229 63.7419C53.5229 59.598 54.9722 56.2503 57.8652 53.6551C60.7906 51.0586 64.6913 49.7376 69.6192 49.7376C74.6827 49.7376 78.6146 51.3094 81.4781 54.4115L81.4815 54.4152C84.3834 57.4965 85.8549 61.5952 85.8549 66.7636V67.2636H86.3549H88.8652H89.3652V66.7636C89.3652 60.6655 87.7922 55.7927 84.5899 52.2058C81.4708 48.6818 77.092 46.744 71.5138 46.3505V38.127V37.627H71.0138H68.457H67.957V38.127V46.3414C62.7483 46.6101 58.4656 48.2646 55.1481 51.3337C51.7159 54.4777 50.0126 58.6626 50.0126 63.8349C50.0126 66.9927 50.5809 69.7098 51.7415 71.9665L51.7415 71.9665L51.7441 71.9715C52.9339 74.2224 54.7437 76.1856 57.1533 77.866L57.157 77.8685C59.5672 79.5176 63.2736 81.2084 68.2453 82.9485L68.2489 82.9497C73.2261 84.6501 76.9516 86.2633 79.4468 87.7847C81.9426 89.3065 83.6662 90.9559 84.6647 92.718Z" stroke="#C96164"/>
<path d="M358.046 0.699219H251.395V92.189L212.708 151.265L247.735 207.205H307.334C307.334 207.205 319.123 195.953 318.836 186.816C318.598 179.24 309.948 173.475 309.948 173.475L268.449 166.999" stroke="#002B67"/>
<path d="M358.046 0.699219V93.2341L372.161 113.101V230.73" stroke="#002B67"/>
<rect x="343.95" y="188.843" width="28.1913" height="71.1462" rx="14.0957" stroke="#002B67"/>
<rect x="315.692" y="188.843" width="28.1913" height="71.1462" rx="14.0957" stroke="#002B67"/>
<path d="M257.285 207.205V291.985C257.285 300.045 263.819 306.58 271.88 306.58V306.58C279.941 306.58 286.476 300.045 286.476 291.985V207.205" stroke="#002B67"/>
<path d="M313.03 199.596V199.596C314.73 201.54 315.667 204.036 315.667 206.619V245.892C315.667 253.953 309.133 260.488 301.072 260.488V260.488C293.011 260.488 286.476 253.953 286.476 245.892V207.345" stroke="#002B67"/>
</svg>
