<svg width="73" height="73" viewBox="0 0 73 73" fill="none" xmlns="http://www.w3.org/2000/svg">
<path d="M0.368652 72.5645V0.564453H72.3687V72.5645H0.368652Z" fill="#C4C4C4"/>
<path d="M0.368652 72.5645V0.564453H72.3687V72.5645H0.368652Z" fill="url(#paint0_linear)"/>
<path d="M54.3725 40.016L53.6653 39.7408L52.8334 39.3571C52.6827 39.3039 52.5566 39.1975 52.4785 39.0578C52.4004 38.9181 52.3757 38.7547 52.4091 38.5981C52.4673 37.4721 52.5006 36.3628 52.5172 35.3118C52.5172 34.8614 52.6337 34.6863 53.0164 34.5445L53.632 34.3109L54.5805 33.9022C54.9287 33.7705 55.2229 33.5256 55.416 33.2066C55.609 32.8875 55.6898 32.5128 55.6454 32.1423C55.6454 32.0172 55.6454 31.8921 55.5955 31.767V31.6502C55.3211 30.1635 54.7555 28.7461 53.9315 27.4798C53.8335 27.2824 53.6975 27.1064 53.5312 26.9621C53.3649 26.8177 53.1718 26.7079 52.9629 26.6388C52.754 26.5698 52.5335 26.543 52.3142 26.5599C52.0949 26.5768 51.8812 26.6372 51.6853 26.7375L51.1112 26.9543L50.2293 27.288C50.0792 27.3508 49.9117 27.3585 49.7565 27.3097C49.6012 27.2609 49.4682 27.1587 49.3808 27.0211C48.6486 26.187 47.9165 25.428 47.1927 24.6856C47.0438 24.5853 46.9398 24.4308 46.9025 24.2549C46.8652 24.079 46.8977 23.8954 46.993 23.7431L47.2426 23.1926C47.3924 22.8507 47.5505 22.5087 47.6919 22.1667C47.8433 21.8379 47.8771 21.4668 47.7877 21.116C47.6983 20.7651 47.4911 20.4557 47.201 20.24C45.837 19.1457 44.2306 18.3962 42.5171 18.0547C42.1474 17.9622 41.757 18.0046 41.4156 18.1742C41.0742 18.3438 40.8041 18.6296 40.6535 18.9805C40.4955 19.3141 40.3457 19.6478 40.1876 19.9898L39.9547 20.5569C39.7717 20.9656 39.5886 21.0657 39.1227 21.0407L37.3756 20.974C37.2896 20.974 37.2071 21.0082 37.1462 21.0692C37.0854 21.1302 37.0512 21.213 37.0512 21.2993C37.0512 21.3855 37.0854 21.4683 37.1462 21.5293C37.2071 21.5903 37.2896 21.6246 37.3756 21.6246L39.0395 21.6913C39.3446 21.747 39.6596 21.6941 39.9299 21.5418C40.2003 21.3895 40.4091 21.1474 40.5204 20.8572L40.7617 20.3234C40.9114 19.9898 41.0612 19.6561 41.2193 19.3308C41.3042 19.1016 41.4719 18.9127 41.6891 18.8014C41.9063 18.6902 42.1573 18.6648 42.3923 18.7303C44.0002 19.0471 45.5092 19.7449 46.7934 20.7654C46.9682 20.8951 47.0927 21.0815 47.1458 21.2929C47.1989 21.5043 47.1772 21.7276 47.0846 21.9248C46.9431 22.2668 46.7934 22.6004 46.6436 22.9341L46.394 23.4846C46.2447 23.7567 46.1954 24.0727 46.2547 24.3776C46.314 24.6824 46.4781 24.9568 46.7185 25.1527C47.434 25.8784 48.1578 26.6624 48.8899 27.4631C49.0639 27.7038 49.3139 27.8784 49.5993 27.9586C49.8848 28.0389 50.1889 28.0201 50.4623 27.9052L51.3608 27.5715L51.9349 27.3547C52.0629 27.2828 52.2045 27.2384 52.3506 27.2244C52.4968 27.2105 52.6442 27.2271 52.7835 27.2734C52.9228 27.3197 53.051 27.3946 53.1599 27.4934C53.2687 27.5921 53.3559 27.7124 53.4157 27.8468C54.1767 29.0376 54.6968 30.3667 54.9465 31.7586V31.8587C54.9465 31.9755 54.9465 32.0923 54.9881 32.2174C55.0252 32.4426 54.9843 32.6737 54.8723 32.8724C54.7604 33.0712 54.584 33.2256 54.3725 33.31L53.4241 33.6687L52.8001 33.9022C52.512 33.9878 52.2625 34.171 52.0941 34.4204C51.9257 34.6699 51.8488 34.9702 51.8766 35.2701C51.8766 36.3127 51.8267 37.4137 51.7685 38.5314C51.7316 38.8213 51.7937 39.1151 51.9448 39.3651C52.0959 39.615 52.327 39.8062 52.6004 39.9076L53.4324 40.2996L54.1146 40.6082C54.3559 40.6955 54.5549 40.8719 54.6708 41.1013C54.7868 41.3308 54.811 41.5959 54.7385 41.8427C54.407 43.4167 53.7117 44.8908 52.7086 46.1465C52.574 46.3488 52.3694 46.494 52.1344 46.5541C51.8993 46.6141 51.6505 46.5848 51.4357 46.4718L50.5205 46.0548L49.9631 45.8046C49.6887 45.6615 49.3736 45.6174 49.0707 45.6797C48.7677 45.742 48.4953 45.9068 48.2992 46.1465C47.5754 46.8638 46.81 47.5895 46.0197 48.2984C45.7725 48.4729 45.593 48.7274 45.5111 49.0191C45.4293 49.3108 45.4502 49.6219 45.5704 49.8999L45.8699 50.734L46.1444 51.4763C46.2596 51.7071 46.2805 51.9737 46.2029 52.2197C46.1252 52.4658 45.9551 52.6718 45.7285 52.7941C44.4008 53.6902 42.882 54.2616 41.2941 54.4623C41.0476 54.5137 40.7908 54.4691 40.5759 54.3373C40.3611 54.2056 40.2044 53.9968 40.1377 53.7533L40.0046 53.3947L39.5637 52.227C39.4712 51.9438 39.2863 51.7001 39.0388 51.5352C38.7912 51.3702 38.4955 51.2937 38.1993 51.3178H37.3673C37.3244 51.3156 37.2815 51.3221 37.2412 51.337C37.2009 51.3519 37.1641 51.3749 37.1329 51.4045C37.1018 51.4342 37.077 51.4699 37.0601 51.5095C37.0432 51.5491 37.0345 51.5917 37.0345 51.6348C37.0334 51.6775 37.0407 51.72 37.056 51.7599C37.0713 51.7998 37.0943 51.8363 37.1237 51.8673C37.153 51.8982 37.1882 51.9231 37.2271 51.9405C37.2661 51.9578 37.3081 51.9673 37.3507 51.9684H38.1826C38.3491 51.9432 38.519 51.9792 38.6612 52.0696C38.8033 52.16 38.9081 52.2988 38.9563 52.4605C39.1061 52.8442 39.2559 53.2362 39.3973 53.6199L39.5304 53.9785C39.6317 54.3136 39.8392 54.6065 40.1214 54.8127C40.4037 55.0189 40.7453 55.1272 41.0945 55.1212H41.3607C43.0443 54.8937 44.6514 54.2738 46.0529 53.3113C46.3955 53.1042 46.6522 52.7802 46.776 52.3988C46.8998 52.0173 46.8823 51.604 46.7268 51.2344L46.4523 50.4921L46.1528 49.658C46.0113 49.2743 46.0779 49.0741 46.4273 48.7572C47.2593 48.0399 48.008 47.3059 48.7318 46.5802C48.8433 46.4295 49.0087 46.3279 49.1933 46.2968C49.3779 46.2657 49.5673 46.3075 49.7219 46.4134L50.2793 46.6637L51.2027 47.0807C51.5508 47.242 51.9439 47.2778 52.3153 47.1821C52.6867 47.0863 53.0137 46.8649 53.241 46.5552C54.2854 45.213 55.0032 43.6451 55.3376 41.9761C55.4389 41.5877 55.3971 41.1756 55.2199 40.8155C55.0426 40.4555 54.7417 40.1716 54.3725 40.016Z" fill="white"/>
<path d="M33.1076 34.5772C33.0958 34.5316 33.074 34.4893 33.0437 34.4532C33.0135 34.4171 32.9757 34.3883 32.9329 34.3687L31.7099 33.6264V29.0223H39.9629L35.6451 36.3455H44.1726L37.0844 48.4563C37.0825 48.4757 37.0825 48.4953 37.0844 48.5147C37.0818 48.5369 37.0818 48.5593 37.0844 48.5814C37.0823 48.6008 37.0823 48.6204 37.0844 48.6398V48.6982V48.7483L37.1343 48.79H37.1925H37.3007C37.6667 48.79 38.0328 48.7483 38.3905 48.6982C41.452 48.3156 44.2715 46.834 46.3274 44.5278C47.4595 43.2533 48.3018 41.7473 48.796 40.1141C49.2901 38.481 49.4243 36.7596 49.1893 35.0693C48.8467 32.1419 47.4643 29.4359 45.295 27.4463C43.1257 25.4568 40.3145 24.3167 37.3755 24.2346C37.2909 24.2323 37.2087 24.2633 37.1465 24.321C37.0843 24.3787 37.0471 24.4584 37.0428 24.5432C37.0405 24.6281 37.0714 24.7106 37.1289 24.7729C37.1864 24.8352 37.266 24.8726 37.3506 24.8769C40.1684 24.94 42.8668 26.0298 44.9415 27.9424C47.0161 29.8551 48.3251 32.4597 48.6236 35.2695C48.8146 36.795 48.7001 38.3435 48.287 39.8241C47.8738 41.3047 47.1701 42.6879 46.2172 43.8925C45.2643 45.0972 44.0813 46.0992 42.7374 46.8399C41.3934 47.5806 39.9157 48.045 38.3905 48.2061L37.9579 48.2562L45.3041 35.6949H36.7765L41.0611 28.3717H31.4603L27.4337 26.2614L31.1775 24.0845L35.4288 26.3532H35.5369H35.6534L35.7366 26.2948C35.7598 26.273 35.7794 26.2476 35.7948 26.2197C35.7971 26.1976 35.7971 26.1752 35.7948 26.153C35.7964 26.1336 35.7964 26.1141 35.7948 26.0946V20.9567L31.1692 18.2793L22.2423 23.5257V28.5301L17.7664 31.1492V41.5668L22.1591 44.2692V49.2737L31.0776 54.5118L35.6534 52.0095C35.697 51.9854 35.7341 51.9511 35.7616 51.9094C35.8001 51.8801 35.8313 51.8422 35.853 51.7989C35.8746 51.7555 35.886 51.7077 35.8863 51.6592V46.2544H35.8447L33.1076 34.5772ZM22.6 34.0851L26.4353 36.4039V41.4083L22.7581 43.5686V38.781L18.6565 36.3288L22.6 34.0851ZM26.9428 31.5829L30.6949 33.7515L26.9179 35.9535L23.2406 33.7181L26.9428 31.5829ZM22.8912 33.1676V29.2558L26.2939 31.2242L22.8912 33.1676ZM27.5918 31.2326L31.0776 29.2558V33.2427L27.5918 31.2326ZM34.2474 42.2758L31.3605 43.7688L27.0843 41.4083V36.8376L31.1608 39.3398L33.2823 38.1638L34.2474 42.2758ZM26.7598 41.9672L30.6783 44.1191L26.7432 46.1626L23.1408 44.0857L26.7598 41.9672ZM27.4087 46.5379L30.8447 44.7447V48.4897L27.4087 46.5379ZM30.4786 49.0402L27.0843 51.1254V47.1051L30.4786 49.0402ZM31.4936 44.5528L35.2374 46.638V51.0503L31.4936 48.9151V44.5528ZM32.0594 44.1275L34.4055 42.9264L35.0877 45.8123L32.0594 44.1275ZM33.1326 37.4548L31.1775 38.5391L27.5169 36.2954L31.3439 34.1101L32.5086 34.8191L33.1326 37.4548ZM35.2374 25.5608L31.4936 23.5173V19.2051L35.2374 21.332V25.5608ZM22.8912 23.8927L30.8447 19.2135V23.5257L26.0859 26.2865L30.7033 28.7053L26.9179 30.8572L22.8912 28.5135V23.8927ZM22.2423 29.2641V33.543L18.4153 35.7283V31.5579L22.2423 29.2641ZM18.4153 36.9377L22.1008 39.148V43.4769L18.4153 41.1998V36.9377ZM22.8246 44.6529L26.4437 46.7298V51.0253L22.8163 48.9151L22.8246 44.6529ZM27.5002 51.6509L31.1192 49.4239L34.9878 51.6425L31.0776 53.7694L27.5002 51.6509Z" fill="white"/>
<defs>
<linearGradient id="paint0_linear" x1="0.368652" y1="49.6263" x2="72.3883" y2="50.3595" gradientUnits="userSpaceOnUse">
<stop stop-color="#E15C66"/>
<stop offset="1" stop-color="#002B67"/>
</linearGradient>
</defs>
</svg>
