<svg width="169" height="232" viewBox="0 0 169 232" fill="none" xmlns="http://www.w3.org/2000/svg">
<path d="M9.10303 57.5771H159.103C163.797 57.5771 167.603 61.3827 167.603 66.0771V206.099C167.603 219.63 156.634 230.599 143.103 230.599H25.103C11.5721 230.599 0.603027 219.63 0.603027 206.099V66.0771C0.603027 61.3827 4.40861 57.5771 9.10303 57.5771Z" stroke="#395986"/>
<path d="M127.788 217.812H27.1567C20.5293 217.812 15.1567 212.44 15.1567 205.812V80.7256C15.1567 75.755 19.1862 71.7256 24.1567 71.7256H42.4828" stroke="#CD7274"/>
<path d="M42.396 80.7675V42.8895C42.396 19.8554 61.0688 1.18262 84.1029 1.18262V1.18262C107.137 1.18262 125.81 19.8554 125.81 42.8895V80.7675" stroke="#395986"/>
<circle cx="82.4552" cy="146.183" r="40.4776" stroke="#C96164" stroke-dasharray="3 3"/>
<line x1="53.5132" y1="139.952" x2="75.0765" y2="161.515" stroke="#C96164"/>
<line x1="126.163" y1="111.135" x2="75.0755" y2="162.222" stroke="#C96164"/>
</svg>
