<svg width="20" height="21" viewBox="0 0 20 21" fill="none" xmlns="http://www.w3.org/2000/svg">
<path d="M19.9312 16.2757C19.9729 16.5952 19.8756 16.873 19.6395 17.1091L16.8682 19.8595C16.7431 19.9985 16.5799 20.1166 16.3785 20.2138C16.1771 20.3111 15.9792 20.3736 15.7848 20.4013C15.7709 20.4013 15.7291 20.4049 15.6596 20.4118C15.5902 20.4187 15.4999 20.4223 15.3888 20.4223C15.1248 20.4223 14.6976 20.3771 14.1072 20.2868C13.5168 20.1965 12.7945 19.9742 11.9403 19.62C11.0858 19.2658 10.1169 18.7344 9.03341 18.026C7.94991 17.3176 6.79688 16.3451 5.57443 15.1088C4.60203 14.1503 3.79633 13.2334 3.15732 12.3583C2.51831 11.4831 2.00433 10.6739 1.61537 9.93073C1.22638 9.18754 0.934655 8.5138 0.740174 7.90952C0.545694 7.30525 0.413725 6.78432 0.344268 6.34674C0.274811 5.90915 0.247028 5.56534 0.260919 5.3153C0.274811 5.06525 0.281756 4.92633 0.281756 4.89855C0.309539 4.70407 0.372051 4.50612 0.469291 4.30469C0.566531 4.10327 0.684608 3.94004 0.823523 3.81502L3.59487 1.04367C3.78935 0.849193 4.01161 0.751953 4.26166 0.751953C4.44225 0.751953 4.602 0.804046 4.74091 0.908232C4.87983 1.01242 4.9979 1.14091 5.09515 1.29372L7.32472 5.52367C7.44975 5.74593 7.48448 5.98903 7.42891 6.25297C7.37334 6.51691 7.25527 6.73917 7.07468 6.91976L6.05366 7.94078C6.02587 7.96856 6.00156 8.01371 5.98073 8.07622C5.95989 8.13873 5.94947 8.19083 5.94947 8.2325C6.00504 8.52422 6.13006 8.85762 6.32454 9.23269C6.49124 9.56608 6.74823 9.97241 7.09551 10.4517C7.4428 10.9309 7.93595 11.4831 8.57495 12.1082C9.20007 12.7473 9.75573 13.2438 10.2419 13.5981C10.728 13.9522 11.1345 14.2128 11.4609 14.3795C11.7874 14.5462 12.0374 14.6469 12.211 14.6815L12.4714 14.7336C12.4992 14.7336 12.5445 14.7232 12.6069 14.7024C12.6694 14.6815 12.7146 14.6572 12.7424 14.6294L13.9301 13.4209C14.1803 13.1986 14.4718 13.0875 14.8053 13.0875C15.0415 13.0875 15.2289 13.1291 15.3678 13.2125H15.3886L19.4102 15.588C19.702 15.7687 19.8756 15.9978 19.9312 16.2757Z" fill="#002B67"/>
</svg>
