<svg width="205" height="190" viewBox="0 0 205 190" fill="none" xmlns="http://www.w3.org/2000/svg">
<rect x="1.26611" y="143.16" width="203.174" height="45.7618" rx="22.8809" stroke="#002B67"/>
<rect x="1.26611" y="143.16" width="45.76" height="45.7618" rx="22.88" stroke="#002B67"/>
<rect x="158.68" y="143.16" width="45.76" height="45.7618" rx="22.88" stroke="#002B67"/>
<rect x="79.9731" y="143.16" width="45.76" height="45.7618" rx="22.88" stroke="#002B67"/>
<rect x="12.9561" y="154.851" width="22.38" height="22.3809" rx="11.19" stroke="#C96164"/>
<rect x="91.6631" y="154.851" width="22.38" height="22.3809" rx="11.19" stroke="#C96164"/>
<rect x="170.37" y="154.851" width="22.38" height="22.3809" rx="11.19" stroke="#C96164"/>
<line x1="103.353" y1="151.021" x2="103.353" y2="154.351" stroke="#002B67"/>
<line x1="103.353" y1="177.731" x2="103.353" y2="181.061" stroke="#002B67"/>
<line x1="117.873" y1="166.541" x2="114.543" y2="166.541" stroke="#002B67"/>
<line x1="91.1626" y1="166.541" x2="87.8335" y2="166.541" stroke="#002B67"/>
<line x1="182.06" y1="151.021" x2="182.06" y2="154.351" stroke="#002B67"/>
<line x1="182.06" y1="177.731" x2="182.06" y2="181.061" stroke="#002B67"/>
<line x1="196.58" y1="166.541" x2="193.25" y2="166.541" stroke="#002B67"/>
<line x1="169.87" y1="166.541" x2="166.541" y2="166.541" stroke="#002B67"/>
<line x1="24.6455" y1="151.021" x2="24.6455" y2="154.351" stroke="#002B67"/>
<line x1="24.6455" y1="177.731" x2="24.6455" y2="181.061" stroke="#002B67"/>
<line x1="39.165" y1="166.541" x2="35.8359" y2="166.541" stroke="#002B67"/>
<line x1="12.4551" y1="166.541" x2="9.12598" y2="166.541" stroke="#002B67"/>
<rect x="67.9829" y="73.4062" width="69.7404" height="69.7404" stroke="#002B67"/>
<path d="M137.795 143.332L67.8574 73.3936" stroke="#002B67"/>
<path d="M67.8574 143.332L137.795 73.3936" stroke="#002B67"/>
<line x1="79.7339" y1="0.792969" x2="125.972" y2="0.792969" stroke="#002B67"/>
<circle cx="48.8554" cy="46.2089" r="13.1903" stroke="#002B67"/>
<circle cx="49.3918" cy="112.225" r="4.54662" stroke="#002B67"/>
<circle cx="157.361" cy="112.225" r="4.54662" stroke="#002B67"/>
<circle cx="102.853" cy="46.2089" r="13.1903" stroke="#002B67"/>
<path d="M122.053 1.29297C122.053 11.8967 113.457 20.4928 102.853 20.4928C92.2494 20.4928 83.6533 11.8967 83.6533 1.29297" stroke="#002B67"/>
<circle cx="156.851" cy="46.2089" r="13.1903" stroke="#002B67"/>
<line x1="109.095" y1="34.4111" x2="109.095" y2="19.6842" stroke="#002B67"/>
<line x1="96.4722" y1="34.4111" x2="96.4722" y2="19.6842" stroke="#002B67"/>
<line y1="-0.5" x2="47.2904" y2="-0.5" transform="matrix(-0.021146 0.999776 -1 0 49.8555 59.8994)" stroke="#C96164" stroke-dasharray="3 3"/>
<line x1="89.498" y1="46.709" x2="62.3154" y2="46.709" stroke="#C96164" stroke-dasharray="3 3"/>
<line x1="143.161" y1="46.709" x2="115.978" y2="46.709" stroke="#C96164" stroke-dasharray="3 3"/>
<line y1="-0.5" x2="47.2904" y2="-0.5" transform="matrix(-0.021146 0.999776 -1 0 157.851 59.8994)" stroke="#C96164" stroke-dasharray="3 3"/>
</svg>
