<svg width="200" height="165" viewBox="0 0 200 165" fill="none" xmlns="http://www.w3.org/2000/svg">
<path fill-rule="evenodd" clip-rule="evenodd" d="M133.39 0.783203H177.368V123.45H199.633L155.829 164.026L111.563 123.45H133.39V0.783203ZM134.39 1.7832V124.45H114.134L155.825 162.666L197.082 124.45H176.368V1.7832H134.39Z" fill="#C96164"/>
<path fill-rule="evenodd" clip-rule="evenodd" d="M78.103 18.5332C40.9276 18.5332 10.791 48.6698 10.791 85.8452C10.791 123.021 40.9276 153.157 78.103 153.157C95.8848 153.157 112.055 146.263 124.089 135L124.772 135.73C112.561 147.159 96.1485 154.157 78.103 154.157C40.3753 154.157 9.79102 123.573 9.79102 85.8452C9.79102 48.1175 40.3753 17.5332 78.103 17.5332C101.426 17.5332 122.018 29.2215 134.343 47.0577L133.52 47.6261C121.374 30.0486 101.083 18.5332 78.103 18.5332Z" fill="#002B67"/>
<path fill-rule="evenodd" clip-rule="evenodd" d="M78.103 8.8457C77.596 8.8457 77.0902 8.8506 76.5856 8.86035L76.5663 7.86054C77.0773 7.85066 77.5896 7.8457 78.103 7.8457C78.6294 7.8457 79.1545 7.85092 79.6784 7.8613L79.6586 8.8611C79.1413 8.85085 78.6228 8.8457 78.103 8.8457ZM73.5663 8.97712C72.5563 9.0358 71.5514 9.11395 70.5522 9.21119L70.4554 8.21589C71.4675 8.11739 72.4853 8.03824 73.5083 7.9788L73.5663 8.97712ZM85.8634 9.23187C84.8364 9.1291 83.8035 9.04651 82.765 8.9845L82.8246 7.98627C83.8765 8.04909 84.9227 8.13274 85.963 8.23684L85.8634 9.23187ZM67.5465 9.5633C66.5444 9.70068 65.5485 9.85734 64.5591 10.0329L64.3844 9.04828C65.3867 8.87044 66.3956 8.71173 67.4107 8.57256L67.5465 9.5633ZM92.0178 10.0996C91.0021 9.91426 89.9793 9.7488 88.95 9.60369L89.0896 8.61348C90.1323 8.76048 91.1684 8.92809 92.1974 9.1159L92.0178 10.0996ZM61.5938 10.6196C60.607 10.8352 59.6272 11.0697 58.6549 11.3227L58.4031 10.3549C59.3881 10.0986 60.3807 9.86102 61.3804 9.64263L61.5938 10.6196ZM98.0822 11.4629C97.0841 11.1955 96.0781 10.9477 95.0645 10.7198L95.2838 9.74417C96.3107 9.97501 97.3299 10.2261 98.341 10.497L98.0822 11.4629ZM55.7434 12.1422C54.7762 12.4352 53.8172 12.7468 52.8666 13.0764L52.539 12.1316C53.502 11.7976 54.4736 11.482 55.4534 11.1852L55.7434 12.1422ZM104.016 13.3144C103.042 12.9665 102.059 12.6377 101.068 12.3284L101.366 11.3738C102.37 11.6871 103.366 12.0203 104.352 12.3727L104.016 13.3144ZM50.0299 14.1233C49.0899 14.4915 48.1589 14.8777 47.2373 15.2814L46.8361 14.3654C47.7697 13.9565 48.7128 13.5653 49.6651 13.1922L50.0299 14.1233ZM109.779 15.6419C108.836 15.2158 107.883 14.8082 106.921 14.4195L107.295 13.4922C108.27 13.8861 109.236 14.299 110.191 14.7306L109.779 15.6419ZM44.4929 16.5487C43.5849 16.9899 42.687 17.4484 41.7994 17.9238L41.3272 17.0423C42.2264 16.5607 43.136 16.0962 44.0558 15.6493L44.4929 16.5487ZM115.335 18.429C114.429 17.9278 113.512 17.4443 112.585 16.9791L113.033 16.0852C113.973 16.5566 114.901 17.0463 115.819 17.554L115.335 18.429ZM39.162 19.4039C38.292 19.9149 37.4329 20.4426 36.5851 20.9864L36.0452 20.1446C36.9039 19.5938 37.7742 19.0593 38.6555 18.5417L39.162 19.4039ZM120.647 21.6559C119.784 21.0832 118.91 20.5273 118.023 19.9889L118.542 19.1342C119.44 19.6797 120.326 20.2427 121.2 20.8229L120.647 21.6559ZM34.0725 22.6685C33.2456 23.2459 32.4305 23.8392 31.6277 24.4478L31.0236 23.6509C31.8368 23.0344 32.6624 22.4335 33.5 21.8486L34.0725 22.6685ZM125.682 25.3005C124.868 24.66 124.041 24.0355 123.201 23.4276L123.788 22.6175C124.638 23.2333 125.476 23.8659 126.301 24.5147L125.682 25.3005ZM29.2542 26.3214C28.475 26.9616 27.7086 27.6168 26.9555 28.2865L26.291 27.5393C27.0539 26.8609 27.8301 26.1972 28.6194 25.5488L29.2542 26.3214ZM130.409 29.3376C129.649 28.6336 128.874 27.9448 128.086 27.2716L128.736 26.5112C129.534 27.1931 130.318 27.8908 131.088 28.6039L130.409 29.3376ZM24.7354 30.3398C24.0088 31.0385 23.2959 31.7514 22.5971 32.478L21.8764 31.7849C22.5841 31.0489 23.3062 30.3268 24.0422 29.619L24.7354 30.3398ZM133.733 32.6072C133.375 32.2329 133.013 31.8622 132.647 31.4952L133.355 30.7893C133.726 31.1611 134.092 31.5366 134.455 31.9157L133.733 32.6072ZM20.5439 34.6981C19.8741 35.4513 19.219 36.2177 18.5788 36.9969L17.8061 36.362C18.4546 35.5728 19.1182 34.7965 19.7966 34.0336L20.5439 34.6981ZM16.7051 39.3704C16.0965 40.1732 15.5033 40.9882 14.9259 41.8152L14.106 41.2427C14.6909 40.405 15.2918 39.5794 15.9082 38.7662L16.7051 39.3704ZM13.2437 44.3278C12.6999 45.1755 12.1723 46.0346 11.6613 46.9046L10.799 46.3982C11.3167 45.5168 11.8511 44.6466 12.402 43.7878L13.2437 44.3278ZM10.1811 49.542C9.70572 50.4296 9.24722 51.3276 8.80603 52.2355L7.9066 51.7984C8.35354 50.8787 8.81802 49.969 9.2996 49.0699L10.1811 49.542ZM7.53874 54.9799C7.13505 55.9015 6.74889 56.8325 6.38068 57.7725L5.44956 57.4078C5.82259 56.4555 6.2138 55.5123 6.62276 54.5787L7.53874 54.9799ZM5.33373 60.6092C5.0041 61.5598 4.69258 62.5189 4.39957 63.486L3.44253 63.196C3.73938 62.2163 4.05498 61.2446 4.38892 60.2816L5.33373 60.6092ZM3.58003 66.3975C3.327 67.3698 3.0925 68.3496 2.87692 69.3365L1.89996 69.1231C2.11835 68.1233 2.35592 67.1307 2.61226 66.1457L3.58003 66.3975ZM2.29024 72.3017C2.11468 73.2911 1.95801 74.2871 1.82063 75.2892L0.829895 75.1533C0.969065 74.1382 1.12777 73.1293 1.30562 72.127L2.29024 72.3017ZM1.46852 78.2949C1.37127 79.2941 1.29313 80.2989 1.23445 81.3089L0.236129 81.2509C0.295564 80.2279 0.374718 79.2101 0.473219 78.198L1.46852 78.2949ZM1.11768 84.3282C1.10793 84.8329 1.10303 85.3387 1.10303 85.8457C1.10303 86.3527 1.10793 86.8585 1.11768 87.3632L0.117866 87.3825C0.107989 86.8714 0.103027 86.3591 0.103027 85.8457C0.103027 85.3323 0.107989 84.82 0.117867 84.3089L1.11768 84.3282ZM1.23444 90.3824C1.29312 91.3925 1.37127 92.3973 1.46852 93.3965L0.473218 93.4934C0.374717 92.4813 0.295562 91.4635 0.236128 90.4404L1.23444 90.3824ZM1.82063 96.4022C1.95801 97.4043 2.11468 98.4003 2.29023 99.3897L1.30561 99.5644C1.12777 98.5621 0.969063 97.5532 0.829893 96.538L1.82063 96.4022ZM2.87692 102.355C3.0925 103.342 3.327 104.322 3.58002 105.294L2.61226 105.546C2.35592 104.561 2.11835 103.568 1.89996 102.568L2.87692 102.355ZM4.39957 108.205C4.69258 109.173 5.0041 110.132 5.33373 111.082L4.38892 111.41C4.05498 110.447 3.73937 109.475 3.44253 108.495L4.39957 108.205ZM6.38068 113.919C6.74889 114.859 7.13505 115.79 7.53873 116.711L6.62276 117.113C6.2138 116.179 5.82259 115.236 5.44956 114.284L6.38068 113.919ZM8.80603 119.456C9.24722 120.364 9.70572 121.262 10.1811 122.149L9.2996 122.622C8.81802 121.722 8.35354 120.813 7.9066 119.893L8.80603 119.456ZM11.6613 124.787C12.1723 125.657 12.6999 126.516 13.2437 127.364L12.402 127.904C11.8511 127.045 11.3167 126.175 10.799 125.293L11.6613 124.787ZM14.9259 129.876C15.5033 130.703 16.0965 131.518 16.7051 132.321L15.9082 132.925C15.2918 132.112 14.6909 131.286 14.106 130.449L14.9259 129.876ZM18.5788 134.695C19.219 135.474 19.8741 136.24 20.5439 136.993L19.7966 137.658C19.1182 136.895 18.4546 136.119 17.8061 135.329L18.5788 134.695ZM22.5971 139.213C23.2959 139.94 24.0088 140.653 24.7354 141.352L24.0422 142.072C23.3062 141.365 22.5841 140.643 21.8764 139.907L22.5971 139.213ZM130.412 142.351C130.773 142.017 131.13 141.679 131.484 141.338L132.178 142.059C131.819 142.404 131.457 142.746 131.092 143.084L130.412 142.351ZM26.9555 143.405C27.7086 144.075 28.475 144.73 29.2542 145.37L28.6194 146.143C27.8301 145.494 27.0538 144.831 26.291 144.152L26.9555 143.405ZM125.935 146.191C126.706 145.579 127.464 144.953 128.21 144.313L128.861 145.072C128.106 145.721 127.338 146.355 126.557 146.974L125.935 146.191ZM31.6277 147.244C32.4305 147.852 33.2456 148.445 34.0725 149.023L33.5 149.843C32.6624 149.258 31.8367 148.657 31.0236 148.04L31.6277 147.244ZM121.18 149.678C121.995 149.127 122.798 148.561 123.591 147.98L124.182 148.786C123.38 149.375 122.565 149.949 121.74 150.507L121.18 149.678ZM36.5851 150.705C37.4328 151.249 38.2919 151.776 39.162 152.287L38.6555 153.15C37.7742 152.632 36.9039 152.098 36.0452 151.547L36.5851 150.705ZM116.171 152.793C117.026 152.305 117.871 151.802 118.705 151.284L119.233 152.133C118.388 152.658 117.532 153.168 116.666 153.661L116.171 152.793ZM41.7994 153.768C42.6869 154.243 43.5849 154.702 44.4928 155.143L44.0558 156.042C43.136 155.595 42.2263 155.131 41.3272 154.649L41.7994 153.768ZM110.939 155.514C111.829 155.093 112.71 154.656 113.581 154.203L114.043 155.091C113.16 155.55 112.268 155.992 111.366 156.418L110.939 155.514ZM47.2373 156.41C48.1588 156.814 49.0898 157.2 50.0298 157.568L49.6651 158.499C48.7128 158.126 47.7696 157.735 46.836 157.326L47.2373 156.41ZM105.513 157.824C106.433 157.474 107.345 157.106 108.248 156.721L108.64 157.641C107.725 158.031 106.801 158.404 105.869 158.759L105.513 157.824ZM52.8665 158.615C53.8171 158.945 54.7762 159.256 55.7433 159.549L55.4534 160.506C54.4736 160.209 53.502 159.894 52.5389 159.56L52.8665 158.615ZM99.9255 159.71C100.87 159.431 101.808 159.135 102.737 158.821L103.057 159.768C102.116 160.086 101.166 160.387 100.208 160.669L99.9255 159.71ZM58.6549 160.369C59.6272 160.622 60.6069 160.856 61.5938 161.072L61.3804 162.049C60.3806 161.83 59.388 161.593 58.403 161.336L58.6549 160.369ZM94.2091 161.159C95.1732 160.954 96.1306 160.73 97.0809 160.49L97.3266 161.459C96.3638 161.703 95.3939 161.929 94.4173 162.137L94.2091 161.159ZM64.5591 161.658C65.5485 161.834 66.5444 161.991 67.5465 162.128L67.4107 163.119C66.3955 162.98 65.3866 162.821 64.3843 162.643L64.5591 161.658ZM88.3979 162.164C89.3754 162.033 90.347 161.884 91.3125 161.717L91.4828 162.702C90.5048 162.872 89.5205 163.022 88.5304 163.155L88.3979 162.164ZM70.5522 162.48C71.5514 162.577 72.5562 162.656 73.5663 162.714L73.5083 163.713C72.4852 163.653 71.4675 163.574 70.4553 163.476L70.5522 162.48ZM82.5265 162.721C83.5118 162.665 84.4922 162.591 85.4672 162.498L85.5617 163.494C84.574 163.587 83.581 163.663 82.583 163.719L82.5265 162.721ZM76.5855 162.831C77.0902 162.841 77.596 162.846 78.103 162.846C78.5961 162.846 79.0881 162.841 79.5789 162.832L79.5977 163.832C79.1006 163.841 78.6023 163.846 78.103 163.846C77.5896 163.846 77.0773 163.841 76.5662 163.831L76.5855 162.831Z" fill="#002B67"/>
<path fill-rule="evenodd" clip-rule="evenodd" d="M93.5554 97.2027L93.5505 97.194C92.6072 95.5293 90.9575 93.9352 88.5073 92.4411C86.0582 90.9478 82.3729 89.3485 77.408 87.6524L77.4009 87.65C72.4163 85.9053 68.6604 84.1973 66.1954 82.5107L66.1881 82.5056C63.7242 80.7875 61.8557 78.7671 60.6229 76.4346L60.6176 76.4247C59.4121 74.0807 58.8334 71.2808 58.8334 68.0644C58.8334 62.7715 60.5819 58.4462 64.1303 55.1953C67.4457 52.1286 71.6854 50.4478 76.7778 50.0999V41.3564H81.3346V50.1178C86.7956 50.5918 91.1494 52.5614 94.2848 56.1035C97.5897 59.8061 99.186 64.8097 99.186 70.9931V71.9931H94.6757V70.9931C94.6757 65.9248 93.2358 61.9579 90.4384 58.9874L90.4315 58.9802C87.6798 55.9991 83.8913 54.4671 78.94 54.4671C74.1048 54.4671 70.3324 55.7609 67.5189 58.2577C64.7391 60.7518 63.3437 63.9605 63.3437 67.9714C63.3437 70.9125 63.826 73.1214 64.7001 74.6816C65.6175 76.2635 67.1508 77.7645 69.3763 79.1602C71.6444 80.532 74.8676 81.9447 79.0785 83.3893C83.3375 84.8504 86.6407 86.1688 88.9639 87.3458C91.3032 88.5 93.2713 89.8607 94.8487 91.4381C96.4252 93.0146 97.6046 94.7856 98.3713 96.7495C99.1726 98.7224 99.5579 101.008 99.5579 103.581C99.5579 108.75 97.8565 113.021 94.4127 116.299C91.2063 119.35 86.9902 121.071 81.846 121.526V130.336H77.2891V121.593C71.0038 121.199 65.9846 119.296 62.3465 115.783L62.3433 115.78C58.5144 112.05 56.6484 106.965 56.6484 100.653V99.6525H61.1588V100.653C61.1588 105.914 62.7836 109.915 65.9434 112.788C69.154 115.68 73.5556 117.179 79.2654 117.179C83.9274 117.179 87.6936 115.848 90.6442 113.245C93.5977 110.639 95.0476 107.468 95.0476 103.674C95.0476 100.977 94.5283 98.8428 93.5605 97.2112L93.5554 97.2027ZM65.2725 113.53C61.8634 110.43 60.1588 106.138 60.1588 100.653H57.6484C57.6484 100.99 57.6539 101.323 57.6649 101.653C57.8525 107.285 59.6446 111.755 63.0411 115.064C66.6361 118.535 71.7188 120.394 78.2891 120.642V129.336H80.846V120.596C86.2386 120.286 90.531 118.612 93.7232 115.575C96.9464 112.507 98.5579 108.509 98.5579 103.581C98.5579 101.102 98.186 98.9479 97.4422 97.1194C96.7294 95.2909 95.6292 93.6328 94.1416 92.1452C92.654 90.6576 90.7789 89.3559 88.5165 88.2402C86.2541 87.0935 82.9999 85.7918 78.754 84.3352C74.5081 82.8786 71.2075 81.4374 68.8521 80.0118C66.5277 78.5552 64.8541 76.9436 63.8314 75.177C62.8396 73.4105 62.3437 71.0086 62.3437 67.9714C62.3437 63.6945 63.8468 60.2079 66.8531 57.5116C69.8903 54.8153 73.9193 53.4671 78.94 53.4671C84.1157 53.4671 88.1911 55.0787 91.1663 58.3019C94.1726 61.494 95.6757 65.7245 95.6757 70.9931H98.186C98.186 70.6558 98.1812 70.3224 98.1714 69.9931C98.0073 64.4526 96.4626 60.0441 93.5372 56.7678C90.438 53.2656 86.0372 51.3596 80.3346 51.0497V42.3564H77.7778V51.0497C72.4471 51.2357 68.1238 52.8628 64.8076 55.931C61.4915 58.9682 59.8334 63.0127 59.8334 68.0644C59.8334 71.1636 60.3912 73.7979 61.5069 75.9673C62.6537 78.1368 64.4047 80.0428 66.7601 81.6854C69.1155 83.297 72.7726 84.9705 77.7313 86.7061C82.721 88.4106 86.4865 90.0377 89.0279 91.5873C91.5692 93.1369 93.3668 94.8415 94.4205 96.701C95.5052 98.5295 96.0476 100.854 96.0476 103.674C96.0476 107.765 94.467 111.205 91.3058 113.995C88.1446 116.784 84.1311 118.179 79.2654 118.179C73.3769 118.179 68.7126 116.629 65.2725 113.53Z" fill="#C96164"/>
</svg>
