<svg width="160" height="224" viewBox="0 0 160 224" fill="none" xmlns="http://www.w3.org/2000/svg">
<path d="M86.0619 18.1217L86.062 18.1217C126.116 18.6403 158.705 51.6656 158.705 91.7339C158.705 113.17 149.385 133.498 133.134 147.512C118.441 160.181 109.439 178.257 107.906 197.807H62.2964C60.8425 178.505 51.6903 160.304 36.6909 147.208L36.3621 147.584L36.6909 147.208C20.5959 133.159 11.403 112.857 11.4666 91.51C11.5256 71.8 19.3523 53.2742 33.5114 39.3416L33.5114 39.3415C47.6776 25.3993 66.3236 17.8624 86.0619 18.1217Z" stroke="#002B67"/>
<rect x="56.0571" y="197.752" width="57.0784" height="12.8983" rx="6.44914" stroke="#002B67"/>
<rect x="56.0571" y="210.538" width="57.0784" height="12.8983" rx="6.44914" stroke="#002B67"/>
<path d="M85.086 132.023C67.5 132.023 53.2437 117.766 53.2437 100.18C53.2437 82.5942 67.5 68.3379 85.086 68.3379" stroke="#002B67" stroke-width="0.5" stroke-dasharray="3 3"/>
<path d="M84.4378 147.973C58.0426 147.973 36.645 126.576 36.645 100.181C36.645 73.7853 58.0426 52.3877 84.4378 52.3877" stroke="#002B67"/>
<rect x="85.0225" y="77.4131" width="33.993" height="45.5356" stroke="#C96164"/>
<line x1="100.994" y1="77.0137" x2="100.994" y2="58.3249" stroke="#C96164"/>
<line x1="118.4" y1="106.99" x2="137.089" y2="106.99" stroke="#C96164"/>
<line x1="118.4" y1="85.7568" x2="129.979" y2="85.7568" stroke="#C96164"/>
<line x1="130.479" y1="70.3584" x2="130.479" y2="86.258" stroke="#C96164"/>
<path d="M101.494 123.448V131.175H110.08V138.473" stroke="#C96164"/>
<circle cx="100.914" cy="54.9008" r="3.5043" stroke="#C96164"/>
<circle cx="130.56" cy="67.0883" r="3.5043" stroke="#C96164"/>
<circle cx="140.755" cy="106.996" r="3.5043" stroke="#C96164"/>
<circle cx="110.08" cy="142.478" r="3.5043" stroke="#C96164"/>
<line x1="85.0225" y1="17.7275" x2="85.0225" y2="197.251" stroke="#002B67"/>
<line x1="141.099" y1="0.796875" x2="141.099" y2="23.057" stroke="#C96164"/>
<line x1="151.422" y1="11.6934" x2="129.736" y2="11.6934" stroke="#C96164"/>
<line x1="11.4668" y1="200.037" x2="11.4668" y2="221.901" stroke="#C96164"/>
<line x1="22.1157" y1="211.538" x2="0.10351" y2="211.538" stroke="#C96164"/>
</svg>
