<svg width="169" height="215" viewBox="0 0 169 215" fill="none" xmlns="http://www.w3.org/2000/svg">
<path d="M160.795 127.193C175.98 89.9286 162.744 31.772 162.744 31.772C162.744 31.772 135.786 28.1968 120.6 21.4576C105.414 14.7183 84.9725 0.729492 84.9725 0.729492C84.9725 0.729492 64.7249 14.7183 48.5267 21.4576C32.3284 28.1968 3.79002 31.772 3.79002 31.772C3.79002 31.772 -6.38878 89.9286 9.80949 127.193C26.0078 164.457 84.9725 213.936 84.9725 213.936C84.9725 213.936 145.609 164.457 160.795 127.193Z" stroke="#002B67"/>
<circle cx="84.3615" cy="95.071" r="43.8737" stroke="#C96164" stroke-dasharray="3 3"/>
<line x1="52.9932" y1="88.3554" x2="76.3435" y2="111.706" stroke="#C96164"/>
<line x1="131.665" y1="57.0909" x2="76.343" y2="112.412" stroke="#C96164"/>
</svg>
