<svg width="20" height="16" viewBox="0 0 20 16" fill="none" xmlns="http://www.w3.org/2000/svg">
<path d="M19.8911 12.9132C19.8911 13.3447 19.7697 13.7448 19.5752 14.0967L13.3605 7.14326L19.5079 1.76483C19.747 2.14432 19.8911 2.59011 19.8911 3.07183V12.9132ZM10.0495 8.4058L18.6034 0.921335C18.2524 0.729173 17.8571 0.611328 17.4307 0.611328H2.66827C2.24135 0.611328 1.84595 0.729173 1.49635 0.921335L10.0495 8.4058ZM12.4343 7.953L10.4543 9.68655C10.3384 9.78744 10.1942 9.83783 10.0495 9.83783C9.90467 9.83783 9.76046 9.78744 9.64464 9.68655L7.6642 7.95292L1.3708 14.9953C1.74802 15.2319 2.19011 15.3737 2.66823 15.3737H17.4307C17.9087 15.3737 18.351 15.2319 18.7281 14.9953L12.4343 7.953ZM0.591155 1.76479C0.352058 2.14428 0.207886 2.59007 0.207886 3.07183V12.9133C0.207886 13.3448 0.328692 13.7448 0.523856 14.0967L6.73791 7.14208L0.591155 1.76479Z" fill="#002B67"/>
</svg>
