<svg width="499" height="388" viewBox="0 0 499 388" fill="none" xmlns="http://www.w3.org/2000/svg">
<path d="M831.593 498.849L815.535 492.615L796.643 483.925C793.222 482.719 790.358 480.309 788.585 477.145C786.811 473.981 786.251 470.28 787.008 466.733C788.331 441.229 789.086 416.104 789.464 392.3C789.464 382.099 792.109 378.131 800.799 374.92L814.779 369.63L836.315 360.373C844.224 357.391 850.904 351.843 855.287 344.617C859.671 337.391 861.505 328.903 860.497 320.512C860.497 317.678 860.497 314.844 859.363 312.01V309.366C853.132 275.693 840.291 243.588 821.58 214.907C819.354 210.436 816.265 206.451 812.489 203.181C808.713 199.912 804.327 197.423 799.584 195.86C794.84 194.296 789.834 193.689 784.854 194.072C779.875 194.455 775.021 195.822 770.572 198.094L757.537 203.006L737.512 210.562C734.103 211.986 730.3 212.161 726.774 211.055C723.249 209.949 720.227 207.633 718.243 204.517C701.618 185.625 684.993 168.434 668.557 151.62C665.177 149.348 662.813 145.849 661.967 141.865C661.121 137.88 661.858 133.723 664.024 130.273L669.691 117.804C673.092 110.059 676.681 102.313 679.893 94.5674C683.33 87.1198 684.098 78.7158 682.069 70.7683C680.039 62.8208 675.334 55.8146 668.746 50.9276C637.772 26.143 601.294 9.16735 562.386 1.43148C553.992 -0.6623 545.126 0.297321 537.374 4.13885C529.621 7.98038 523.488 14.4535 520.069 22.4012C516.48 29.9579 513.079 37.5146 509.49 45.2601L504.2 58.1065C500.044 67.3634 495.888 69.6304 485.308 69.0636L445.636 67.5523C443.682 67.5523 441.808 68.3286 440.426 69.7103C439.044 71.092 438.268 72.966 438.268 74.9201C438.268 76.8741 439.044 78.7481 440.426 80.1298C441.808 81.5116 443.682 82.2878 445.636 82.2878L483.419 83.7991C490.347 85.0603 497.498 83.863 503.638 80.4139C509.777 76.9648 514.52 71.4804 517.046 64.9075L522.525 52.8168C525.925 45.2601 529.326 37.7035 532.915 30.3357C534.844 25.1433 538.651 20.8641 543.584 18.3451C548.517 15.8262 554.216 15.2511 559.553 16.7337C596.064 23.9098 630.33 39.7147 659.49 62.8294C663.458 65.7665 666.286 69.9886 667.492 74.7765C668.698 79.5645 668.206 84.6224 666.102 89.0888C662.89 96.8344 659.489 104.391 656.089 111.948L650.422 124.416C647.031 130.58 645.911 137.738 647.257 144.643C648.604 151.548 652.331 157.761 657.789 162.2C674.036 178.635 690.472 196.393 707.096 214.529C711.047 219.98 716.724 223.935 723.206 225.753C729.687 227.571 736.593 227.144 742.802 224.542L763.205 216.985L776.24 212.074C779.148 210.445 782.364 209.441 785.682 209.124C788.999 208.807 792.347 209.185 795.511 210.234C798.674 211.282 801.585 212.979 804.057 215.214C806.529 217.45 808.507 220.177 809.867 223.22C827.147 250.191 838.958 280.295 844.628 311.822V314.089C844.628 316.733 844.628 319.378 845.572 322.212C846.413 327.313 845.485 332.548 842.943 337.049C840.4 341.55 836.395 345.047 831.593 346.96L810.056 355.083L795.887 360.373C789.346 362.312 783.68 366.46 779.856 372.11C776.032 377.76 774.286 384.562 774.918 391.355C774.918 414.97 773.784 439.907 772.462 465.222C771.624 471.788 773.035 478.444 776.466 484.105C779.897 489.766 785.145 494.098 791.353 496.393L810.245 505.272L825.736 512.262C831.216 514.24 835.734 518.234 838.367 523.431C841.001 528.628 841.551 534.633 839.905 540.222C832.376 575.874 816.587 609.262 793.809 637.703C790.753 642.285 786.108 645.573 780.771 646.933C775.434 648.294 769.782 647.63 764.905 645.07L744.124 635.625L731.467 629.957C725.236 626.717 718.081 625.719 711.201 627.129C704.322 628.539 698.137 632.273 693.683 637.703C677.248 653.95 659.867 670.385 641.92 686.443C636.309 690.395 632.231 696.159 630.373 702.766C628.515 709.373 628.99 716.418 631.719 722.715L638.52 741.607L644.754 758.42C647.368 763.648 647.844 769.687 646.081 775.259C644.318 780.831 640.454 785.498 635.308 788.269C605.161 808.565 570.673 821.506 534.616 826.053C529.017 827.218 523.185 826.206 518.307 823.222C513.428 820.239 509.87 815.509 508.356 809.995L505.334 801.871L495.321 775.423C493.221 769.009 489.022 763.489 483.401 759.754C477.78 756.018 471.065 754.284 464.339 754.831H445.447C444.473 754.78 443.499 754.927 442.584 755.265C441.668 755.603 440.832 756.123 440.125 756.795C439.418 757.467 438.855 758.276 438.471 759.172C438.086 760.069 437.889 761.034 437.89 762.01C437.865 762.977 438.031 763.941 438.378 764.844C438.725 765.748 439.247 766.574 439.914 767.276C440.581 767.977 441.379 768.541 442.264 768.934C443.148 769.327 444.102 769.542 445.069 769.567H463.961C467.741 768.997 471.599 769.811 474.827 771.858C478.055 773.906 480.435 777.05 481.53 780.713C484.931 789.403 488.331 798.282 491.543 806.972L494.565 815.095C496.865 822.685 501.577 829.318 507.986 833.988C514.395 838.659 522.152 841.112 530.082 840.977H536.127C574.358 835.823 610.85 821.783 642.676 799.982C650.456 795.291 656.285 787.953 659.095 779.314C661.906 770.675 661.509 761.312 657.978 752.942L651.744 736.128L644.943 717.237C641.731 708.546 643.243 704.013 651.177 696.834C670.069 680.587 687.071 663.962 703.507 647.526C706.039 644.112 709.794 641.811 713.986 641.106C718.178 640.402 722.48 641.349 725.988 643.748L738.646 649.416L759.615 658.861C767.52 662.515 776.444 663.326 784.878 661.158C793.312 658.989 800.738 653.973 805.9 646.96C829.614 616.558 845.914 581.046 853.507 543.244C855.809 534.446 854.86 525.112 850.834 516.957C846.809 508.802 839.977 502.373 831.593 498.849Z" fill="#FAFAFA"/>
<path d="M348.722 375.675C348.453 374.643 347.957 373.683 347.271 372.866C346.585 372.049 345.725 371.395 344.754 370.952L316.984 354.139V249.857H504.389L406.341 415.726H599.981L439.024 690.033C438.981 690.472 438.981 690.915 439.024 691.355C438.966 691.857 438.966 692.364 439.024 692.866C438.977 693.306 438.977 693.749 439.024 694.189V695.511V696.645L440.157 697.589H441.48H443.936C452.248 697.589 460.56 696.645 468.684 695.511C538.202 686.844 602.227 653.288 648.91 601.053C674.618 572.185 693.744 538.075 704.966 501.085C716.187 464.094 719.234 425.106 713.898 386.821C706.117 320.515 674.726 259.225 625.467 214.163C576.207 169.101 512.372 143.278 445.636 141.419C443.713 141.367 441.846 142.069 440.434 143.375C439.022 144.681 438.177 146.488 438.079 148.409C438.027 150.331 438.73 152.198 440.036 153.61C441.342 155.022 443.148 155.867 445.069 155.965C509.054 157.396 570.328 182.078 617.439 225.399C664.55 268.72 694.272 327.715 701.051 391.355C705.389 425.908 702.79 460.979 693.407 494.515C684.024 528.051 668.046 559.379 646.408 586.664C624.77 613.95 597.906 636.645 567.389 653.421C536.873 670.197 503.316 680.717 468.684 684.365L458.86 685.499L625.673 400.99H432.034L529.326 235.121H311.316L219.881 187.325L304.893 138.018L401.429 189.404H403.885H406.53L408.419 188.081C408.945 187.586 409.391 187.013 409.742 186.381C409.792 185.878 409.792 185.372 409.742 184.87C409.777 184.429 409.777 183.987 409.742 183.547V67.1745L304.704 6.53223L101.997 125.361V238.711L0.359436 298.031V533.987L100.107 595.196V708.546L302.626 827.186L406.53 770.511C407.52 769.965 408.363 769.187 408.986 768.244C409.861 767.579 410.571 766.723 411.062 765.74C411.553 764.757 411.813 763.675 411.82 762.577V640.159H410.875L348.722 375.675ZM110.12 364.529L197.211 417.048V530.398L113.709 579.328V470.889L20.5735 415.348L110.12 364.529ZM208.734 307.854L293.936 356.973L208.168 406.847L124.667 356.217L208.734 307.854ZM116.732 343.748V255.147L193.999 299.731L116.732 343.748ZM223.47 299.92L302.626 255.147V345.449L223.47 299.92ZM374.603 550.045L309.049 583.862L211.946 530.398V426.872L304.515 483.547L352.689 456.91L374.603 550.045ZM204.578 543.055L293.558 591.796L204.2 638.081L122.4 591.04L204.578 543.055ZM219.314 646.582L297.336 605.965V690.788L219.314 646.582ZM289.024 703.257L211.946 750.486V659.428L289.024 703.257ZM312.072 601.62L397.084 648.849V748.786L312.072 700.423V601.62ZM324.918 591.985L378.193 564.781L393.684 630.146L324.918 591.985ZM349.288 440.852L304.893 465.411L221.77 414.592L308.671 365.096L335.12 381.154L349.288 440.852ZM397.084 171.456L312.072 125.172V27.502L397.084 75.6757V171.456ZM116.732 133.673L297.336 27.6909V125.361L189.276 187.892L294.125 242.678L208.168 291.419L116.732 238.333V133.673ZM101.997 255.335V352.25L15.0949 401.746V307.288L101.997 255.335ZM15.0949 429.139L98.785 479.202V577.249L15.0949 525.675V429.139ZM115.221 603.887L197.399 650.927V748.219L115.032 700.423L115.221 603.887ZM221.392 762.388L303.571 711.947L391.417 762.199L302.626 810.373L221.392 762.388Z" fill="#FAFAFA"/>
</svg>
