<svg width="862" height="274" viewBox="0 0 862 274" fill="none" xmlns="http://www.w3.org/2000/svg">
<path d="M832.018 498.718L815.96 492.484L797.069 483.794C793.648 482.588 790.784 480.178 789.01 477.014C787.237 473.851 786.677 470.149 787.434 466.602C788.756 441.099 789.512 415.973 789.89 392.169C789.89 381.968 792.535 378 801.225 374.789L815.205 369.499L836.741 360.242C844.65 357.26 851.33 351.712 855.713 344.486C860.097 337.26 861.931 328.772 860.923 320.381C860.923 317.547 860.923 314.713 859.789 311.88V309.235C853.558 275.562 840.716 243.457 822.006 214.776C819.78 210.305 816.69 206.32 812.915 203.05C809.139 199.781 804.753 197.292 800.01 195.729C795.266 194.165 790.26 193.558 785.28 193.941C780.301 194.325 775.446 195.692 770.998 197.963L757.963 202.875L737.938 210.431C734.529 211.856 730.726 212.03 727.2 210.924C723.675 209.818 720.653 207.503 718.668 204.386C702.044 185.494 685.419 168.303 668.983 151.489C665.603 149.217 663.239 145.718 662.393 141.734C661.547 137.749 662.284 133.592 664.449 130.142L670.117 117.673C673.517 109.928 677.107 102.182 680.318 94.4365C683.756 86.989 684.524 78.5849 682.494 70.6375C680.464 62.69 675.76 55.6837 669.172 50.7968C638.198 26.0121 601.72 9.03649 562.812 1.30062C554.417 -0.79316 545.552 0.166462 537.799 4.00799C530.047 7.84952 523.914 14.3226 520.495 22.2704C516.905 29.827 513.505 37.3837 509.915 45.1293L504.626 57.9756C500.47 67.2325 496.313 69.4995 485.734 68.9328L446.062 67.4214C444.108 67.4214 442.234 68.1977 440.852 69.5794C439.47 70.9611 438.694 72.8352 438.694 74.7892C438.694 76.7432 439.47 78.6173 440.852 79.999C442.234 81.3807 444.108 82.157 446.062 82.157L483.845 83.6683C490.773 84.9295 497.924 83.7322 504.063 80.2831C510.203 76.834 514.945 71.3495 517.472 64.7766L522.951 52.686C526.351 45.1293 529.752 37.5726 533.341 30.2049C535.269 25.0124 539.077 20.7332 544.01 18.2143C548.943 15.6953 554.642 15.1202 559.978 16.6029C596.49 23.779 630.755 39.5839 659.915 62.6985C663.884 65.6356 666.712 69.8577 667.918 74.6457C669.123 79.4337 668.632 84.4915 666.527 88.9579C663.316 96.7035 659.915 104.26 656.515 111.817L650.847 124.285C647.457 130.449 646.337 137.608 647.683 144.512C649.03 151.417 652.757 157.63 658.215 162.069C674.462 178.504 690.898 196.263 707.522 214.399C711.473 219.849 717.15 223.805 723.631 225.622C730.113 227.44 737.019 227.013 743.228 224.411L763.631 216.855L776.666 211.943C779.574 210.314 782.789 209.31 786.107 208.993C789.425 208.676 792.773 209.054 795.936 210.103C799.1 211.151 802.011 212.848 804.483 215.084C806.954 217.319 808.933 220.046 810.293 223.089C827.573 250.06 839.383 280.165 845.054 311.691V313.958C845.054 316.603 845.054 319.247 845.998 322.081C846.839 327.182 845.911 332.417 843.368 336.918C840.826 341.419 836.821 344.916 832.018 346.829L810.482 354.953L796.313 360.242C789.772 362.181 784.106 366.329 780.282 371.979C776.458 377.629 774.712 384.431 775.343 391.225C775.343 414.839 774.21 439.776 772.887 465.091C772.05 471.657 773.461 478.313 776.892 483.974C780.323 489.635 785.57 493.967 791.779 496.262L810.671 505.141L826.162 512.131C831.642 514.109 836.16 518.104 838.793 523.3C841.426 528.497 841.976 534.503 840.331 540.091C832.801 575.743 817.013 609.131 794.235 637.572C791.178 642.154 786.534 645.442 781.197 646.802C775.86 648.163 770.208 647.499 765.331 644.94L744.55 635.494L731.893 629.826C725.662 626.586 718.507 625.588 711.627 626.998C704.748 628.409 698.562 632.142 694.109 637.572C677.673 653.819 660.293 670.254 642.346 686.312C636.735 690.264 632.657 696.029 630.799 702.635C628.941 709.242 629.416 716.287 632.145 722.584L638.946 741.476L645.18 758.29C647.794 763.517 648.27 769.556 646.507 775.129C644.743 780.701 640.879 785.367 635.734 788.138C605.586 808.434 571.098 821.375 535.041 825.922C529.443 827.087 523.611 826.075 518.733 823.092C513.854 820.108 510.296 815.378 508.782 809.864L505.759 801.74L495.747 775.292C493.647 768.878 489.448 763.358 483.827 759.623C478.206 755.887 471.491 754.153 464.764 754.7H445.873C444.899 754.649 443.924 754.797 443.009 755.134C442.094 755.472 441.258 755.993 440.55 756.664C439.843 757.336 439.28 758.145 438.896 759.042C438.512 759.938 438.315 760.904 438.316 761.879C438.291 762.847 438.457 763.81 438.804 764.713C439.151 765.617 439.673 766.443 440.34 767.145C441.006 767.847 441.805 768.41 442.689 768.803C443.574 769.196 444.527 769.411 445.495 769.436H464.387C468.166 768.866 472.025 769.68 475.253 771.728C478.481 773.775 480.861 776.919 481.956 780.582C485.356 789.272 488.757 798.151 491.968 806.841L494.991 814.965C497.291 822.554 502.003 829.187 508.412 833.857C514.821 838.528 522.578 840.982 530.507 840.846H536.553C574.784 835.692 611.275 821.652 643.102 799.851C650.882 795.16 656.711 787.823 659.521 779.183C662.331 770.544 661.935 761.182 658.404 752.811L652.17 735.997L645.369 717.106C642.157 708.416 643.668 703.882 651.603 696.703C670.495 680.456 687.497 663.831 703.933 647.396C706.464 643.981 710.22 641.68 714.412 640.975C718.604 640.271 722.905 641.218 726.414 643.617L739.071 649.285L760.041 658.731C767.946 662.384 776.87 663.196 785.304 661.027C793.738 658.858 801.164 653.843 806.326 646.829C830.04 616.427 846.34 580.916 853.933 543.114C856.235 534.315 855.286 524.982 851.26 516.826C847.235 508.671 840.403 502.242 832.018 498.718Z" fill="#f1f1f1"/>
<path d="M349.147 375.544C348.879 374.512 348.383 373.552 347.697 372.735C347.011 371.918 346.151 371.264 345.18 370.822L317.409 354.008V249.726H504.815L406.767 415.595H600.407L439.45 689.902C439.407 690.342 439.407 690.784 439.45 691.224C439.392 691.726 439.392 692.233 439.45 692.735C439.403 693.175 439.403 693.618 439.45 694.058V695.38V696.514L440.583 697.458H441.906H444.361C452.674 697.458 460.986 696.514 469.11 695.38C538.628 686.713 602.653 653.157 649.336 600.922C675.044 572.054 694.17 537.944 705.391 500.954C716.613 463.963 719.66 424.976 714.323 386.691C706.543 320.384 675.152 259.094 625.893 214.032C576.633 168.97 512.797 143.148 446.062 141.288C444.139 141.236 442.272 141.938 440.86 143.244C439.448 144.55 438.603 146.357 438.505 148.278C438.453 150.201 439.155 152.067 440.461 153.479C441.768 154.891 443.574 155.736 445.495 155.834C509.48 157.265 570.754 181.947 617.865 225.268C664.975 268.589 694.698 327.584 701.477 391.225C705.814 425.777 703.216 460.848 693.833 494.384C684.45 527.92 668.472 559.248 646.834 586.533C625.196 613.819 598.332 636.514 567.815 653.29C537.298 670.066 503.742 680.586 469.11 684.234L459.286 685.368L626.099 400.859H432.46L529.752 234.99H311.742L220.306 187.195L305.319 137.887L401.855 189.273H404.311H406.956L408.845 187.95C409.371 187.455 409.817 186.882 410.168 186.25C410.218 185.747 410.218 185.241 410.168 184.739C410.203 184.299 410.203 183.856 410.168 183.416V67.0436L305.13 6.40137L102.422 125.23V238.58L0.785217 297.9V533.857L100.533 595.066V708.416L303.052 827.055L406.956 770.38C407.946 769.834 408.789 769.056 409.412 768.113C410.286 767.448 410.997 766.592 411.488 765.609C411.979 764.627 412.238 763.544 412.246 762.446V640.028H411.301L349.147 375.544ZM110.546 364.398L197.636 416.917V530.267L114.135 579.197V470.758L20.9993 415.217L110.546 364.398ZM209.16 307.723L294.362 356.842L208.594 406.716L125.092 356.086L209.16 307.723ZM117.158 343.618V255.016L194.425 299.6L117.158 343.618ZM223.896 299.789L303.052 255.016V345.318L223.896 299.789ZM375.029 549.915L309.475 583.731L212.372 530.267V426.741L304.941 483.416L353.115 456.779L375.029 549.915ZM205.004 542.925L293.984 591.665L204.626 637.95L122.825 590.909L205.004 542.925ZM219.74 646.451L297.762 605.834V690.657L219.74 646.451ZM289.45 703.126L212.372 750.355V659.297L289.45 703.126ZM312.498 601.489L397.51 648.718V748.655L312.498 700.292V601.489ZM325.344 591.854L378.618 564.65L394.11 630.015L325.344 591.854ZM349.714 440.721L305.319 465.28L222.196 414.461L309.097 364.965L335.545 381.023L349.714 440.721ZM397.51 171.326L312.498 125.041V27.3711L397.51 75.5449V171.326ZM117.158 133.542L297.762 27.56V125.23L189.702 187.761L294.551 242.547L208.594 291.288L117.158 238.202V133.542ZM102.422 255.205V352.119L15.5207 401.615V307.157L102.422 255.205ZM15.5207 429.008L99.2108 479.071V577.119L15.5207 525.544V429.008ZM115.647 603.756L197.825 650.796V748.088L115.458 700.292L115.647 603.756ZM221.818 762.257L303.996 711.816L391.843 762.068L303.052 810.242L221.818 762.257Z" fill="#f1f1f1"/>
</svg>
