<svg width="10" height="21" viewBox="0 0 10 21" fill="none" xmlns="http://www.w3.org/2000/svg">
<path d="M2.34315 4.5571C2.34315 5.05312 2.34315 7.26708 2.34315 7.26708H0.357727V10.5808H2.34315V20.4282H6.42162V10.5811H9.15847C9.15847 10.5811 9.41479 8.99219 9.53903 7.25486C9.18281 7.25486 6.43704 7.25486 6.43704 7.25486C6.43704 7.25486 6.43704 5.32701 6.43704 4.9891C6.43704 4.65046 6.88172 4.19494 7.32123 4.19494C7.75991 4.19494 8.68578 4.19494 9.54333 4.19494C9.54333 3.74376 9.54333 2.18486 9.54333 0.745117C8.39853 0.745117 7.09612 0.745117 6.52203 0.745117C2.24233 0.744888 2.34315 4.06195 2.34315 4.5571Z" fill="#002B67"/>
</svg>
