<svg width="31" height="36" viewBox="0 0 31 36" fill="none" xmlns="http://www.w3.org/2000/svg">
<path d="M30.767 22.5111L21.3802 12.7404C21.2074 12.5606 20.9322 12.5274 20.7214 12.6611L15.5143 15.9656V6.6596C15.5143 6.36933 15.2792 6.13414 14.9895 6.13414C14.6997 6.13414 14.4647 6.36933 14.4647 6.6596V16.0522L9.3071 13.3458L12.8318 1.1088H14.4647V4.55696C14.4647 4.84723 14.6997 5.08268 14.9895 5.08268C15.2792 5.08268 15.514 4.84723 15.514 4.55696V0.583346C15.514 0.293074 15.2792 0.0576172 14.9895 0.0576172H12.4372C12.2035 0.0576172 11.9979 0.212609 11.9332 0.437535L8.18017 13.4665C8.11117 13.7063 8.22006 13.962 8.44081 14.0779L13.9013 16.943L12.2202 17.9154C12.2194 17.9162 12.2184 17.9167 12.2173 17.9173L0.603768 24.6345C0.35283 24.7795 0.266848 25.1011 0.411589 25.3525L1.68757 27.5667C1.78299 27.7319 1.95765 27.8294 2.14201 27.8294C2.18379 27.8294 2.22611 27.8246 2.26816 27.814L10.8305 25.6906L10.4359 28.2941C9.47232 27.9053 8.55213 27.3904 7.69635 26.7534C7.46401 26.5803 7.13517 26.6286 6.9624 26.8617C6.78936 27.0947 6.83788 27.4241 7.07049 27.5972C8.0675 28.3392 9.14457 28.9292 10.2742 29.3607L9.44295 34.8451C9.42003 34.9965 9.46424 35.1505 9.5637 35.2666C9.66343 35.3827 9.80871 35.4496 9.9618 35.4496H20.0169C20.1697 35.4496 20.315 35.3827 20.4147 35.2666C20.5144 35.1505 20.5586 34.9965 20.5354 34.8451L20.2753 33.1286C20.2319 32.8415 19.964 32.6441 19.6778 32.6879C19.3915 32.7314 19.1945 32.9995 19.2379 33.2865L19.4064 34.3985H10.572L11.2841 29.7004C12.4731 30.0471 13.7089 30.2245 14.9614 30.2245C15.6129 30.2245 16.2695 30.1764 16.9258 30.0798C17.5282 29.9907 18.1182 29.8613 18.6937 29.6953L18.8875 30.9738C18.9269 31.2341 19.1506 31.4207 19.4055 31.4207C19.4317 31.4207 19.4581 31.4188 19.4851 31.4145C19.7716 31.371 19.9683 31.1031 19.9249 30.8161L19.7042 29.3591C22.057 28.4694 24.1108 26.9246 25.6467 24.8538C25.8194 24.6208 25.7712 24.2916 25.5386 24.1185C25.3057 23.9455 24.9771 23.9938 24.8044 24.2268C23.4362 26.0716 21.6211 27.463 19.5427 28.2938L18.1916 19.3797L28.8506 25.5448C28.9312 25.5915 29.0218 25.6153 29.1132 25.6153C29.1585 25.6153 29.2043 25.6093 29.2487 25.5974C29.3832 25.5613 29.4978 25.4732 29.5673 25.3525L30.8433 23.1384C30.9603 22.9356 30.929 22.6796 30.767 22.5111ZM1.58272 25.282L14.5008 17.8103L14.7399 23.6382L2.39915 26.6986L1.58272 25.282ZM18.5347 28.6468C17.9627 28.819 17.3743 28.9508 16.7727 29.0396C14.9587 29.3075 13.1472 29.169 11.4432 28.6508L11.9335 25.4173L15.4078 24.5557C15.6498 24.4955 15.8161 24.2733 15.8062 24.0238L15.5528 17.8538L17.028 18.7068L18.5347 28.6468ZM28.921 24.3715L16.0029 16.9001L20.9212 13.7787L29.7371 22.955L28.921 24.3715Z" fill="#002B67"/>
<path fill-rule="evenodd" clip-rule="evenodd" d="M21.3802 12.7409L30.767 22.5116C30.929 22.6801 30.9603 22.9361 30.8433 23.1388L29.5673 25.353C29.4978 25.4737 29.3832 25.5617 29.2488 25.5979C29.2043 25.6098 29.1585 25.6157 29.1132 25.6157C29.0218 25.6157 28.9312 25.592 28.8506 25.5453L17.028 18.7073L15.5528 17.8543L15.8062 24.0242C15.8161 24.2737 15.6498 24.496 15.4078 24.5562L11.9335 25.4178L2.26816 27.8145C2.22611 27.825 2.18379 27.8299 2.14201 27.8299C1.95765 27.8299 1.78299 27.7324 1.68757 27.5672L0.411589 25.353C0.266848 25.1016 0.35283 24.78 0.603768 24.635L12.2173 17.9177L12.2202 17.9159L13.9013 16.9435L8.44081 14.0783C8.22006 13.9625 8.11117 13.7068 8.18017 13.467L11.9332 0.438023C11.9979 0.213097 12.2035 0.0581055 12.4372 0.0581055H14.9895C15.2792 0.0581055 15.514 0.293563 15.514 0.583834V4.55744C15.514 4.84771 15.2792 5.08317 14.9895 5.08317C14.6997 5.08317 14.4647 4.84771 14.4647 4.55744V1.10929H12.8318L9.3071 13.3463L14.4647 16.0527V6.66009C14.4647 6.36982 14.6997 6.13463 14.9895 6.13463C15.2792 6.13463 15.5143 6.36982 15.5143 6.66009V15.966L20.7214 12.6615C20.9322 12.5279 21.2074 12.5611 21.3802 12.7409ZM14.5008 17.8108L1.58272 25.2825L2.39915 26.6991L14.7399 23.6387L14.5008 17.8108ZM16.0029 16.9006L28.921 24.372L29.7372 22.9555L20.9212 13.7792L16.0029 16.9006Z" fill="#E15C66"/>
<path d="M16.724 4.7923C18.7262 5.07771 20.6482 5.87157 22.2822 7.08801C25.6279 9.57867 27.4635 13.5566 27.192 17.7292C27.1729 18.019 27.3923 18.269 27.6815 18.2879C27.6931 18.2887 27.7044 18.2892 27.716 18.2892C27.9901 18.2892 28.2211 18.0757 28.2392 17.7975C28.5338 13.2674 26.5408 8.94845 22.908 6.2442C21.1339 4.92353 19.0469 4.06163 16.872 3.75137C16.5855 3.7106 16.3195 3.91042 16.2788 4.19772C16.2378 4.48529 16.4373 4.75126 16.724 4.7923Z" fill="#002B67"/>
<path d="M3.24463 22.4293C3.31256 22.4293 3.38183 22.4161 3.4484 22.3877C3.71551 22.2749 3.84031 21.9665 3.72764 21.6992C2.91337 19.7675 2.60448 17.6451 2.83494 15.5611C3.07213 13.415 3.88101 11.3588 5.17424 9.615C6.27799 8.12692 7.66152 6.93802 9.28656 6.08179C9.54316 5.94651 9.64154 5.6287 9.50677 5.37191C9.37173 5.11485 9.05449 5.01629 8.79816 5.1513C7.0327 6.08152 5.5303 7.37248 4.33194 8.98801C2.92793 10.8811 2.04951 13.1142 1.79183 15.4455C1.54197 17.7075 1.87701 20.0113 2.76108 22.108C2.84545 22.3089 3.04005 22.4293 3.24463 22.4293Z" fill="#002B67"/>
</svg>
