<svg width="39" height="33" viewBox="0 0 39 33" fill="none" xmlns="http://www.w3.org/2000/svg">
<path d="M13.7134 8.24902V21.8632C13.7134 27.4937 18.2778 32.0581 23.9083 32.0581V32.0581C29.5387 32.0581 34.1031 27.4937 34.1031 21.8632V16.9745" stroke="#002B67"/>
<path d="M30.5762 11.4414V14.1232C30.5762 16.0711 32.1553 17.6502 34.1031 17.6502V17.6502C36.051 17.6502 37.6301 16.0711 37.6301 14.1232V11.4414" stroke="#002B67"/>
<path d="M8.74268 9.23828V10.4898C8.74268 13.2352 10.9683 15.4608 13.7136 15.4608V15.4608C16.459 15.4608 18.6846 13.2352 18.6846 10.4898V9.23828" stroke="#002B67"/>
<line x1="29.9575" y1="10.9414" x2="38.2572" y2="10.9414" stroke="#002B67"/>
<line x1="32.3867" y1="10.4043" x2="32.3867" y2="8.3166" stroke="#002B67"/>
<line x1="36.1909" y1="10.4043" x2="36.1909" y2="8.3166" stroke="#002B67"/>
<path d="M13.8332 8.65257C13.791 8.69334 13.751 8.7314 13.7135 8.76658C13.6761 8.7314 13.6361 8.69334 13.5938 8.65257C13.3231 8.39146 12.9632 8.0225 12.6048 7.58996C12.2452 7.15599 11.8952 6.66785 11.637 6.16862C11.3769 5.6656 11.2261 5.18222 11.2261 4.74906C11.2261 4.31591 11.3769 3.83252 11.637 3.32951C11.8952 2.83027 12.2452 2.34214 12.6048 1.90816C12.9632 1.47563 13.3231 1.10666 13.5938 0.84555C13.6361 0.804789 13.6761 0.766729 13.7135 0.731543C13.751 0.766729 13.791 0.804789 13.8332 0.84555C14.104 1.10666 14.4638 1.47563 14.8223 1.90816C15.1819 2.34214 15.5319 2.83027 15.7901 3.32951C16.0502 3.83252 16.201 4.31591 16.201 4.74906C16.201 5.18222 16.0502 5.6656 15.7901 6.16862C15.5319 6.66785 15.1819 7.15599 14.8223 7.58996C14.4638 8.0225 14.104 8.39146 13.8332 8.65257Z" stroke="#E15C66"/>
<path d="M18.6799 8.79823C18.6212 8.79717 18.566 8.79578 18.5147 8.7942C18.5131 8.74286 18.5117 8.68765 18.5107 8.62894C18.5038 8.25286 18.5103 7.73751 18.5627 7.17821C18.6153 6.61704 18.7129 6.0244 18.8834 5.48882C19.0551 4.94921 19.2903 4.50077 19.5966 4.19449C19.9029 3.8882 20.3513 3.65302 20.8909 3.48127C21.4265 3.31082 22.0192 3.21313 22.5803 3.16057C23.1396 3.10817 23.655 3.10172 24.0311 3.10854C24.0898 3.10961 24.145 3.11099 24.1963 3.11257C24.1979 3.16391 24.1993 3.21912 24.2003 3.27783C24.2072 3.65392 24.2007 4.16926 24.1483 4.72857C24.0958 5.28973 23.9981 5.88238 23.8276 6.41795C23.6559 6.95757 23.4207 7.406 23.1144 7.71229C22.8081 8.01857 22.3597 8.25375 21.8201 8.4255C21.2845 8.59596 20.6919 8.69364 20.1307 8.74621C19.5714 8.7986 19.056 8.80505 18.6799 8.79823Z" stroke="#E15C66"/>
<path d="M8.72288 8.79823C8.78159 8.79717 8.8368 8.79578 8.88814 8.7942C8.88972 8.74286 8.89111 8.68765 8.89217 8.62894C8.89899 8.25286 8.89254 7.73751 8.84015 7.17821C8.78758 6.61704 8.6899 6.0244 8.51944 5.48882C8.34769 4.94921 8.11252 4.50077 7.80623 4.19449C7.49994 3.8882 7.05151 3.65302 6.51189 3.48127C5.97632 3.31082 5.38368 3.21313 4.82251 3.16057C4.2632 3.10817 3.74786 3.10172 3.37177 3.10854C3.31306 3.10961 3.25785 3.11099 3.20651 3.11257C3.20493 3.16391 3.20355 3.21912 3.20248 3.27783C3.19566 3.65392 3.20212 4.16926 3.25451 4.72857C3.30708 5.28973 3.40476 5.88238 3.57522 6.41795C3.74696 6.95757 3.98214 7.406 4.28843 7.71229C4.59472 8.01857 5.04315 8.25375 5.58277 8.4255C6.11834 8.59596 6.71098 8.69364 7.27215 8.74621C7.83145 8.7986 8.3468 8.80505 8.72288 8.79823Z" stroke="#E15C66"/>
</svg>
