<svg width="37" height="23" viewBox="0 0 37 23" fill="none" xmlns="http://www.w3.org/2000/svg">
<path d="M27.9523 1.08241C27.1183 0.479756 26.1502 0.161133 25.1526 0.161133C23.5884 0.161133 22.2182 1.11051 21.4767 2.52234C20.7352 1.11051 19.3651 0.161133 17.8007 0.161133C16.0591 0.161133 14.4444 1.13526 13.4812 2.76693C13.32 3.04009 13.4171 3.38859 13.6981 3.54541C13.9792 3.70216 14.3378 3.60789 14.4989 3.33459C15.2502 2.06166 16.4846 1.30178 17.8008 1.30178C19.5042 1.30178 20.8901 2.93373 20.8901 4.9396C20.8901 5.2546 21.1527 5.50999 21.4767 5.50999C21.8008 5.50999 22.0634 5.2546 22.0634 4.9396C22.0634 2.93366 23.4493 1.30178 25.1527 1.30178C25.8962 1.30178 26.6222 1.54247 27.2523 1.99775C27.5123 2.18567 27.8798 2.1331 28.0731 1.88024C28.2664 1.62765 28.2123 1.27033 27.9523 1.08241Z" fill="#E15C66"/>
<path d="M29.0173 19.1212C28.8926 18.8305 28.5491 18.6932 28.25 18.8144L23.122 20.894C22.0896 21.3134 20.9354 21.3566 19.8717 21.0157L7.84386 17.1626C7.08659 16.9197 6.2671 16.9575 5.53725 17.269L5.05997 17.4721C4.76311 17.5985 4.62797 17.9347 4.75791 18.2233C4.88785 18.5119 5.23378 18.6434 5.53057 18.517L6.00835 18.3137C6.4729 18.1154 6.99427 18.0912 7.47641 18.2459L19.5045 22.0991C20.0982 22.2893 20.7143 22.3841 21.3295 22.3841C22.0943 22.3841 22.8576 22.2378 23.5741 21.9468L28.7017 19.8672C29.0007 19.7459 29.142 19.4119 29.0173 19.1212Z" fill="#002B67"/>
<path d="M36.6356 13.7149C36.635 13.7136 36.6322 13.707 36.6316 13.7058L36.6271 13.6957C36.0992 12.5054 34.7691 11.8623 33.4946 12.1297C33.6561 11.6218 33.6299 11.0802 33.4155 10.584C33.1735 10.0235 32.7211 9.58903 32.1418 9.36064C32.1404 9.36009 32.1264 9.35469 32.1251 9.35414C30.9914 8.91616 29.6894 9.41047 29.1606 10.4792L27.3126 14.2102L24.3167 15.2293C23.7576 15.4191 23.1423 15.4191 22.5845 15.2294L22.4988 15.2003C26.2714 13.1565 30.3349 9.67913 30.3349 5.99209C30.3349 4.70679 29.9718 3.48931 29.285 2.47143C29.1074 2.20804 28.7435 2.13463 28.4727 2.30737C28.2017 2.48018 28.1262 2.83367 28.3039 3.09713C28.865 3.92865 29.1615 4.92971 29.1615 5.99209C29.1615 9.12056 25.3451 12.4563 21.4763 14.442C20.4387 13.9098 19.4079 13.2778 18.4785 12.6032C17.6855 12.0297 16.9681 11.4253 16.3502 10.8142L22.3273 12.8013C23.5105 13.1957 24.8287 12.6315 25.3287 11.5176C25.5959 10.9244 25.5973 10.2418 25.3326 9.64474C25.0719 9.05678 24.5902 8.60759 23.9774 8.38029L13.3698 4.4244C13.2934 4.39493 13.2099 4.3652 13.1075 4.33115C11.0263 3.63601 8.65361 3.9532 6.76086 5.1795L1.11743 8.83454C0.847782 9.00913 0.774797 9.3633 0.954446 9.62546C1.13409 9.88762 1.49831 9.95858 1.76796 9.78385L7.4114 6.1288C9.0018 5.09835 10.9887 4.82977 12.727 5.41021C12.8117 5.43844 12.8783 5.46203 12.943 5.48691L23.5581 9.44561C23.8733 9.56257 24.1208 9.7937 24.2551 10.0963C24.3936 10.4085 24.3932 10.7507 24.2535 11.0605C23.996 11.6345 23.3168 11.9251 22.7073 11.7219L15.9734 9.48321C15.4354 9.30411 14.8514 9.32625 14.3288 9.54528C13.6795 9.81755 13.2036 10.354 13.0233 11.0173C12.7201 12.1311 13.3597 13.3025 14.4799 13.684L22.1972 16.306C23.0044 16.5804 23.8944 16.5804 24.7036 16.306L33.5516 13.296C34.3412 13.0271 35.2187 13.401 35.5521 14.1526L35.5549 14.1589C35.7217 14.5425 35.7244 14.9662 35.5624 15.3519C35.4001 15.7381 35.0924 16.0394 34.6963 16.2001L29.9716 18.1162C29.6726 18.2375 29.5313 18.5714 29.656 18.8621C29.7499 19.0811 29.968 19.2131 30.1977 19.2131C30.2729 19.2131 30.3494 19.1989 30.4233 19.169L35.148 17.253C35.8345 16.9745 36.3674 16.4526 36.6487 15.7833C36.9295 15.1147 36.9249 14.3801 36.6356 13.7149ZM14.8673 12.6076C14.3216 12.4217 14.0099 11.8515 14.1575 11.3092C14.2302 11.0421 14.4027 10.8183 14.6393 10.6736C15.4642 11.6518 16.5176 12.6068 17.7773 13.5179C17.847 13.5685 17.9186 13.6181 17.9893 13.6682L14.8673 12.6076ZM32.337 11.8927L32.0365 12.6032L28.8787 13.6774L30.2179 10.974C30.4808 10.4424 31.1283 10.1964 31.6917 10.4142C31.6925 10.4144 31.6999 10.4174 31.7007 10.4176C31.9886 10.5312 32.2134 10.7471 32.3338 11.0257C32.4543 11.3047 32.4555 11.6127 32.337 11.8927Z" fill="#002B67"/>
</svg>
