<svg width="18" height="16" viewBox="0 0 18 16" fill="none" xmlns="http://www.w3.org/2000/svg">
<path d="M4.39778 5.89948V16.7845H0.773086V5.89948H4.39778ZM4.62844 2.53841C4.63576 3.07296 4.45087 3.51963 4.07375 3.87844C3.69664 4.23725 3.20053 4.41665 2.58543 4.41665H2.56346C1.96301 4.41665 1.47972 4.23725 1.11359 3.87844C0.747457 3.51963 0.564392 3.07296 0.564392 2.53841C0.564392 1.99653 0.752949 1.54802 1.13006 1.19288C1.50718 0.837729 1.99962 0.660156 2.6074 0.660156C3.21518 0.660156 3.70213 0.837729 4.06826 1.19288C4.43439 1.54802 4.62112 1.99653 4.62844 2.53841ZM17.4357 10.5457V16.7845H13.822V10.9631C13.822 10.1942 13.6737 9.59191 13.3771 9.15621C13.0806 8.72052 12.6174 8.50267 11.9877 8.50267C11.5263 8.50267 11.1401 8.62898 10.8289 8.88161C10.5176 9.13424 10.2852 9.44729 10.1314 9.82074C10.0508 10.0404 10.0106 10.337 10.0106 10.7104V16.7845H6.39685C6.41149 13.8628 6.41882 11.494 6.41882 9.67795C6.41882 7.86194 6.41515 6.77819 6.40783 6.42671L6.39685 5.89948H10.0106V7.48117H9.98859C10.135 7.24684 10.2852 7.04181 10.4389 6.86607C10.5927 6.69032 10.7996 6.49994 11.0595 6.2949C11.3195 6.08987 11.638 5.9306 12.0151 5.8171C12.3922 5.7036 12.8115 5.64685 13.2728 5.64685C14.5249 5.64685 15.5318 6.06241 16.2934 6.89353C17.0549 7.72464 17.4357 8.94203 17.4357 10.5457Z" fill="#002B67"/>
</svg>
