<svg width="138" height="40" viewBox="0 0 138 40" fill="none" xmlns="http://www.w3.org/2000/svg">
<path d="M45.5641 37.5794V35.2916H45.1479V35.0638H45.5641V34.7592C45.5641 34.502 45.6292 34.3043 45.7594 34.1664C45.8911 34.0284 46.074 33.9595 46.3081 33.9595C46.4135 33.9595 46.5119 33.9726 46.6033 33.999L46.5824 34.2315C46.5049 34.2129 46.4205 34.2036 46.329 34.2036C46.1756 34.2036 46.0562 34.2516 45.971 34.3477C45.8857 34.4423 45.8431 34.5771 45.8431 34.7523V35.0638H46.4429V35.2916H45.8431V37.5794H45.5641Z" fill="#0F254C"/>
<path d="M48.5586 37.2609C48.3912 37.5042 48.1238 37.6259 47.7565 37.6259C47.4884 37.6259 47.2845 37.5484 47.1451 37.3934C47.0056 37.2368 46.9343 37.0059 46.9312 36.7005V35.0638H47.2078V36.6657C47.2078 37.1446 47.4016 37.3841 47.7891 37.3841C48.192 37.3841 48.447 37.2175 48.5539 36.8842V35.0638H48.8329V37.5794H48.5632L48.5586 37.2609Z" fill="#0F254C"/>
<path d="M49.8234 35.0638L49.8327 35.4939C49.9272 35.3389 50.045 35.2211 50.186 35.1405C50.3271 35.0584 50.4829 35.0173 50.6533 35.0173C50.923 35.0173 51.1238 35.0933 51.2555 35.2452C51.3872 35.397 51.4539 35.6249 51.4554 35.9287V37.5794H51.1788V35.9264C51.1772 35.7016 51.1292 35.5342 51.0346 35.4242C50.9416 35.3141 50.7921 35.2591 50.5859 35.2591C50.4139 35.2591 50.2612 35.3133 50.1279 35.4218C49.9962 35.5288 49.8985 35.6737 49.835 35.8566V37.5794H49.5583V35.0638H49.8234Z" fill="#0F254C"/>
<path d="M52.0646 36.2983C52.0646 35.9078 52.1514 35.597 52.325 35.366C52.5001 35.1336 52.7372 35.0173 53.0364 35.0173C53.3758 35.0173 53.6347 35.1514 53.8129 35.4195V34.0083H54.0896V37.5794H53.8292L53.8176 37.2446C53.6393 37.4988 53.3774 37.6259 53.0317 37.6259C52.7419 37.6259 52.5079 37.5096 52.3296 37.2771C52.1529 37.0431 52.0646 36.7277 52.0646 36.3309V36.2983ZM52.3459 36.3472C52.3459 36.668 52.4102 36.9214 52.5389 37.1074C52.6675 37.2919 52.8488 37.3841 53.0829 37.3841C53.4254 37.3841 53.6688 37.233 53.8129 36.9307V35.7497C53.6688 35.4226 53.427 35.2591 53.0875 35.2591C52.8535 35.2591 52.6714 35.3513 52.5412 35.5358C52.411 35.7187 52.3459 35.9891 52.3459 36.3472Z" fill="#0F254C"/>
<path d="M56.1797 37.5794V35.2916H55.7635V35.0638H56.1797V34.7592C56.1797 34.502 56.2448 34.3043 56.375 34.1664C56.5067 34.0284 56.6896 33.9595 56.9236 33.9595C57.029 33.9595 57.1275 33.9726 57.2189 33.999L57.198 34.2315C57.1205 34.2129 57.036 34.2036 56.9446 34.2036C56.7911 34.2036 56.6718 34.2516 56.5865 34.3477C56.5013 34.4423 56.4587 34.5771 56.4587 34.7523V35.0638H57.0585V35.2916H56.4587V37.5794H56.1797Z" fill="#0F254C"/>
<path d="M57.4026 36.2844C57.4026 36.0426 57.4491 35.8248 57.5421 35.6311C57.6366 35.4373 57.7691 35.287 57.9396 35.1801C58.1117 35.0716 58.3062 35.0173 58.5232 35.0173C58.858 35.0173 59.1292 35.1351 59.3369 35.3707C59.5446 35.6047 59.6484 35.9155 59.6484 36.303V36.3611C59.6484 36.6045 59.6012 36.8238 59.5066 37.0191C59.4136 37.2128 59.2819 37.3624 59.1114 37.4678C58.9409 37.5732 58.7464 37.6259 58.5278 37.6259C58.1946 37.6259 57.9234 37.5088 57.7141 37.2748C57.5064 37.0392 57.4026 36.7277 57.4026 36.3402V36.2844ZM57.6816 36.3611C57.6816 36.6618 57.7591 36.909 57.9141 37.1028C58.0706 37.295 58.2752 37.391 58.5278 37.391C58.7789 37.391 58.982 37.295 59.137 37.1028C59.2935 36.909 59.3718 36.654 59.3718 36.3379V36.2844C59.3718 36.0922 59.3361 35.9163 59.2648 35.7566C59.1935 35.597 59.0936 35.4738 58.9649 35.387C58.8363 35.2986 58.689 35.2545 58.5232 35.2545C58.2752 35.2545 58.0729 35.3521 57.9164 35.5474C57.7598 35.7411 57.6816 35.9953 57.6816 36.31V36.3611Z" fill="#0F254C"/>
<path d="M61.3875 35.3009C61.3286 35.2901 61.2658 35.2847 61.1992 35.2847C61.0256 35.2847 60.8783 35.3335 60.7574 35.4311C60.6381 35.5272 60.5528 35.6675 60.5017 35.852V37.5794H60.225V35.0638H60.497L60.5017 35.4637C60.6489 35.1661 60.8853 35.0173 61.2108 35.0173C61.2883 35.0173 61.3495 35.0274 61.3945 35.0475L61.3875 35.3009Z" fill="#0F254C"/>
<path d="M64.4936 36.94C64.4936 36.8021 64.4378 36.6912 64.3262 36.6076C64.2161 36.5239 64.0495 36.4588 63.8263 36.4123C63.6031 36.3642 63.4295 36.31 63.3055 36.2495C63.1831 36.1875 63.0916 36.1123 63.0312 36.024C62.9723 35.9357 62.9428 35.8287 62.9428 35.7032C62.9428 35.5048 63.0258 35.3412 63.1916 35.2126C63.3575 35.0824 63.5698 35.0173 63.8286 35.0173C64.1092 35.0173 64.3339 35.0871 64.5029 35.2266C64.6734 35.3645 64.7586 35.5451 64.7586 35.7683H64.4796C64.4796 35.621 64.4176 35.4986 64.2936 35.4009C64.1712 35.3033 64.0162 35.2545 63.8286 35.2545C63.6457 35.2545 63.4985 35.2955 63.3869 35.3777C63.2769 35.4583 63.2218 35.5637 63.2218 35.6939C63.2218 35.8194 63.2676 35.9171 63.359 35.9868C63.452 36.055 63.6202 36.1178 63.8635 36.1751C64.1084 36.2325 64.2913 36.2937 64.4122 36.3588C64.5346 36.4239 64.6253 36.5022 64.6842 36.5936C64.7431 36.685 64.7726 36.7959 64.7726 36.9261C64.7726 37.1384 64.6865 37.3081 64.5145 37.4352C64.344 37.5623 64.1208 37.6259 63.8449 37.6259C63.552 37.6259 63.3141 37.5553 63.1312 37.4143C62.9498 37.2717 62.8592 37.0919 62.8592 36.8749H63.1381C63.149 37.0377 63.2172 37.1648 63.3427 37.2562C63.4698 37.3461 63.6372 37.391 63.8449 37.391C64.0387 37.391 64.1952 37.3484 64.3145 37.2632C64.4339 37.1779 64.4936 37.0702 64.4936 36.94Z" fill="#0F254C"/>
<path d="M67.0184 37.2609C66.851 37.5042 66.5837 37.6259 66.2163 37.6259C65.9482 37.6259 65.7444 37.5484 65.6049 37.3934C65.4654 37.2368 65.3941 37.0059 65.391 36.7005V35.0638H65.6676V36.6657C65.6676 37.1446 65.8614 37.3841 66.2489 37.3841C66.6519 37.3841 66.9068 37.2175 67.0138 36.8842V35.0638H67.2928V37.5794H67.0231L67.0184 37.2609Z" fill="#0F254C"/>
<path d="M69.5247 36.94C69.5247 36.8021 69.4689 36.6912 69.3573 36.6076C69.2472 36.5239 69.0806 36.4588 68.8574 36.4123C68.6342 36.3642 68.4606 36.31 68.3367 36.2495C68.2142 36.1875 68.1228 36.1123 68.0623 36.024C68.0034 35.9357 67.974 35.8287 67.974 35.7032C67.974 35.5048 68.0569 35.3412 68.2227 35.2126C68.3886 35.0824 68.6009 35.0173 68.8598 35.0173C69.1403 35.0173 69.365 35.0871 69.534 35.2266C69.7045 35.3645 69.7897 35.5451 69.7897 35.7683H69.5107C69.5107 35.621 69.4487 35.4986 69.3247 35.4009C69.2023 35.3033 69.0473 35.2545 68.8598 35.2545C68.6769 35.2545 68.5296 35.2955 68.418 35.3777C68.308 35.4583 68.253 35.5637 68.253 35.6939C68.253 35.8194 68.2987 35.9171 68.3901 35.9868C68.4831 36.055 68.6513 36.1178 68.8946 36.1751C69.1395 36.2325 69.3224 36.2937 69.4433 36.3588C69.5658 36.4239 69.6564 36.5022 69.7153 36.5936C69.7742 36.685 69.8037 36.7959 69.8037 36.9261C69.8037 37.1384 69.7176 37.3081 69.5456 37.4352C69.3751 37.5623 69.1519 37.6259 68.876 37.6259C68.5831 37.6259 68.3452 37.5553 68.1623 37.4143C67.9809 37.2717 67.8903 37.0919 67.8903 36.8749H68.1693C68.1801 37.0377 68.2483 37.1648 68.3738 37.2562C68.5009 37.3461 68.6683 37.391 68.876 37.391C69.0698 37.391 69.2263 37.3484 69.3457 37.2632C69.465 37.1779 69.5247 37.0702 69.5247 36.94Z" fill="#0F254C"/>
<path d="M70.8638 34.4198V35.0638H71.3846V35.2916H70.8638V36.9679C70.8638 37.1074 70.8886 37.2113 70.9382 37.2795C70.9894 37.3476 71.0739 37.3817 71.1916 37.3817C71.2381 37.3817 71.3133 37.374 71.4172 37.3585L71.4288 37.5863C71.3559 37.6127 71.2567 37.6259 71.1312 37.6259C70.9406 37.6259 70.8018 37.5708 70.715 37.4608C70.6282 37.3492 70.5848 37.1857 70.5848 36.9702V35.2916H70.1222V35.0638H70.5848V34.4198H70.8638Z" fill="#0F254C"/>
<path d="M73.5491 37.5794C73.5212 37.5003 73.5034 37.3833 73.4956 37.2283C73.398 37.3554 73.2732 37.4538 73.1213 37.5236C72.971 37.5918 72.8113 37.6259 72.6424 37.6259C72.4006 37.6259 72.2045 37.5584 72.0542 37.4236C71.9054 37.2888 71.831 37.1183 71.831 36.9121C71.831 36.6672 71.9325 36.4735 72.1356 36.3309C72.3402 36.1883 72.6246 36.117 72.9888 36.117H73.4933V35.831C73.4933 35.6512 73.4375 35.5102 73.3259 35.4079C73.2159 35.304 73.0547 35.2521 72.8423 35.2521C72.6486 35.2521 72.4882 35.3017 72.3611 35.4009C72.234 35.5001 72.1704 35.6195 72.1704 35.759L71.8914 35.7566C71.8914 35.5567 71.9844 35.3839 72.1704 35.2382C72.3564 35.0909 72.585 35.0173 72.8563 35.0173C73.1368 35.0173 73.3577 35.0878 73.5189 35.2289C73.6816 35.3684 73.7653 35.5637 73.77 35.8148V37.0051C73.77 37.2485 73.7956 37.4306 73.8467 37.5515V37.5794H73.5491ZM72.6749 37.3794C72.8609 37.3794 73.0268 37.3345 73.1725 37.2446C73.3197 37.1547 73.4267 37.0346 73.4933 36.8842V36.3309H72.9958C72.7183 36.334 72.5013 36.3851 72.3448 36.4843C72.1883 36.582 72.11 36.7168 72.11 36.8889C72.11 37.0299 72.1619 37.1469 72.2658 37.2399C72.3712 37.3329 72.5075 37.3794 72.6749 37.3794Z" fill="#0F254C"/>
<path d="M74.8255 37.5794H74.5465V35.0638H74.8255V37.5794ZM74.4977 34.3361C74.4977 34.2834 74.5147 34.2392 74.5488 34.2036C74.5829 34.1664 74.6294 34.1478 74.6883 34.1478C74.7472 34.1478 74.7937 34.1664 74.8278 34.2036C74.8635 34.2392 74.8813 34.2834 74.8813 34.3361C74.8813 34.3888 74.8635 34.433 74.8278 34.4686C74.7937 34.5043 74.7472 34.5221 74.6883 34.5221C74.6294 34.5221 74.5829 34.5043 74.5488 34.4686C74.5147 34.433 74.4977 34.3888 74.4977 34.3361Z" fill="#0F254C"/>
<path d="M75.8485 35.0638L75.8577 35.4939C75.9523 35.3389 76.0701 35.2211 76.2111 35.1405C76.3522 35.0584 76.508 35.0173 76.6784 35.0173C76.9481 35.0173 77.1489 35.0933 77.2806 35.2452C77.4123 35.397 77.479 35.6249 77.4805 35.9287V37.5794H77.2039V35.9264C77.2023 35.7016 77.1543 35.5342 77.0597 35.4242C76.9667 35.3141 76.8172 35.2591 76.611 35.2591C76.439 35.2591 76.2863 35.3133 76.153 35.4218C76.0213 35.5288 75.9236 35.6737 75.8601 35.8566V37.5794H75.5834V35.0638H75.8485Z" fill="#0F254C"/>
<path d="M79.7892 37.5794C79.7613 37.5003 79.7435 37.3833 79.7357 37.2283C79.6381 37.3554 79.5133 37.4538 79.3614 37.5236C79.2111 37.5918 79.0514 37.6259 78.8825 37.6259C78.6407 37.6259 78.4446 37.5584 78.2943 37.4236C78.1455 37.2888 78.0711 37.1183 78.0711 36.9121C78.0711 36.6672 78.1726 36.4735 78.3756 36.3309C78.5802 36.1883 78.8646 36.117 79.2289 36.117H79.7334V35.831C79.7334 35.6512 79.6776 35.5102 79.566 35.4079C79.4559 35.304 79.2948 35.2521 79.0824 35.2521C78.8887 35.2521 78.7282 35.3017 78.6012 35.4009C78.4741 35.5001 78.4105 35.6195 78.4105 35.759L78.1315 35.7566C78.1315 35.5567 78.2245 35.3839 78.4105 35.2382C78.5965 35.0909 78.8251 35.0173 79.0964 35.0173C79.3769 35.0173 79.5978 35.0878 79.759 35.2289C79.9217 35.3684 80.0054 35.5637 80.01 35.8148V37.0051C80.01 37.2485 80.0356 37.4306 80.0868 37.5515V37.5794H79.7892ZM78.915 37.3794C79.101 37.3794 79.2668 37.3345 79.4125 37.2446C79.5598 37.1547 79.6667 37.0346 79.7334 36.8842V36.3309H79.2359C78.9584 36.334 78.7414 36.3851 78.5849 36.4843C78.4283 36.582 78.3501 36.7168 78.3501 36.8889C78.3501 37.0299 78.402 37.1469 78.5058 37.2399C78.6112 37.3329 78.7476 37.3794 78.915 37.3794Z" fill="#0F254C"/>
<path d="M82.779 36.3472C82.779 36.7393 82.6922 37.0508 82.5186 37.2818C82.345 37.5112 82.1118 37.6259 81.8188 37.6259C81.4685 37.6259 81.2035 37.4957 81.0237 37.2353L81.0121 37.5794H80.7517V34.0083H81.0284V35.4288C81.2051 35.1545 81.467 35.0173 81.8142 35.0173C82.1118 35.0173 82.3466 35.1312 82.5186 35.3591C82.6922 35.5854 82.779 35.9008 82.779 36.3053V36.3472ZM82.5 36.2983C82.5 35.9666 82.4357 35.7109 82.3071 35.5311C82.1784 35.3498 81.9971 35.2591 81.763 35.2591C81.5848 35.2591 81.4337 35.3033 81.3097 35.3916C81.1857 35.4784 81.0919 35.6063 81.0284 35.7752V36.9098C81.1679 37.226 81.4143 37.3841 81.7677 37.3841C81.9971 37.3841 82.1761 37.2934 82.3047 37.1121C82.4349 36.9307 82.5 36.6595 82.5 36.2983Z" fill="#0F254C"/>
<path d="M83.7067 37.5794H83.4277V35.0638H83.7067V37.5794ZM83.3788 34.3361C83.3788 34.2834 83.3959 34.2392 83.43 34.2036C83.4641 34.1664 83.5106 34.1478 83.5695 34.1478C83.6284 34.1478 83.6749 34.1664 83.709 34.2036C83.7446 34.2392 83.7625 34.2834 83.7625 34.3361C83.7625 34.3888 83.7446 34.433 83.709 34.4686C83.6749 34.5043 83.6284 34.5221 83.5695 34.5221C83.5106 34.5221 83.4641 34.5043 83.43 34.4686C83.3959 34.433 83.3788 34.3888 83.3788 34.3361Z" fill="#0F254C"/>
<path d="M84.7761 37.5794H84.4971V34.0083H84.7761V37.5794Z" fill="#0F254C"/>
<path d="M85.8456 37.5794H85.5666V35.0638H85.8456V37.5794ZM85.5178 34.3361C85.5178 34.2834 85.5348 34.2392 85.5689 34.2036C85.603 34.1664 85.6495 34.1478 85.7084 34.1478C85.7673 34.1478 85.8138 34.1664 85.8479 34.2036C85.8836 34.2392 85.9014 34.2834 85.9014 34.3361C85.9014 34.3888 85.8836 34.433 85.8479 34.4686C85.8138 34.5043 85.7673 34.5221 85.7084 34.5221C85.6495 34.5221 85.603 34.5043 85.5689 34.4686C85.5348 34.433 85.5178 34.3888 85.5178 34.3361Z" fill="#0F254C"/>
<path d="M87.0359 34.4198V35.0638H87.5567V35.2916H87.0359V36.9679C87.0359 37.1074 87.0607 37.2113 87.1103 37.2795C87.1615 37.3476 87.246 37.3817 87.3638 37.3817C87.4103 37.3817 87.4854 37.374 87.5893 37.3585L87.6009 37.5863C87.528 37.6127 87.4289 37.6259 87.3033 37.6259C87.1127 37.6259 86.9739 37.5708 86.8871 37.4608C86.8004 37.3492 86.757 37.1857 86.757 36.9702V35.2916H86.2943V35.0638H86.757V34.4198H87.0359Z" fill="#0F254C"/>
<path d="M88.9307 37.1795L89.6654 35.0638H89.9653L88.8912 38.0071L88.8354 38.1373C88.6975 38.4427 88.4844 38.5954 88.1961 38.5954C88.1294 38.5954 88.0581 38.5845 87.9822 38.5628L87.9799 38.3326L88.124 38.3466C88.2604 38.3466 88.3704 38.3125 88.4541 38.2443C88.5394 38.1776 88.6115 38.0622 88.6704 37.8979L88.7936 37.5584L87.845 35.0638H88.1496L88.9307 37.1795Z" fill="#0F254C"/>
<path d="M93.1435 37.5794C93.1156 37.5003 93.0978 37.3833 93.09 37.2283C92.9924 37.3554 92.8676 37.4538 92.7157 37.5236C92.5654 37.5918 92.4057 37.6259 92.2368 37.6259C91.995 37.6259 91.7989 37.5584 91.6486 37.4236C91.4998 37.2888 91.4254 37.1183 91.4254 36.9121C91.4254 36.6672 91.5269 36.4735 91.7299 36.3309C91.9345 36.1883 92.219 36.117 92.5832 36.117H93.0877V35.831C93.0877 35.6512 93.0319 35.5102 92.9203 35.4079C92.8103 35.304 92.6491 35.2521 92.4367 35.2521C92.243 35.2521 92.0826 35.3017 91.9555 35.4009C91.8284 35.5001 91.7648 35.6195 91.7648 35.759L91.4858 35.7566C91.4858 35.5567 91.5788 35.3839 91.7648 35.2382C91.9508 35.0909 92.1794 35.0173 92.4507 35.0173C92.7312 35.0173 92.9521 35.0878 93.1133 35.2289C93.276 35.3684 93.3597 35.5637 93.3644 35.8148V37.0051C93.3644 37.2485 93.3899 37.4306 93.4411 37.5515V37.5794H93.1435ZM92.2693 37.3794C92.4553 37.3794 92.6212 37.3345 92.7669 37.2446C92.9141 37.1547 93.021 37.0346 93.0877 36.8842V36.3309H92.5902C92.3127 36.334 92.0957 36.3851 91.9392 36.4843C91.7826 36.582 91.7044 36.7168 91.7044 36.8889C91.7044 37.0299 91.7563 37.1469 91.8601 37.2399C91.9655 37.3329 92.1019 37.3794 92.2693 37.3794Z" fill="#0F254C"/>
<path d="M94.3734 35.0638L94.3827 35.4939C94.4772 35.3389 94.595 35.2211 94.7361 35.1405C94.8771 35.0584 95.0329 35.0173 95.2034 35.0173C95.4731 35.0173 95.6738 35.0933 95.8055 35.2452C95.9373 35.397 96.0039 35.6249 96.0055 35.9287V37.5794H95.7288V35.9264C95.7272 35.7016 95.6792 35.5342 95.5847 35.4242C95.4917 35.3141 95.3421 35.2591 95.1359 35.2591C94.9639 35.2591 94.8112 35.3133 94.6779 35.4218C94.5462 35.5288 94.4485 35.6737 94.385 35.8566V37.5794H94.1083V35.0638H94.3734Z" fill="#0F254C"/>
<path d="M96.6146 36.2983C96.6146 35.9078 96.7014 35.597 96.875 35.366C97.0501 35.1336 97.2873 35.0173 97.5864 35.0173C97.9258 35.0173 98.1847 35.1514 98.3629 35.4195V34.0083H98.6396V37.5794H98.3792L98.3676 37.2446C98.1893 37.4988 97.9274 37.6259 97.5818 37.6259C97.2919 37.6259 97.0579 37.5096 96.8796 37.2771C96.7029 37.0431 96.6146 36.7277 96.6146 36.3309V36.2983ZM96.8959 36.3472C96.8959 36.668 96.9602 36.9214 97.0889 37.1074C97.2175 37.2919 97.3989 37.3841 97.6329 37.3841C97.9754 37.3841 98.2188 37.233 98.3629 36.9307V35.7497C98.2188 35.4226 97.977 35.2591 97.6376 35.2591C97.4035 35.2591 97.2214 35.3513 97.0912 35.5358C96.961 35.7187 96.8959 35.9891 96.8959 36.3472Z" fill="#0F254C"/>
<path d="M101.504 37.6259C101.29 37.6259 101.096 37.5732 100.923 37.4678C100.751 37.3624 100.617 37.2159 100.52 37.0284C100.424 36.8393 100.376 36.6277 100.376 36.3937V36.2937C100.376 36.0519 100.423 35.8341 100.516 35.6404C100.61 35.4466 100.741 35.2947 100.909 35.1847C101.076 35.0731 101.257 35.0173 101.453 35.0173C101.758 35.0173 102 35.1219 102.178 35.3312C102.358 35.5389 102.448 35.8233 102.448 36.1844V36.3402H100.653V36.3937C100.653 36.6788 100.734 36.9168 100.897 37.1074C101.061 37.2965 101.268 37.391 101.516 37.391C101.664 37.391 101.795 37.3639 101.908 37.3097C102.023 37.2554 102.127 37.1686 102.22 37.0493L102.394 37.1818C102.19 37.4778 101.893 37.6259 101.504 37.6259ZM101.453 35.2545C101.243 35.2545 101.067 35.3312 100.923 35.4846C100.78 35.6381 100.693 35.8442 100.662 36.103H102.171V36.0728C102.163 35.831 102.094 35.6342 101.964 35.4823C101.834 35.3304 101.664 35.2545 101.453 35.2545Z" fill="#0F254C"/>
<path d="M103.255 35.0638L103.264 35.4939C103.358 35.3389 103.476 35.2211 103.617 35.1405C103.758 35.0584 103.914 35.0173 104.085 35.0173C104.354 35.0173 104.555 35.0933 104.687 35.2452C104.818 35.397 104.885 35.6249 104.887 35.9287V37.5794H104.61V35.9264C104.608 35.7016 104.56 35.5342 104.466 35.4242C104.373 35.3141 104.223 35.2591 104.017 35.2591C103.845 35.2591 103.692 35.3133 103.559 35.4218C103.427 35.5288 103.33 35.6737 103.266 35.8566V37.5794H102.99V35.0638H103.255Z" fill="#0F254C"/>
<path d="M106.582 37.6259C106.368 37.6259 106.174 37.5732 106 37.4678C105.828 37.3624 105.694 37.2159 105.598 37.0284C105.502 36.8393 105.454 36.6277 105.454 36.3937V36.2937C105.454 36.0519 105.5 35.8341 105.593 35.6404C105.688 35.4466 105.819 35.2947 105.986 35.1847C106.154 35.0731 106.335 35.0173 106.53 35.0173C106.836 35.0173 107.077 35.1219 107.256 35.3312C107.436 35.5389 107.525 35.8233 107.525 36.1844V36.3402H105.731V36.3937C105.731 36.6788 105.812 36.9168 105.975 37.1074C106.139 37.2965 106.345 37.391 106.593 37.391C106.742 37.391 106.873 37.3639 106.986 37.3097C107.101 37.2554 107.205 37.1686 107.298 37.0493L107.472 37.1818C107.267 37.4778 106.971 37.6259 106.582 37.6259ZM106.53 35.2545C106.321 35.2545 106.144 35.3312 106 35.4846C105.858 35.6381 105.771 35.8442 105.74 36.103H107.249V36.0728C107.241 35.831 107.172 35.6342 107.042 35.4823C106.912 35.3304 106.741 35.2545 106.53 35.2545Z" fill="#0F254C"/>
<path d="M109.23 35.3009C109.171 35.2901 109.108 35.2847 109.041 35.2847C108.868 35.2847 108.72 35.3335 108.6 35.4311C108.48 35.5272 108.395 35.6675 108.344 35.852V37.5794H108.067V35.0638H108.339L108.344 35.4637C108.491 35.1661 108.727 35.0173 109.053 35.0173C109.13 35.0173 109.192 35.0274 109.237 35.0475L109.23 35.3009Z" fill="#0F254C"/>
<path d="M109.513 36.2983C109.513 35.9047 109.6 35.5931 109.774 35.3637C109.949 35.1328 110.186 35.0173 110.485 35.0173C110.828 35.0173 111.088 35.1537 111.266 35.4265L111.28 35.0638H111.541V37.5282C111.541 37.8522 111.45 38.1087 111.269 38.2978C111.087 38.4869 110.842 38.5814 110.532 38.5814C110.356 38.5814 110.189 38.5419 110.029 38.4628C109.871 38.3853 109.746 38.2815 109.655 38.1513L109.811 37.9839C110.008 38.2257 110.242 38.3466 110.513 38.3466C110.745 38.3466 110.927 38.2776 111.057 38.1397C111.187 38.0033 111.255 37.8134 111.259 37.5701V37.2539C111.081 37.5019 110.821 37.6259 110.48 37.6259C110.189 37.6259 109.955 37.5096 109.778 37.2771C109.602 37.0446 109.513 36.7308 109.513 36.3355V36.2983ZM109.795 36.3472C109.795 36.668 109.859 36.9214 109.988 37.1074C110.116 37.2919 110.297 37.3841 110.532 37.3841C110.874 37.3841 111.117 37.2306 111.259 36.9237V35.7543C111.194 35.5931 111.1 35.4707 110.978 35.387C110.855 35.3017 110.708 35.2591 110.536 35.2591C110.302 35.2591 110.12 35.3513 109.99 35.5358C109.86 35.7187 109.795 35.9891 109.795 36.3472Z" fill="#0F254C"/>
<path d="M113.063 37.1795L113.798 35.0638H114.098L113.024 38.0071L112.968 38.1373C112.83 38.4427 112.617 38.5954 112.329 38.5954C112.262 38.5954 112.191 38.5845 112.115 38.5628L112.112 38.3326L112.257 38.3466C112.393 38.3466 112.503 38.3125 112.587 38.2443C112.672 38.1776 112.744 38.0622 112.803 37.8979L112.926 37.5584L111.978 35.0638H112.282L113.063 37.1795Z" fill="#0F254C"/>
<path d="M38.0568 23.529L37.3298 23.246L36.4745 22.8516C36.3196 22.7969 36.1899 22.6875 36.1096 22.5439C36.0294 22.4003 36.004 22.2323 36.0383 22.0713C36.0981 20.9136 36.1323 19.7732 36.1495 18.6927C36.1495 18.2297 36.2692 18.0496 36.6626 17.9038L37.2956 17.6637L38.2706 17.2435C38.6287 17.1082 38.9311 16.8564 39.1296 16.5284C39.3281 16.2004 39.4111 15.8151 39.3654 15.4342C39.3654 15.3056 39.3654 15.177 39.3141 15.0483V14.9283C39.032 13.3999 38.4506 11.9426 37.6035 10.6408C37.5027 10.4379 37.3628 10.2569 37.1919 10.1085C37.021 9.96014 36.8224 9.84719 36.6076 9.77622C36.3929 9.70525 36.1662 9.67767 35.9408 9.69508C35.7153 9.71248 35.4955 9.77453 35.2941 9.87762L34.704 10.1006L33.7973 10.4436C33.643 10.5082 33.4708 10.5161 33.3112 10.4659C33.1516 10.4157 33.0148 10.3106 32.9249 10.1692C32.1722 9.31167 31.4196 8.53135 30.6754 7.76817C30.5224 7.66503 30.4154 7.50622 30.3771 7.32536C30.3388 7.14451 30.3721 6.95581 30.4702 6.7992L30.7268 6.23325C30.8807 5.88167 31.0432 5.5301 31.1886 5.17852C31.3443 4.84048 31.3791 4.45901 31.2871 4.09827C31.1952 3.73754 30.9823 3.41952 30.684 3.1977C29.2817 2.07271 27.6301 1.30218 25.8686 0.951051C25.4885 0.856013 25.0871 0.899571 24.7361 1.07394C24.3851 1.24831 24.1074 1.54212 23.9527 1.90288C23.7902 2.24588 23.6362 2.58888 23.4737 2.94045L23.2342 3.52355C23.046 3.94372 22.8579 4.04662 22.3789 4.0209L20.5827 3.9523C20.4943 3.9523 20.4094 3.98753 20.3469 4.05025C20.2843 4.11297 20.2492 4.19803 20.2492 4.28672C20.2492 4.37542 20.2843 4.46048 20.3469 4.5232C20.4094 4.58592 20.4943 4.62115 20.5827 4.62115L22.2934 4.68975C22.607 4.747 22.9308 4.69265 23.2087 4.53609C23.4867 4.37954 23.7014 4.1306 23.8158 3.83225L24.0639 3.28345C24.2178 2.94045 24.3718 2.59745 24.5343 2.26303C24.6216 2.02734 24.794 1.8331 25.0173 1.71877C25.2406 1.60443 25.4987 1.57833 25.7403 1.64563C27.3933 1.97135 28.9447 2.68874 30.2649 3.73792C30.4446 3.87124 30.5726 4.06288 30.6272 4.28021C30.6818 4.49754 30.6595 4.72712 30.5642 4.92985C30.4188 5.28142 30.2649 5.62442 30.1109 5.96742L29.8543 6.53337C29.7008 6.81315 29.6501 7.13807 29.7111 7.45149C29.772 7.7649 29.9408 8.04692 30.1879 8.24837C30.9235 8.9944 31.6676 9.80045 32.4203 10.6236C32.5991 10.8711 32.8562 11.0506 33.1496 11.1331C33.4431 11.2156 33.7557 11.1962 34.0368 11.0781L34.9606 10.7351L35.5507 10.5122C35.6824 10.4383 35.828 10.3927 35.9782 10.3783C36.1284 10.3639 36.28 10.3811 36.4232 10.4287C36.5664 10.4763 36.6982 10.5532 36.8101 10.6547C36.922 10.7562 37.0116 10.88 37.0732 11.0181C37.8555 12.2423 38.3903 13.6088 38.647 15.0398V15.1427C38.647 15.2627 38.647 15.3828 38.6897 15.5114C38.7278 15.7429 38.6858 15.9805 38.5707 16.1849C38.4556 16.3892 38.2743 16.5479 38.0568 16.6347L37.0817 17.0034L36.4403 17.2435C36.1441 17.3315 35.8876 17.5198 35.7144 17.7763C35.5413 18.0328 35.4623 18.3415 35.4909 18.6498C35.4909 19.7217 35.4395 20.8536 35.3797 22.0027C35.3417 22.3007 35.4056 22.6028 35.561 22.8598C35.7163 23.1167 35.9539 23.3133 36.235 23.4175L37.0903 23.8206L37.7917 24.1378C38.0398 24.2276 38.2443 24.4089 38.3635 24.6448C38.4828 24.8807 38.5077 25.1533 38.4331 25.4069C38.0923 27.0252 37.3775 28.5407 36.3462 29.8316C36.2078 30.0396 35.9975 30.1889 35.7559 30.2506C35.5142 30.3124 35.2583 30.2822 35.0375 30.1661L34.0967 29.7373L33.5236 29.4801C33.2416 29.333 32.9176 29.2877 32.6061 29.3517C32.2947 29.4157 32.0146 29.5852 31.813 29.8316C31.0689 30.5691 30.282 31.3151 29.4694 32.044C29.2154 32.2234 29.0308 32.485 28.9466 32.7849C28.8625 33.0848 28.884 33.4046 29.0076 33.6904L29.3155 34.5479L29.5977 35.3111C29.7161 35.5483 29.7377 35.8225 29.6578 36.0754C29.578 36.3283 29.403 36.5401 29.1701 36.6659C27.8052 37.5871 26.2437 38.1745 24.6113 38.3809C24.3578 38.4338 24.0938 38.3879 23.8729 38.2524C23.652 38.117 23.4909 37.9023 23.4224 37.652L23.2855 37.2833L22.8322 36.0828C22.7371 35.7917 22.547 35.5411 22.2925 35.3716C22.0381 35.202 21.734 35.1233 21.4295 35.1481H20.5742C20.5301 35.1458 20.486 35.1525 20.4445 35.1678C20.4031 35.1832 20.3652 35.2068 20.3332 35.2373C20.3012 35.2678 20.2757 35.3045 20.2583 35.3452C20.2409 35.3859 20.232 35.4297 20.232 35.474C20.2309 35.5179 20.2384 35.5616 20.2541 35.6026C20.2699 35.6436 20.2935 35.6811 20.3237 35.713C20.3538 35.7449 20.39 35.7704 20.43 35.7883C20.4701 35.8061 20.5133 35.8159 20.5571 35.817H21.4124C21.5835 35.7911 21.7582 35.8281 21.9043 35.921C22.0505 36.014 22.1582 36.1567 22.2078 36.3229C22.3618 36.7174 22.5157 37.1204 22.6611 37.5148L22.798 37.8836C22.9021 38.2281 23.1154 38.5291 23.4056 38.7411C23.6958 38.9531 24.047 39.0645 24.406 39.0583H24.6797C26.4106 38.8244 28.0627 38.1871 29.5037 37.1976C29.8559 36.9846 30.1198 36.6516 30.247 36.2594C30.3743 35.8673 30.3563 35.4423 30.1965 35.0624L29.9142 34.2992L29.6063 33.4417C29.4609 33.0473 29.5293 32.8415 29.8886 32.5156C30.7439 31.7782 31.5136 31.0236 32.2578 30.2775C32.3724 30.1226 32.5424 30.0181 32.7322 29.9861C32.922 29.9541 33.1167 29.9971 33.2756 30.106L33.8487 30.3633L34.7981 30.792C35.1559 30.9579 35.56 30.9947 35.9418 30.8963C36.3237 30.7978 36.6599 30.5702 36.8936 30.2518C37.9672 28.8719 38.7052 27.26 39.049 25.5441C39.1532 25.1448 39.1102 24.7211 38.928 24.351C38.7457 23.9808 38.4364 23.689 38.0568 23.529Z" fill="url(#paint0_linear)"/>
<path d="M38.0568 23.529L37.3298 23.246L36.4745 22.8516C36.3196 22.7969 36.1899 22.6875 36.1096 22.5439C36.0294 22.4003 36.004 22.2323 36.0383 22.0713C36.0981 20.9136 36.1323 19.7732 36.1495 18.6927C36.1495 18.2297 36.2692 18.0496 36.6626 17.9038L37.2956 17.6637L38.2706 17.2435C38.6287 17.1082 38.9311 16.8564 39.1296 16.5284C39.3281 16.2004 39.4111 15.8151 39.3654 15.4342C39.3654 15.3056 39.3654 15.177 39.3141 15.0483V14.9283C39.032 13.3999 38.4506 11.9426 37.6035 10.6408C37.5027 10.4379 37.3628 10.2569 37.1919 10.1085C37.021 9.96014 36.8224 9.84719 36.6076 9.77622C36.3929 9.70525 36.1662 9.67767 35.9408 9.69508C35.7153 9.71248 35.4955 9.77453 35.2941 9.87762L34.704 10.1006L33.7973 10.4436C33.643 10.5082 33.4708 10.5161 33.3112 10.4659C33.1516 10.4157 33.0148 10.3106 32.9249 10.1692C32.1722 9.31167 31.4196 8.53135 30.6754 7.76817C30.5224 7.66503 30.4154 7.50622 30.3771 7.32536C30.3388 7.14451 30.3721 6.95581 30.4702 6.7992L30.7268 6.23325C30.8807 5.88167 31.0432 5.5301 31.1886 5.17852C31.3443 4.84048 31.3791 4.45901 31.2871 4.09827C31.1952 3.73754 30.9823 3.41952 30.684 3.1977C29.2817 2.07271 27.6301 1.30218 25.8686 0.951051C25.4885 0.856013 25.0871 0.899571 24.7361 1.07394C24.3851 1.24831 24.1074 1.54212 23.9527 1.90288C23.7902 2.24588 23.6362 2.58888 23.4737 2.94045L23.2342 3.52355C23.046 3.94372 22.8579 4.04662 22.3789 4.0209L20.5827 3.9523C20.4943 3.9523 20.4094 3.98753 20.3469 4.05025C20.2843 4.11297 20.2492 4.19803 20.2492 4.28672C20.2492 4.37542 20.2843 4.46048 20.3469 4.5232C20.4094 4.58592 20.4943 4.62115 20.5827 4.62115L22.2934 4.68975C22.607 4.747 22.9308 4.69265 23.2087 4.53609C23.4867 4.37954 23.7014 4.1306 23.8158 3.83225L24.0639 3.28345C24.2178 2.94045 24.3718 2.59745 24.5343 2.26303C24.6216 2.02734 24.794 1.8331 25.0173 1.71877C25.2406 1.60443 25.4987 1.57833 25.7403 1.64563C27.3933 1.97135 28.9447 2.68874 30.2649 3.73792C30.4446 3.87124 30.5726 4.06288 30.6272 4.28021C30.6818 4.49754 30.6595 4.72712 30.5642 4.92985C30.4188 5.28142 30.2649 5.62442 30.1109 5.96742L29.8543 6.53337C29.7008 6.81315 29.6501 7.13807 29.7111 7.45149C29.772 7.7649 29.9408 8.04692 30.1879 8.24837C30.9235 8.9944 31.6676 9.80045 32.4203 10.6236C32.5991 10.8711 32.8562 11.0506 33.1496 11.1331C33.4431 11.2156 33.7557 11.1962 34.0368 11.0781L34.9606 10.7351L35.5507 10.5122C35.6824 10.4383 35.828 10.3927 35.9782 10.3783C36.1284 10.3639 36.28 10.3811 36.4232 10.4287C36.5664 10.4763 36.6982 10.5532 36.8101 10.6547C36.922 10.7562 37.0116 10.88 37.0732 11.0181C37.8555 12.2423 38.3903 13.6088 38.647 15.0398V15.1427C38.647 15.2627 38.647 15.3828 38.6897 15.5114C38.7278 15.7429 38.6858 15.9805 38.5707 16.1849C38.4556 16.3892 38.2743 16.5479 38.0568 16.6347L37.0817 17.0034L36.4403 17.2435C36.1441 17.3315 35.8876 17.5198 35.7144 17.7763C35.5413 18.0328 35.4623 18.3415 35.4909 18.6498C35.4909 19.7217 35.4395 20.8536 35.3797 22.0027C35.3417 22.3007 35.4056 22.6028 35.561 22.8598C35.7163 23.1167 35.9539 23.3133 36.235 23.4175L37.0903 23.8206L37.7917 24.1378C38.0398 24.2276 38.2443 24.4089 38.3635 24.6448C38.4828 24.8807 38.5077 25.1533 38.4331 25.4069C38.0923 27.0252 37.3775 28.5407 36.3462 29.8316C36.2078 30.0396 35.9975 30.1889 35.7559 30.2506C35.5142 30.3124 35.2583 30.2822 35.0375 30.1661L34.0967 29.7373L33.5236 29.4801C33.2416 29.333 32.9176 29.2877 32.6061 29.3517C32.2947 29.4157 32.0146 29.5852 31.813 29.8316C31.0689 30.5691 30.282 31.3151 29.4694 32.044C29.2154 32.2234 29.0308 32.485 28.9466 32.7849C28.8625 33.0848 28.884 33.4046 29.0076 33.6904L29.3155 34.5479L29.5977 35.3111C29.7161 35.5483 29.7377 35.8225 29.6578 36.0754C29.578 36.3283 29.403 36.5401 29.1701 36.6659C27.8052 37.5871 26.2437 38.1745 24.6113 38.3809C24.3578 38.4338 24.0938 38.3879 23.8729 38.2524C23.652 38.117 23.4909 37.9023 23.4224 37.652L23.2855 37.2833L22.8322 36.0828C22.7371 35.7917 22.547 35.5411 22.2925 35.3716C22.0381 35.202 21.734 35.1233 21.4295 35.1481H20.5742C20.5301 35.1458 20.486 35.1525 20.4445 35.1678C20.4031 35.1832 20.3652 35.2068 20.3332 35.2373C20.3012 35.2678 20.2757 35.3045 20.2583 35.3452C20.2409 35.3859 20.232 35.4297 20.232 35.474C20.2309 35.5179 20.2384 35.5616 20.2541 35.6026C20.2699 35.6436 20.2935 35.6811 20.3237 35.713C20.3538 35.7449 20.39 35.7704 20.43 35.7883C20.4701 35.8061 20.5133 35.8159 20.5571 35.817H21.4124C21.5835 35.7911 21.7582 35.8281 21.9043 35.921C22.0505 36.014 22.1582 36.1567 22.2078 36.3229C22.3618 36.7174 22.5157 37.1204 22.6611 37.5148L22.798 37.8836C22.9021 38.2281 23.1154 38.5291 23.4056 38.7411C23.6958 38.9531 24.047 39.0645 24.406 39.0583H24.6797C26.4106 38.8244 28.0627 38.1871 29.5037 37.1976C29.8559 36.9846 30.1198 36.6516 30.247 36.2594C30.3743 35.8673 30.3563 35.4423 30.1965 35.0624L29.9142 34.2992L29.6063 33.4417C29.4609 33.0473 29.5293 32.8415 29.8886 32.5156C30.7439 31.7782 31.5136 31.0236 32.2578 30.2775C32.3724 30.1226 32.5424 30.0181 32.7322 29.9861C32.922 29.9541 33.1167 29.9971 33.2756 30.106L33.8487 30.3633L34.7981 30.792C35.1559 30.9579 35.56 30.9947 35.9418 30.8963C36.3237 30.7978 36.6599 30.5702 36.8936 30.2518C37.9672 28.8719 38.7052 27.26 39.049 25.5441C39.1532 25.1448 39.1102 24.7211 38.928 24.351C38.7457 23.9808 38.4364 23.689 38.0568 23.529Z" fill="url(#paint1_linear)"/>
<path d="M16.1949 17.9386C16.1827 17.8918 16.1603 17.8482 16.1292 17.8111C16.0981 17.7741 16.0592 17.7444 16.0152 17.7243L14.7579 16.9611V12.2277H23.2427L18.8036 19.7565H27.5705L20.2833 32.2074C20.2813 32.2274 20.2813 32.2475 20.2833 32.2675C20.2806 32.2903 20.2806 32.3133 20.2833 32.3361C20.2811 32.356 20.2811 32.3761 20.2833 32.3961V32.4561V32.5076L20.3346 32.5504H20.3945H20.5056C20.882 32.5504 21.2583 32.5076 21.6261 32.4561C24.7735 32.0627 27.6722 30.5396 29.7858 28.1686C30.9497 26.8583 31.8157 25.31 32.3237 23.631C32.8317 21.952 32.9697 20.1823 32.7281 18.4446C32.3758 15.4349 30.9546 12.6529 28.7244 10.6075C26.4942 8.56216 23.6041 7.39007 20.5826 7.30565C20.4956 7.3033 20.4111 7.33517 20.3471 7.39445C20.2832 7.45374 20.2449 7.53574 20.2405 7.62293C20.2381 7.7102 20.2699 7.79493 20.3291 7.85902C20.3882 7.92312 20.47 7.96148 20.557 7.96593C23.4539 8.03086 26.228 9.15121 28.361 11.1176C30.4939 13.0839 31.8396 15.7617 32.1465 18.6504C32.3428 20.2187 32.2252 21.8106 31.8004 23.3328C31.3756 24.855 30.6522 26.277 29.6725 27.5155C28.6929 28.754 27.4766 29.7841 26.095 30.5456C24.7133 31.3071 23.1941 31.7846 21.6261 31.9502L21.1813 32.0016L28.7338 19.0877H19.9668L24.3717 11.5589H14.5013L10.3616 9.38938L14.2105 7.1513L18.5812 9.4837H18.6924H18.8121L18.8977 9.42368C18.9215 9.40121 18.9417 9.37517 18.9575 9.3465C18.9598 9.32369 18.9598 9.30071 18.9575 9.2779C18.9591 9.25793 18.9591 9.23785 18.9575 9.21788V3.93568L14.202 1.18311L5.02445 6.57678V11.7218L0.422852 14.4143V25.1245L4.93891 27.9028V33.0478L14.1079 38.4329L18.8121 35.8604C18.8569 35.8356 18.8951 35.8003 18.9233 35.7575C18.9629 35.7273 18.9951 35.6884 19.0173 35.6438C19.0395 35.5992 19.0513 35.5501 19.0516 35.5002V29.9436H19.0088L16.1949 17.9386ZM5.39223 17.4327L9.33523 19.8166V24.9616L5.55474 27.1825V22.2604L1.33804 19.7394L5.39223 17.4327ZM9.85697 14.8602L13.7144 17.0897L9.83131 19.3535L6.05082 17.0554L9.85697 14.8602ZM5.69159 16.4895V12.4678L9.18983 14.4915L5.69159 16.4895ZM10.5241 14.5001L14.1079 12.4678V16.5666L10.5241 14.5001ZM17.3666 25.8534L14.3987 27.3883L10.0024 24.9616V20.2625L14.1934 22.835L16.3745 21.6259L17.3666 25.8534ZM9.66881 25.5361L13.6973 27.7484L9.6517 29.8493L5.94818 27.7141L9.66881 25.5361ZM10.3359 30.2352L13.8684 28.3916V32.2417L10.3359 30.2352ZM13.4921 32.8077L10.0024 34.9514V30.8183L13.4921 32.8077ZM14.5355 28.1943L18.3845 30.3381V34.8743L14.5355 32.6791V28.1943ZM15.1172 27.757L17.5291 26.5222L18.2305 29.4892L15.1172 27.757ZM16.2205 20.897L14.2105 22.0118L10.4471 19.7051L14.3816 17.4584L15.579 18.1873L16.2205 20.897ZM18.3845 8.66908L14.5355 6.5682V2.13493L18.3845 4.32155V8.66908ZM5.69159 6.95408L13.8684 2.14351V6.57678L8.976 9.4151L13.723 11.9019L9.83131 14.1142L5.69159 11.7046V6.95408ZM5.02445 12.4764V16.8753L1.09 19.122V14.8345L5.02445 12.4764ZM1.09 20.3654L4.87904 22.6377V27.0882L1.09 24.7472V20.3654ZM5.62317 28.2972L9.34379 30.4324V34.8485L5.61461 32.6791L5.62317 28.2972ZM10.43 35.4917L14.1507 33.2021L18.1279 35.4831L14.1079 37.6697L10.43 35.4917Z" fill="url(#paint2_linear)"/>
<path d="M16.1949 17.9386C16.1827 17.8918 16.1603 17.8482 16.1292 17.8111C16.0981 17.7741 16.0592 17.7444 16.0152 17.7243L14.7579 16.9611V12.2277H23.2427L18.8036 19.7565H27.5705L20.2833 32.2074C20.2813 32.2274 20.2813 32.2475 20.2833 32.2675C20.2806 32.2903 20.2806 32.3133 20.2833 32.3361C20.2811 32.356 20.2811 32.3761 20.2833 32.3961V32.4561V32.5076L20.3346 32.5504H20.3945H20.5056C20.882 32.5504 21.2583 32.5076 21.6261 32.4561C24.7735 32.0627 27.6722 30.5396 29.7858 28.1686C30.9497 26.8583 31.8157 25.31 32.3237 23.631C32.8317 21.952 32.9697 20.1823 32.7281 18.4446C32.3758 15.4349 30.9546 12.6529 28.7244 10.6075C26.4942 8.56216 23.6041 7.39007 20.5826 7.30565C20.4956 7.3033 20.4111 7.33517 20.3471 7.39445C20.2832 7.45374 20.2449 7.53574 20.2405 7.62293C20.2381 7.7102 20.2699 7.79493 20.3291 7.85902C20.3882 7.92312 20.47 7.96148 20.557 7.96593C23.4539 8.03086 26.228 9.15121 28.361 11.1176C30.4939 13.0839 31.8396 15.7617 32.1465 18.6504C32.3428 20.2187 32.2252 21.8106 31.8004 23.3328C31.3756 24.855 30.6522 26.277 29.6725 27.5155C28.6929 28.754 27.4766 29.7841 26.095 30.5456C24.7133 31.3071 23.1941 31.7846 21.6261 31.9502L21.1813 32.0016L28.7338 19.0877H19.9668L24.3717 11.5589H14.5013L10.3616 9.38938L14.2105 7.1513L18.5812 9.4837H18.6924H18.8121L18.8977 9.42368C18.9215 9.40121 18.9417 9.37517 18.9575 9.3465C18.9598 9.32369 18.9598 9.30071 18.9575 9.2779C18.9591 9.25793 18.9591 9.23785 18.9575 9.21788V3.93568L14.202 1.18311L5.02445 6.57678V11.7218L0.422852 14.4143V25.1245L4.93891 27.9028V33.0478L14.1079 38.4329L18.8121 35.8604C18.8569 35.8356 18.8951 35.8003 18.9233 35.7575C18.9629 35.7273 18.9951 35.6884 19.0173 35.6438C19.0395 35.5992 19.0513 35.5501 19.0516 35.5002V29.9436H19.0088L16.1949 17.9386ZM5.39223 17.4327L9.33523 19.8166V24.9616L5.55474 27.1825V22.2604L1.33804 19.7394L5.39223 17.4327ZM9.85697 14.8602L13.7144 17.0897L9.83131 19.3535L6.05082 17.0554L9.85697 14.8602ZM5.69159 16.4895V12.4678L9.18983 14.4915L5.69159 16.4895ZM10.5241 14.5001L14.1079 12.4678V16.5666L10.5241 14.5001ZM17.3666 25.8534L14.3987 27.3883L10.0024 24.9616V20.2625L14.1934 22.835L16.3745 21.6259L17.3666 25.8534ZM9.66881 25.5361L13.6973 27.7484L9.6517 29.8493L5.94818 27.7141L9.66881 25.5361ZM10.3359 30.2352L13.8684 28.3916V32.2417L10.3359 30.2352ZM13.4921 32.8077L10.0024 34.9514V30.8183L13.4921 32.8077ZM14.5355 28.1943L18.3845 30.3381V34.8743L14.5355 32.6791V28.1943ZM15.1172 27.757L17.5291 26.5222L18.2305 29.4892L15.1172 27.757ZM16.2205 20.897L14.2105 22.0118L10.4471 19.7051L14.3816 17.4584L15.579 18.1873L16.2205 20.897ZM18.3845 8.66908L14.5355 6.5682V2.13493L18.3845 4.32155V8.66908ZM5.69159 6.95408L13.8684 2.14351V6.57678L8.976 9.4151L13.723 11.9019L9.83131 14.1142L5.69159 11.7046V6.95408ZM5.02445 12.4764V16.8753L1.09 19.122V14.8345L5.02445 12.4764ZM1.09 20.3654L4.87904 22.6377V27.0882L1.09 24.7472V20.3654ZM5.62317 28.2972L9.34379 30.4324V34.8485L5.61461 32.6791L5.62317 28.2972ZM10.43 35.4917L14.1507 33.2021L18.1279 35.4831L14.1079 37.6697L10.43 35.4917Z" fill="url(#paint3_linear)"/>
<path d="M53.0302 13.0039H47.5391V16.7847H52.8322V19.0172H47.5391V26.5247H45.1626V10.7715H53.0302V13.0039Z" fill="#002B67"/>
<path d="M58.1521 10.7715V20.2504C58.0735 21.2848 58.3055 22.3192 58.8182 23.221C59.1322 23.6611 59.551 24.0158 60.0367 24.2532C60.5224 24.4905 61.0596 24.603 61.5998 24.5803C62.1452 24.6022 62.6873 24.4867 63.1765 24.2445C63.6656 24.0023 64.0861 23.6411 64.3993 23.194C64.9168 22.294 65.149 21.2582 65.0655 20.2234V10.7715H67.4419V20.9075C67.4634 21.6592 67.3352 22.4076 67.0647 23.1092C66.7943 23.8108 66.387 24.4516 65.8666 24.9944C65.3176 25.5769 64.6527 26.0381 63.9148 26.3481C63.1768 26.6582 62.3821 26.8103 61.5817 26.7947C60.8063 26.8111 60.0357 26.6692 59.3169 26.3777C58.5981 26.0862 57.9463 25.6513 57.4013 25.0995C56.8562 24.5477 56.4293 23.8906 56.1467 23.1683C55.8641 22.446 55.7317 21.6737 55.7576 20.8985V10.7715H58.1521Z" fill="#002B67"/>
<path d="M71.2139 26.5248V9.69141L82.6912 21.7178V10.7716H85.0677V27.479L73.5903 15.4976V26.5248H71.2139Z" fill="#002B67"/>
<path d="M88.8486 26.5251V10.7719H92.1523C93.4204 10.7293 94.6873 10.8873 95.9061 11.24C96.9113 11.5508 97.8341 12.0829 98.6066 12.7974C99.3899 13.5603 100.011 14.4739 100.432 15.4831C100.852 16.4923 101.065 17.5763 101.055 18.6697C101.046 19.7631 100.816 20.8433 100.378 21.8453C99.9398 22.8472 99.3037 23.7502 98.5076 24.4997C97.7282 25.2047 96.8076 25.7356 95.807 26.057C94.6039 26.3939 93.3559 26.5427 92.1073 26.4981L88.8486 26.5251ZM91.2251 24.2927H92.2963C93.2082 24.32 94.1189 24.2077 94.9969 23.9596C96.0979 23.5885 97.0499 22.8722 97.7116 21.917C98.3732 20.9618 98.7092 19.8188 98.6696 18.6575C98.6984 17.8732 98.5581 17.0919 98.2584 16.3666C97.9586 15.6412 97.5063 14.9889 96.9323 14.4537C95.6372 13.4075 93.9928 12.8926 92.3323 13.0134H91.2251V24.2927Z" fill="#002B67"/>
<path d="M112.424 22.1231H114.099V24.2835H112.424V26.525H110.048V24.2835H102.315L112.424 9.60156V22.1231ZM110.048 22.1231V16.893L106.447 22.1681L110.048 22.1231Z" fill="#002B67"/>
<path d="M125.81 13.1123L123.884 14.2556C123.644 13.7687 123.289 13.3482 122.848 13.0313C122.451 12.7992 121.994 12.6866 121.534 12.7073C120.928 12.689 120.338 12.8977 119.878 13.2924C119.67 13.4582 119.503 13.6693 119.389 13.9095C119.275 14.1497 119.217 14.4128 119.221 14.6787C119.221 15.4468 119.791 16.0649 120.931 16.533L122.497 17.1722C123.58 17.551 124.547 18.202 125.306 19.0626C125.907 19.8328 126.225 20.7863 126.206 21.7631C126.227 22.4309 126.109 23.0958 125.859 23.7156C125.61 24.3354 125.235 24.8967 124.757 25.3638C124.283 25.8314 123.72 26.199 123.102 26.4449C122.483 26.6908 121.822 26.8099 121.156 26.7951C119.914 26.8404 118.701 26.4052 117.771 25.5799C116.845 24.6645 116.265 23.4551 116.133 22.1592L118.537 21.6281C118.566 22.3051 118.764 22.9641 119.113 23.5455C119.346 23.841 119.638 24.0847 119.971 24.2606C120.303 24.4366 120.669 24.5411 121.045 24.5674C121.42 24.5937 121.797 24.5412 122.151 24.4132C122.505 24.2853 122.829 24.0848 123.1 23.8245C123.345 23.5759 123.537 23.2801 123.664 22.9551C123.791 22.6302 123.85 22.2828 123.839 21.9341C123.842 21.6501 123.799 21.3675 123.713 21.097C123.626 20.8401 123.492 20.6018 123.317 20.3948C123.113 20.1605 122.877 19.9573 122.614 19.7917C122.291 19.5856 121.951 19.4079 121.597 19.2606L120.076 18.6305C117.921 17.7183 116.844 16.386 116.844 14.6337C116.836 14.07 116.954 13.5116 117.189 12.9993C117.424 12.487 117.771 12.0335 118.203 11.6721C119.136 10.8578 120.342 10.4268 121.579 10.4658C122.461 10.4672 123.325 10.7159 124.073 11.1837C124.821 11.6516 125.423 12.3197 125.81 13.1123Z" fill="#002B67"/>
<path d="M137.773 13.0039H131.472V16.7847H137.602V19.0172H131.454V24.2832H137.755V26.5247H129.078V10.7715H137.764L137.773 13.0039Z" fill="#002B67"/>
<line x1="45.1621" y1="30.9551" x2="114.098" y2="30.9551" stroke="#0F254C" stroke-width="0.25"/>
<defs>
<linearGradient id="paint0_linear" x1="29.8048" y1="0.901855" x2="29.8048" y2="39.0586" gradientUnits="userSpaceOnUse">
<stop stop-color="#E15C66"/>
<stop offset="1" stop-color="#E15C66" stop-opacity="0"/>
</linearGradient>
<linearGradient id="paint1_linear" x1="29.8048" y1="0.901855" x2="29.8048" y2="39.0586" gradientUnits="userSpaceOnUse">
<stop stop-color="#B3575A"/>
<stop offset="1" stop-color="#315F87"/>
</linearGradient>
<linearGradient id="paint2_linear" x1="16.6333" y1="1.18311" x2="16.6333" y2="38.4329" gradientUnits="userSpaceOnUse">
<stop stop-color="#E15C66"/>
<stop offset="1" stop-color="#E15C66" stop-opacity="0"/>
</linearGradient>
<linearGradient id="paint3_linear" x1="16.6333" y1="1.18311" x2="16.6333" y2="38.4329" gradientUnits="userSpaceOnUse">
<stop stop-color="#B3575A"/>
<stop offset="1" stop-color="#315F87"/>
</linearGradient>
</defs>
</svg>
