<svg width="201" height="200" viewBox="0 0 201 200" fill="none" xmlns="http://www.w3.org/2000/svg">
<rect x="0.632324" y="146.726" width="51.0525" height="52.5398" rx="4.5" stroke="#002B67"/>
<rect x="74.9932" y="121.635" width="51.0525" height="77.1648" rx="4.5" stroke="#002B67"/>
<rect x="149.354" y="69.9751" width="51.0525" height="128.825" rx="4.5" stroke="#002B67"/>
<line x1="1.77783" y1="172.496" x2="52.1849" y2="172.496" stroke="#002B67"/>
<line x1="74.4932" y1="172.496" x2="125.746" y2="172.496" stroke="#002B67"/>
<line y1="-0.5" x2="51.263" y2="-0.5" transform="matrix(0.99981 0.0195072 0 1 74.4932 147.742)" stroke="#002B67"/>
<line x1="149.654" y1="172.496" x2="200.907" y2="172.496" stroke="#002B67"/>
<line y1="-0.5" x2="51.2631" y2="-0.5" transform="matrix(0.99981 0.0195072 0 1 149.653 147.742)" stroke="#002B67"/>
<line x1="149.253" y1="121.989" x2="200.507" y2="121.989" stroke="#002B67"/>
<line x1="149.253" y1="96.7354" x2="200.507" y2="96.7354" stroke="#002B67"/>
<path d="M52.8564 56.7762L75.9055 80.4843L133.2 20.5559L118.712 6.06781L154.273 0.799316L149.664 36.3612" stroke="#C96164"/>
<path d="M7.41553 104.192L52.8562 56.7764" stroke="#C96164" stroke-dasharray="3 3"/>
</svg>
