<svg width="170" height="205" viewBox="0 0 170 205" fill="none" xmlns="http://www.w3.org/2000/svg">
<rect x="51.3193" y="0.748047" width="67.5337" height="34.6954" rx="4.5" stroke="#002B67"/>
<rect x="1.34668" y="169.227" width="67.5337" height="34.6954" rx="4.5" stroke="#002B67"/>
<rect x="101.291" y="169.227" width="67.5337" height="34.6954" rx="4.5" stroke="#002B67"/>
<circle cx="86.0106" cy="87.0067" r="29.4833" stroke="#002B67"/>
<circle cx="86.0119" cy="87.0055" r="14.4919" stroke="#C96164"/>
<line y1="-0.5" x2="99.9495" y2="-0.5" transform="matrix(0.99995 -0.0100051 0 1 35.1133 148.312)" stroke="#C96164" stroke-dasharray="3 3"/>
<line x1="86.5859" y1="116.99" x2="86.5859" y2="147.311" stroke="#C96164" stroke-dasharray="3 3"/>
<line x1="135.558" y1="146.312" x2="135.558" y2="168.73" stroke="#C96164" stroke-dasharray="3 3"/>
<line y1="-0.5" x2="21.4189" y2="-0.5" transform="matrix(0 1 -0.999999 0.00143232 35.1133 147.311)" stroke="#C96164" stroke-dasharray="3 3"/>
<line x1="85.5859" y1="35.9434" x2="85.5859" y2="57.0255" stroke="#C96164" stroke-dasharray="3 3"/>
<line x1="62.2852" y1="19.0254" x2="92.8844" y2="19.0254" stroke="#002B67"/>
<line x1="100.322" y1="19.0254" x2="107.887" y2="19.0254" stroke="#002B67"/>
<line x1="12.3125" y1="187.942" x2="42.9118" y2="187.942" stroke="#002B67"/>
<line x1="50.3496" y1="187.942" x2="57.9141" y2="187.942" stroke="#002B67"/>
<line x1="112.257" y1="187.942" x2="142.856" y2="187.942" stroke="#002B67"/>
<line x1="150.294" y1="187.942" x2="157.858" y2="187.942" stroke="#002B67"/>
</svg>
