<svg width="186" height="189" viewBox="0 0 186 189" fill="none" xmlns="http://www.w3.org/2000/svg">
<line x1="0.873047" y1="188.09" x2="185.564" y2="188.09" stroke="#002B67"/>
<rect x="113.089" y="129.162" width="65.5857" height="58.7215" stroke="#002B67"/>
<rect x="8.17676" y="129.162" width="52.1236" height="58.7215" stroke="#002B67"/>
<path d="M14.2407 111.758H36.2412C46.0128 111.758 53.9654 119.546 54.2302 129.254H14.2407V111.758Z" stroke="#002B67"/>
<rect x="119.429" y="1.00002" width="32.8407" height="99.589" rx="16.4204" transform="rotate(45.701 119.429 1.00002)" stroke="#002B67"/>
<rect x="121.228" y="111.758" width="49.3093" height="17.4958" stroke="#002B67"/>
<circle cx="145.882" cy="70.5448" r="16.3827" stroke="#002B67"/>
<circle cx="145.882" cy="158.522" r="16.3827" stroke="#C96164"/>
<circle cx="119.238" cy="24.2353" r="16.3827" stroke="#002B67"/>
<line y1="-0.5" x2="41.1667" y2="-0.5" transform="matrix(-0.0242915 -0.999705 1 0 163.765 111.258)" stroke="#002B67"/>
<line y1="-0.5" x2="41.1667" y2="-0.5" transform="matrix(-0.0242915 -0.999705 1 0 131.227 111.258)" stroke="#002B67"/>
<line x1="160.501" y1="63.1006" x2="133.902" y2="17.0299" stroke="#002B67"/>
<line x1="130.007" y1="75.5746" x2="115.682" y2="50.0213" stroke="#002B67"/>
<line x1="59.9263" y1="83.0821" x2="46.4773" y2="96.5311" stroke="#002B67"/>
<line x1="7.67676" y1="120.007" x2="61.0539" y2="120.007" stroke="#002B67"/>
<line x1="7.67676" y1="163.178" x2="37.3113" y2="163.178" stroke="#002B67"/>
<line y1="-0.5" x2="13.3926" y2="-0.5" transform="matrix(0.997208 0.074668 0 1 47.4453 163.678)" stroke="#002B67"/>
<line x1="152.077" y1="163.307" x2="158.507" y2="169.736" stroke="#C96164"/>
<line x1="134.585" y1="147.713" x2="141.015" y2="154.143" stroke="#C96164"/>
<line y1="-0.5" x2="9.0931" y2="-0.5" transform="matrix(-0.707107 0.707107 0.707107 0.707107 141.819 163.945)" stroke="#C96164"/>
<line y1="-0.5" x2="9.0931" y2="-0.5" transform="matrix(-1 -8.74228e-08 -8.74228e-08 1 138.778 159.221)" stroke="#C96164"/>
<line y1="-0.5" x2="9.0931" y2="-0.5" transform="matrix(-1 -8.74228e-08 -8.74228e-08 1 162.7 159.221)" stroke="#C96164"/>
<line y1="-0.5" x2="9.0931" y2="-0.5" transform="matrix(1.06149e-07 -1 -1 -1.06149e-07 145.882 151.283)" stroke="#C96164"/>
<line y1="-0.5" x2="9.0931" y2="-0.5" transform="matrix(1.06149e-07 -1 -1 -1.06149e-07 145.927 174.922)" stroke="#C96164"/>
<line y1="-0.5" x2="9.0931" y2="-0.5" transform="matrix(-0.707107 0.707107 0.707107 0.707107 158.153 148.068)" stroke="#C96164"/>
<line x1="30.6123" y1="96.6699" x2="30.6123" y2="90.6813" stroke="#C96164"/>
<line x1="36.811" y1="100.754" x2="36.811" y2="94.7652" stroke="#C96164"/>
<line y1="-0.5" x2="5.98866" y2="-0.5" transform="matrix(-4.37115e-08 1 1 4.37115e-08 51.0234 101.844)" stroke="#C96164"/>
<line y1="-0.5" x2="5.98866" y2="-0.5" transform="matrix(-4.37115e-08 1 1 4.37115e-08 57.2227 97.7588)" stroke="#C96164"/>
</svg>
