<svg width="1204" height="459" fill="none" xmlns="http://www.w3.org/2000/svg"><path d="M156.036 30.907h-4.958v7.102h-1.453V20.946h5.543c1.821 0 3.243.442 4.266 1.324 1.023.883 1.535 2.118 1.535 3.704 0 1.093-.32 2.058-.961 2.894-.64.836-1.5 1.414-2.578 1.735l4.266 7.253v.153h-1.535l-4.125-7.102zm-4.958-1.23h4.418c1.211 0 2.184-.344 2.918-1.032.735-.687 1.102-1.578 1.102-2.671 0-1.204-.383-2.137-1.148-2.801-.766-.664-1.84-.996-3.223-.996h-4.067v7.5zm18.399 8.566c-1.078 0-2.055-.266-2.93-.797-.867-.531-1.543-1.27-2.027-2.215-.484-.953-.727-2.02-.727-3.199v-.504c0-1.218.235-2.316.703-3.293.477-.976 1.137-1.742 1.981-2.296a4.848 4.848 0 0 1 2.742-.844c1.539 0 2.758.527 3.656 1.582.907 1.047 1.36 2.48 1.36 4.3v.786h-9.047v.27c0 1.437.41 2.636 1.23 3.597.828.953 1.868 1.43 3.118 1.43.75 0 1.41-.137 1.98-.41.578-.274 1.102-.712 1.57-1.313l.879.668c-1.031 1.492-2.527 2.238-4.488 2.238zm-.258-11.953c-1.055 0-1.945.387-2.672 1.16-.719.774-1.156 1.813-1.312 3.117h7.605v-.152c-.039-1.219-.387-2.21-1.043-2.976-.656-.766-1.515-1.149-2.578-1.149zm9.082-.96l.047 2.167c.477-.781 1.07-1.375 1.781-1.781a4.596 4.596 0 0 1 2.356-.621c1.359 0 2.371.383 3.035 1.148.664.766 1 1.914 1.008 3.446v8.32h-1.395v-8.332c-.008-1.133-.25-1.977-.726-2.532-.469-.554-1.223-.831-2.262-.831-.867 0-1.637.273-2.309.82-.664.539-1.156 1.27-1.476 2.191v8.684h-1.395v-12.68h1.336zm16.77 12.913c-1.078 0-2.055-.266-2.93-.797-.867-.531-1.543-1.27-2.027-2.215-.485-.953-.727-2.02-.727-3.199v-.504c0-1.218.234-2.316.703-3.293.477-.976 1.137-1.742 1.981-2.296a4.844 4.844 0 0 1 2.742-.844c1.539 0 2.758.527 3.656 1.582.906 1.047 1.359 2.48 1.359 4.3v.786h-9.046v.27c0 1.437.41 2.636 1.23 3.597.828.953 1.867 1.43 3.117 1.43.75 0 1.41-.137 1.981-.41.578-.274 1.101-.712 1.57-1.313l.879.668c-1.031 1.492-2.527 2.238-4.488 2.238zm-.258-11.953c-1.055 0-1.945.387-2.672 1.16-.719.774-1.156 1.813-1.313 3.117h7.606v-.152c-.039-1.219-.387-2.21-1.043-2.976-.656-.766-1.516-1.149-2.578-1.149zm10.781 8.8l.211 1.09.281-1.148 3.047-9.703h1.195l3.012 9.621.328 1.336.27-1.23 2.601-9.727h1.454l-3.692 12.68h-1.195l-3.258-10.055-.152-.691-.153.703-3.199 10.043h-1.195l-3.68-12.68h1.442l2.683 9.762zm23.063 2.919c-.141-.399-.231-.989-.27-1.77a4.927 4.927 0 0 1-1.887 1.489 5.77 5.77 0 0 1-2.414.515c-1.218 0-2.207-.34-2.965-1.02-.75-.68-1.125-1.538-1.125-2.578 0-1.234.512-2.21 1.536-2.93 1.031-.718 2.464-1.077 4.3-1.077h2.543v-1.442c0-.906-.281-1.617-.843-2.133-.555-.523-1.368-.785-2.438-.785-.976 0-1.785.25-2.426.75-.64.5-.961 1.102-.961 1.805l-1.406-.012c0-1.008.469-1.879 1.406-2.613.938-.742 2.09-1.113 3.457-1.113 1.414 0 2.528.355 3.34 1.066.821.703 1.242 1.688 1.266 2.953v6c0 1.227.129 2.145.387 2.754v.14h-1.5zM224.25 37c.938 0 1.774-.227 2.508-.68.742-.453 1.281-1.058 1.617-1.816v-2.79h-2.507c-1.399.016-2.493.274-3.282.774-.789.492-1.183 1.172-1.183 2.04 0 .71.261 1.3.785 1.769.531.469 1.219.703 2.062.703zm19.477-5.203c0 1.976-.438 3.547-1.313 4.71-.875 1.157-2.05 1.735-3.527 1.735-1.766 0-3.101-.656-4.008-1.969l-.058 1.735h-1.313v-18h1.395v7.16c.89-1.383 2.211-2.074 3.961-2.074 1.5 0 2.683.574 3.55 1.722.875 1.141 1.313 2.73 1.313 4.77v.21zm-1.406-.246c0-1.672-.325-2.961-.973-3.867-.648-.915-1.562-1.371-2.742-1.371-.899 0-1.66.222-2.285.667-.625.438-1.098 1.082-1.418 1.934v5.719c.703 1.593 1.945 2.39 3.726 2.39 1.157 0 2.059-.457 2.707-1.37.657-.915.985-2.282.985-4.102zm6.082 6.457h-1.407v-18h1.407v18zm8.73.234c-1.078 0-2.055-.266-2.93-.797-.867-.531-1.542-1.27-2.027-2.215-.484-.953-.726-2.02-.726-3.199v-.504c0-1.218.234-2.316.703-3.293.476-.976 1.136-1.742 1.98-2.296a4.848 4.848 0 0 1 2.742-.844c1.539 0 2.758.527 3.657 1.582.906 1.047 1.359 2.48 1.359 4.3v.786h-9.047v.27c0 1.437.41 2.636 1.231 3.597.828.953 1.867 1.43 3.117 1.43.75 0 1.41-.137 1.98-.41.578-.274 1.102-.712 1.571-1.313l.878.668c-1.031 1.492-2.527 2.238-4.488 2.238zm-.258-11.953c-1.054 0-1.945.387-2.672 1.16-.718.774-1.156 1.813-1.312 3.117h7.605v-.152c-.039-1.219-.386-2.21-1.043-2.976-.656-.766-1.515-1.149-2.578-1.149zm21.586 11.719c-.14-.399-.23-.989-.269-1.77a4.927 4.927 0 0 1-1.887 1.489 5.774 5.774 0 0 1-2.414.515c-1.219 0-2.207-.34-2.965-1.02-.75-.68-1.125-1.538-1.125-2.578 0-1.234.512-2.21 1.535-2.93 1.032-.718 2.465-1.077 4.301-1.077h2.543v-1.442c0-.906-.281-1.617-.844-2.133-.554-.523-1.367-.785-2.437-.785-.977 0-1.785.25-2.426.75-.641.5-.961 1.102-.961 1.805l-1.406-.012c0-1.008.469-1.879 1.406-2.613.938-.742 2.09-1.113 3.457-1.113 1.414 0 2.527.355 3.34 1.066.82.703 1.242 1.688 1.266 2.953v6c0 1.227.128 2.145.386 2.754v.14h-1.5zM274.055 37c.938 0 1.773-.227 2.508-.68.742-.453 1.281-1.058 1.617-1.816v-2.79h-2.508c-1.398.016-2.492.274-3.281.774-.789.492-1.184 1.172-1.184 2.04 0 .71.262 1.3.786 1.769.531.469 1.218.703 2.062.703zm10.606-11.672l.046 2.168c.477-.781 1.071-1.375 1.782-1.781a4.595 4.595 0 0 1 2.355-.621c1.359 0 2.371.383 3.035 1.148.664.766 1 1.914 1.008 3.446v8.32h-1.394v-8.332c-.008-1.133-.25-1.977-.727-2.532-.469-.554-1.223-.831-2.262-.831-.867 0-1.636.273-2.308.82-.664.539-1.157 1.27-1.477 2.191v8.684h-1.394v-12.68h1.336zm11.296 6.223c0-1.969.438-3.535 1.313-4.7.883-1.171 2.078-1.757 3.586-1.757 1.711 0 3.015.675 3.914 2.027V20.01h1.394v18h-1.312l-.059-1.688c-.898 1.282-2.218 1.922-3.961 1.922-1.461 0-2.64-.586-3.539-1.758-.89-1.18-1.336-2.77-1.336-4.77v-.163zm1.418.246c0 1.617.325 2.894.973 3.832.648.93 1.563 1.394 2.742 1.394 1.727 0 2.953-.761 3.68-2.285v-5.953c-.727-1.648-1.945-2.473-3.656-2.473-1.18 0-2.098.465-2.754 1.395-.657.922-.985 2.285-.985 4.09zm19.289-12l.844.598c-.703.921-1.066 1.914-1.09 2.976v1.5h-1.394V23.56c0-.72.144-1.41.433-2.075.297-.664.7-1.226 1.207-1.687zm2.942 0l.844.598c-.704.921-1.067 1.914-1.09 2.976v1.5h-1.395V23.56c0-.72.145-1.41.434-2.075a5.004 5.004 0 0 1 1.207-1.687zm1.992 11.754c0-1.985.438-3.555 1.313-4.711.882-1.164 2.078-1.746 3.585-1.746 1.727 0 3.04.687 3.938 2.062l.07-1.828h1.313V37.75c0 1.633-.457 2.926-1.371 3.879-.914.953-2.153 1.43-3.715 1.43-.883 0-1.727-.2-2.531-.598-.797-.39-1.426-.914-1.887-1.57l.785-.844c.992 1.219 2.172 1.828 3.539 1.828 1.172 0 2.086-.348 2.742-1.043.657-.688.996-1.645 1.02-2.871v-1.594c-.899 1.25-2.207 1.875-3.926 1.875-1.469 0-2.648-.586-3.539-1.758-.891-1.172-1.336-2.754-1.336-4.746v-.187zm1.418.246c0 1.617.324 2.894.973 3.832.648.93 1.562 1.394 2.742 1.394 1.726 0 2.949-.773 3.668-2.32V28.81c-.328-.813-.801-1.43-1.418-1.852-.617-.43-1.36-.644-2.227-.644-1.179 0-2.097.464-2.754 1.394-.656.922-.984 2.285-.984 4.09zm18.316-5.274a5.227 5.227 0 0 0-.949-.082c-.875 0-1.617.247-2.226.739-.602.484-1.032 1.191-1.289 2.12v8.708h-1.395v-12.68h1.371l.024 2.016c.742-1.5 1.933-2.25 3.574-2.25.39 0 .699.05.926.152l-.036 1.277zm6.903 11.72c-1.078 0-2.055-.267-2.93-.798-.867-.531-1.543-1.27-2.027-2.215-.485-.953-.727-2.02-.727-3.199v-.504c0-1.218.235-2.316.703-3.293.477-.976 1.137-1.742 1.981-2.296a4.846 4.846 0 0 1 2.742-.844c1.539 0 2.758.527 3.656 1.582.906 1.047 1.36 2.48 1.36 4.3v.786h-9.047v.27c0 1.437.41 2.636 1.23 3.597.828.953 1.867 1.43 3.117 1.43.75 0 1.41-.137 1.981-.41.578-.274 1.101-.712 1.57-1.313l.879.668c-1.031 1.492-2.527 2.238-4.488 2.238zm-.258-11.954c-1.055 0-1.945.387-2.672 1.16-.719.774-1.156 1.813-1.312 3.117h7.605v-.152c-.039-1.219-.387-2.21-1.043-2.976-.656-.766-1.516-1.149-2.578-1.149zm12.656 11.953c-1.078 0-2.055-.266-2.93-.797-.867-.531-1.542-1.27-2.027-2.215-.484-.953-.726-2.02-.726-3.199v-.504c0-1.218.234-2.316.703-3.293.476-.976 1.136-1.742 1.98-2.296a4.848 4.848 0 0 1 2.742-.844c1.539 0 2.758.527 3.657 1.582.906 1.047 1.359 2.48 1.359 4.3v.786h-9.047v.27c0 1.437.41 2.636 1.231 3.597.828.953 1.867 1.43 3.117 1.43.75 0 1.41-.137 1.98-.41.578-.274 1.102-.712 1.571-1.313l.878.668c-1.031 1.492-2.527 2.238-4.488 2.238zm-.258-11.953c-1.054 0-1.945.387-2.672 1.16-.718.774-1.156 1.813-1.312 3.117h7.605v-.152c-.039-1.219-.386-2.21-1.043-2.976-.656-.766-1.515-1.149-2.578-1.149zm9.082-.96l.047 2.167c.477-.781 1.071-1.375 1.782-1.781a4.593 4.593 0 0 1 2.355-.621c1.359 0 2.371.383 3.035 1.148.664.766 1 1.914 1.008 3.446v8.32h-1.395v-8.332c-.007-1.133-.25-1.977-.726-2.532-.469-.554-1.223-.831-2.262-.831a3.55 3.55 0 0 0-2.308.82c-.665.539-1.157 1.27-1.477 2.191v8.684h-1.395v-12.68h1.336zm10.442-.2l-.832-.61c.703-.945 1.066-1.937 1.09-2.976v-1.535h1.382v1.183c0 1.633-.546 2.946-1.64 3.938zm2.859 0l-.832-.61c.703-.945 1.067-1.937 1.09-2.976v-1.535h1.383v1.183c0 1.633-.547 2.946-1.641 3.938zM154.243 73.243c-1.079 0-2.055-.265-2.93-.797-.867-.531-1.543-1.27-2.027-2.215-.485-.953-.727-2.02-.727-3.199v-.504c0-1.218.234-2.316.703-3.293.477-.976 1.137-1.742 1.981-2.297a4.844 4.844 0 0 1 2.742-.843c1.539 0 2.758.527 3.656 1.582.906 1.047 1.359 2.48 1.359 4.3v.786h-9.047v.27c0 1.437.411 2.636 1.231 3.597.828.953 1.867 1.43 3.117 1.43.75 0 1.41-.137 1.981-.41.578-.274 1.101-.712 1.57-1.313l.879.668c-1.031 1.492-2.528 2.238-4.488 2.238zm-.258-11.953c-1.055 0-1.946.387-2.672 1.16-.719.774-1.156 1.813-1.313 3.117h7.606v-.152c-.039-1.219-.387-2.21-1.043-2.977-.656-.765-1.516-1.148-2.578-1.148zm9.082-.96l.047 2.167c.476-.781 1.07-1.375 1.781-1.781a4.595 4.595 0 0 1 2.355-.621c1.36 0 2.371.383 3.036 1.148.664.766 1 1.914 1.007 3.446v8.32h-1.394v-8.332c-.008-1.133-.25-1.977-.727-2.532-.469-.554-1.222-.832-2.261-.832-.868 0-1.637.274-2.309.82-.664.54-1.156 1.27-1.477 2.192v8.684h-1.394v-12.68h1.336zm16.769 12.913c-1.078 0-2.054-.265-2.929-.797-.868-.531-1.543-1.27-2.028-2.215-.484-.953-.726-2.02-.726-3.199v-.504c0-1.218.234-2.316.703-3.293.476-.976 1.137-1.742 1.98-2.297a4.848 4.848 0 0 1 2.742-.843c1.54 0 2.758.527 3.657 1.582.906 1.047 1.359 2.48 1.359 4.3v.786h-9.047v.27c0 1.437.41 2.636 1.231 3.597.828.953 1.867 1.43 3.117 1.43.75 0 1.41-.137 1.98-.41.578-.274 1.102-.712 1.571-1.313l.879.668c-1.032 1.492-2.528 2.238-4.489 2.238zm-.258-11.953c-1.054 0-1.945.387-2.671 1.16-.719.774-1.157 1.813-1.313 3.117h7.606v-.152c-.039-1.219-.387-2.21-1.043-2.977-.657-.765-1.516-1.148-2.579-1.148zm13.606.234a5.235 5.235 0 0 0-.949-.082c-.875 0-1.617.246-2.227.739-.601.484-1.031 1.191-1.289 2.12v8.708h-1.394v-12.68h1.371l.023 2.016c.742-1.5 1.934-2.25 3.574-2.25.391 0 .7.05.926.152l-.035 1.277zm1.43 5.028c0-1.985.437-3.555 1.312-4.711.883-1.164 2.078-1.746 3.586-1.746 1.727 0 3.039.687 3.938 2.062l.07-1.828h1.312v12.422c0 1.633-.457 2.926-1.371 3.879-.914.953-2.152 1.43-3.715 1.43-.882 0-1.726-.2-2.531-.598-.797-.39-1.426-.914-1.887-1.57l.786-.844c.992 1.219 2.172 1.828 3.539 1.828 1.172 0 2.086-.348 2.742-1.043.656-.688.996-1.644 1.019-2.871v-1.594c-.898 1.25-2.207 1.875-3.925 1.875-1.469 0-2.649-.586-3.539-1.758-.891-1.171-1.336-2.754-1.336-4.746v-.187zm1.418.246c0 1.617.324 2.894.972 3.832.649.93 1.563 1.394 2.742 1.394 1.727 0 2.95-.773 3.668-2.32V63.81c-.328-.813-.8-1.43-1.418-1.852-.617-.43-1.359-.645-2.226-.645-1.18 0-2.098.465-2.754 1.395-.656.922-.984 2.285-.984 4.09zm16.476 4.195l3.703-10.664h1.512l-5.414 14.836-.281.656c-.696 1.54-1.77 2.309-3.223 2.309-.336 0-.695-.055-1.078-.164l-.012-1.16.727.07c.687 0 1.242-.172 1.664-.516.43-.336.793-.918 1.09-1.746l.621-1.71-4.781-12.575h1.535l3.937 10.664zm95.687 132.781h-7.98v6.961h9.176v1.219h-10.618v-17.062h10.559v1.23h-9.117v6.434h7.98v1.218zm5.25-4.5l.047 2.168c.477-.781 1.07-1.375 1.781-1.781a4.599 4.599 0 0 1 2.356-.621c1.359 0 2.371.383 3.035 1.148.664.766 1 1.915 1.008 3.446v8.32h-1.395v-8.332c-.007-1.133-.25-1.976-.726-2.531-.469-.555-1.223-.832-2.262-.832-.867 0-1.637.273-2.309.82-.664.539-1.156 1.27-1.476 2.192v8.683h-1.395v-12.68h1.336zm16.77 12.914c-1.078 0-2.055-.265-2.93-.796a5.458 5.458 0 0 1-2.027-2.215c-.485-.953-.727-2.02-.727-3.199v-.504c0-1.219.235-2.317.703-3.293.477-.977 1.137-1.743 1.981-2.297a4.845 4.845 0 0 1 2.742-.844c1.539 0 2.758.527 3.656 1.582.907 1.047 1.36 2.481 1.36 4.301v.785h-9.047v.27c0 1.437.41 2.636 1.23 3.597.828.953 1.867 1.43 3.117 1.43.75 0 1.411-.137 1.981-.41.578-.274 1.101-.711 1.57-1.313l.879.668c-1.031 1.492-2.527 2.238-4.488 2.238zm-.258-11.953c-1.055 0-1.945.387-2.672 1.161-.719.773-1.156 1.812-1.312 3.117h7.605v-.153c-.039-1.218-.387-2.211-1.043-2.976-.656-.766-1.515-1.149-2.578-1.149zm13.605.235a5.2 5.2 0 0 0-.949-.082c-.875 0-1.617.246-2.226.738-.602.484-1.032 1.191-1.289 2.121v8.707h-1.395v-12.68h1.371l.024 2.016c.742-1.5 1.933-2.25 3.574-2.25.39 0 .699.051.926.152l-.036 1.278zm1.43 5.027c0-1.984.438-3.555 1.313-4.711.883-1.164 2.078-1.746 3.586-1.746 1.726 0 3.039.688 3.937 2.063l.07-1.829h1.313v12.422c0 1.633-.457 2.926-1.371 3.879-.914.953-2.152 1.43-3.715 1.43a5.623 5.623 0 0 1-2.531-.598c-.797-.39-1.426-.914-1.887-1.57l.785-.844c.992 1.219 2.172 1.828 3.539 1.828 1.172 0 2.086-.347 2.742-1.043.657-.687.997-1.644 1.02-2.871v-1.594c-.898 1.25-2.207 1.875-3.926 1.875-1.469 0-2.648-.585-3.539-1.757-.89-1.172-1.336-2.754-1.336-4.746v-.188zm1.418.246c0 1.617.324 2.895.973 3.832.648.93 1.562 1.395 2.742 1.395 1.727 0 2.949-.774 3.668-2.321v-5.894c-.328-.813-.801-1.43-1.418-1.852-.617-.429-1.359-.644-2.227-.644-1.179 0-2.097.465-2.753 1.394-.657.922-.985 2.285-.985 4.09zm16.477 4.195l3.703-10.664h1.512l-5.414 14.836-.282.657c-.695 1.539-1.769 2.308-3.222 2.308-.336 0-.696-.054-1.079-.164l-.011-1.16.726.07c.688 0 1.242-.172 1.664-.515.43-.336.793-.918 1.09-1.746l.621-1.711-4.781-12.575h1.535l3.938 10.664zm21.234 2.016c-.141-.398-.23-.988-.269-1.769a4.952 4.952 0 0 1-1.887 1.488 5.774 5.774 0 0 1-2.414.515c-1.219 0-2.207-.339-2.965-1.019-.75-.68-1.125-1.539-1.125-2.578 0-1.235.512-2.211 1.535-2.93 1.031-.719 2.465-1.078 4.301-1.078h2.543v-1.441c0-.907-.281-1.618-.844-2.133-.555-.524-1.367-.785-2.437-.785-.977 0-1.786.25-2.426.75-.641.5-.961 1.101-.961 1.804l-1.406-.011c0-1.008.468-1.879 1.406-2.614.937-.742 2.09-1.113 3.457-1.113 1.414 0 2.527.356 3.34 1.066.82.704 1.242 1.688 1.265 2.954v6c0 1.226.129 2.144.387 2.753v.141h-1.5zm-4.406-1.008c.937 0 1.773-.226 2.508-.679.742-.454 1.281-1.059 1.617-1.817v-2.789h-2.508c-1.398.016-2.492.274-3.281.774-.789.492-1.184 1.171-1.184 2.039 0 .711.262 1.3.785 1.769.532.469 1.219.703 2.063.703zm10.605-11.672l.047 2.168c.477-.781 1.071-1.375 1.781-1.781a4.599 4.599 0 0 1 2.356-.621c1.359 0 2.371.383 3.035 1.148.664.766 1 1.915 1.008 3.446v8.32h-1.395v-8.332c-.007-1.133-.25-1.976-.726-2.531-.469-.555-1.223-.832-2.262-.832-.867 0-1.637.273-2.309.82-.664.539-1.156 1.27-1.476 2.192v8.683h-1.395v-12.68h1.336zm11.297 6.223c0-1.969.438-3.535 1.313-4.699.882-1.172 2.078-1.758 3.586-1.758 1.711 0 3.015.676 3.914 2.027v-7.113h1.394v18h-1.312l-.059-1.687c-.898 1.281-2.219 1.921-3.961 1.921-1.461 0-2.64-.585-3.539-1.757-.891-1.18-1.336-2.77-1.336-4.77v-.164zm1.418.246c0 1.617.324 2.895.973 3.832.648.93 1.562 1.395 2.742 1.395 1.727 0 2.953-.762 3.68-2.285v-5.954c-.727-1.648-1.946-2.472-3.657-2.472-1.179 0-2.097.465-2.753 1.394-.657.922-.985 2.285-.985 4.09zm24.176-5.273a5.208 5.208 0 0 0-.949-.082c-.875 0-1.617.246-2.227.738-.601.484-1.031 1.191-1.289 2.121v8.707h-1.394v-12.68h1.371l.023 2.016c.742-1.5 1.934-2.25 3.574-2.25.391 0 .7.051.926.152l-.035 1.278zm6.902 11.718c-1.078 0-2.054-.265-2.929-.796-.868-.532-1.543-1.27-2.028-2.215-.484-.953-.726-2.02-.726-3.199v-.504c0-1.219.234-2.317.703-3.293.476-.977 1.137-1.743 1.98-2.297a4.845 4.845 0 0 1 2.742-.844c1.54 0 2.758.527 3.657 1.582.906 1.047 1.359 2.481 1.359 4.301v.785h-9.047v.27c0 1.437.41 2.636 1.231 3.597.828.953 1.867 1.43 3.117 1.43.75 0 1.41-.137 1.98-.41.578-.274 1.102-.711 1.571-1.313l.879.668c-1.032 1.492-2.528 2.238-4.489 2.238zm-.258-11.953c-1.054 0-1.945.387-2.671 1.161-.719.773-1.157 1.812-1.313 3.117h7.606v-.153c-.039-1.218-.387-2.211-1.043-2.976-.657-.766-1.516-1.149-2.579-1.149zm9.317 11.719h-1.406v-18h1.406v18zm11.824 0c-.141-.398-.23-.988-.269-1.769a4.952 4.952 0 0 1-1.887 1.488 5.774 5.774 0 0 1-2.414.515c-1.219 0-2.207-.339-2.965-1.019-.75-.68-1.125-1.539-1.125-2.578 0-1.235.512-2.211 1.535-2.93 1.031-.719 2.465-1.078 4.301-1.078h2.543v-1.441c0-.907-.281-1.618-.844-2.133-.555-.524-1.367-.785-2.437-.785-.977 0-1.786.25-2.426.75-.641.5-.961 1.101-.961 1.804l-1.406-.011c0-1.008.468-1.879 1.406-2.614.937-.742 2.09-1.113 3.457-1.113 1.414 0 2.527.356 3.34 1.066.82.704 1.242 1.688 1.265 2.954v6c0 1.226.129 2.144.387 2.753v.141h-1.5zm-4.406-1.008c.937 0 1.773-.226 2.508-.679.742-.454 1.281-1.059 1.617-1.817v-2.789h-2.508c-1.398.016-2.492.274-3.281.774-.789.492-1.184 1.171-1.184 2.039 0 .711.262 1.3.785 1.769.532.469 1.219.703 2.063.703zm11.449-14.918v3.246h2.625v1.149h-2.625v8.449c0 .703.125 1.227.375 1.57.258.344.684.516 1.277.516.235 0 .614-.039 1.137-.117l.059 1.148c-.367.133-.867.199-1.5.199-.961 0-1.66-.277-2.098-.832-.437-.562-.656-1.386-.656-2.472v-8.461h-2.332v-1.149h2.332v-3.246h1.406zm10.441 16.16c-1.078 0-2.054-.265-2.929-.796-.867-.532-1.543-1.27-2.028-2.215-.484-.953-.726-2.02-.726-3.199v-.504c0-1.219.234-2.317.703-3.293.477-.977 1.137-1.743 1.98-2.297a4.845 4.845 0 0 1 2.743-.844c1.539 0 2.757.527 3.656 1.582.906 1.047 1.359 2.481 1.359 4.301v.785h-9.047v.27c0 1.437.411 2.636 1.231 3.597.828.953 1.867 1.43 3.117 1.43.75 0 1.41-.137 1.981-.41.578-.274 1.101-.711 1.57-1.313l.879.668c-1.031 1.492-2.528 2.238-4.489 2.238zm-.257-11.953c-1.055 0-1.946.387-2.672 1.161-.719.773-1.156 1.812-1.313 3.117h7.606v-.153c-.039-1.218-.387-2.211-1.043-2.976-.656-.766-1.516-1.149-2.578-1.149zm7.183 5.262c0-1.969.438-3.535 1.313-4.699.883-1.172 2.078-1.758 3.586-1.758 1.711 0 3.015.676 3.914 2.027v-7.113h1.394v18h-1.312l-.059-1.687c-.898 1.281-2.219 1.921-3.961 1.921-1.461 0-2.64-.585-3.539-1.757-.89-1.18-1.336-2.77-1.336-4.77v-.164zm1.418.246c0 1.617.324 2.895.973 3.832.648.93 1.562 1.395 2.742 1.395 1.727 0 2.953-.762 3.68-2.285v-5.954c-.727-1.648-1.946-2.472-3.657-2.472-1.179 0-2.097.465-2.753 1.394-.657.922-.985 2.285-.985 4.09zm-177.691 40.262c.976 0 1.793-.274 2.449-.82.664-.555 1.023-1.27 1.078-2.145h1.348a3.994 3.994 0 0 1-.727 2.121 4.555 4.555 0 0 1-1.781 1.488 5.302 5.302 0 0 1-2.367.539c-1.664 0-2.985-.578-3.961-1.734-.969-1.156-1.453-2.711-1.453-4.664v-.422c0-1.25.219-2.355.656-3.316.437-.961 1.063-1.703 1.875-2.227.82-.523 1.777-.785 2.871-.785 1.391 0 2.535.414 3.434 1.242.906.828 1.39 1.918 1.453 3.27h-1.348c-.062-.992-.422-1.793-1.078-2.403-.648-.609-1.469-.914-2.461-.914-1.266 0-2.25.457-2.953 1.371-.695.915-1.043 2.196-1.043 3.844v.41c0 1.618.348 2.879 1.043 3.786.703.906 1.691 1.359 2.965 1.359zm6.914-5.578c0-1.219.234-2.317.703-3.293.477-.977 1.145-1.735 2.004-2.274.867-.547 1.848-.82 2.941-.82 1.688 0 3.055.594 4.102 1.781 1.047 1.18 1.57 2.746 1.57 4.7v.292c0 1.227-.238 2.333-.715 3.317-.468.976-1.132 1.73-1.992 2.262-.859.531-1.84.796-2.941.796-1.68 0-3.047-.589-4.102-1.769-1.047-1.188-1.57-2.758-1.57-4.711v-.281zm1.406.386c0 1.516.391 2.762 1.172 3.739.789.969 1.82 1.453 3.094 1.453 1.265 0 2.289-.484 3.07-1.453.789-.977 1.184-2.262 1.184-3.856v-.269c0-.969-.18-1.856-.539-2.66-.36-.805-.864-1.426-1.512-1.864-.649-.445-1.391-.668-2.227-.668-1.25 0-2.269.493-3.058 1.477-.789.976-1.184 2.258-1.184 3.844v.257zm20.414 2.918c0-.695-.281-1.253-.844-1.675-.554-.422-1.394-.75-2.519-.985-1.125-.242-2-.515-2.625-.82-.617-.313-1.078-.691-1.383-1.137-.297-.445-.445-.984-.445-1.617 0-1 .418-1.824 1.254-2.473.836-.656 1.906-.984 3.211-.984 1.414 0 2.546.352 3.398 1.055.859.695 1.289 1.605 1.289 2.73h-1.406c0-.742-.313-1.359-.938-1.851-.617-.493-1.398-.739-2.343-.739-.922 0-1.664.207-2.227.621-.555.407-.832.938-.832 1.594 0 .633.231 1.125.691 1.477.469.344 1.317.66 2.543.949 1.235.289 2.157.598 2.766.926.617.328 1.074.722 1.371 1.183.297.461.445 1.02.445 1.676 0 1.07-.433 1.926-1.3 2.567-.86.64-1.985.96-3.375.96-1.477 0-2.676-.355-3.598-1.066-.914-.719-1.371-1.625-1.371-2.719h1.406c.055.821.399 1.461 1.031 1.922.641.453 1.485.68 2.532.68.976 0 1.765-.215 2.367-.645.601-.429.902-.972.902-1.629zm6.75-12.703v3.246h2.625v1.149h-2.625v8.449c0 .703.125 1.227.375 1.57.258.344.684.516 1.278.516.234 0 .613-.039 1.136-.117l.059 1.148c-.367.133-.867.199-1.5.199-.961 0-1.66-.277-2.098-.832-.437-.562-.656-1.386-.656-2.472v-8.461h-2.332v-1.149h2.332v-3.246h1.406zm13.125 12.703c0-.695-.281-1.253-.844-1.675-.554-.422-1.394-.75-2.519-.985-1.125-.242-2-.515-2.625-.82-.617-.313-1.078-.691-1.383-1.137-.297-.445-.445-.984-.445-1.617 0-1 .418-1.824 1.254-2.473.836-.656 1.906-.984 3.211-.984 1.414 0 2.547.352 3.398 1.055.859.695 1.289 1.605 1.289 2.73h-1.406c0-.742-.313-1.359-.938-1.851-.617-.493-1.398-.739-2.343-.739-.922 0-1.664.207-2.227.621-.555.407-.832.938-.832 1.594 0 .633.23 1.125.691 1.477.469.344 1.317.66 2.543.949 1.235.289 2.157.598 2.766.926.617.328 1.074.722 1.371 1.183.297.461.445 1.02.445 1.676 0 1.07-.433 1.926-1.3 2.567-.86.64-1.985.96-3.375.96-1.477 0-2.676-.355-3.598-1.066-.914-.719-1.371-1.625-1.371-2.719h1.406c.055.821.399 1.461 1.031 1.922.641.453 1.485.68 2.532.68.976 0 1.765-.215 2.367-.645.601-.429.902-.972.902-1.629zm18 0c0-.695-.281-1.253-.844-1.675-.554-.422-1.394-.75-2.519-.985-1.125-.242-2-.515-2.625-.82-.617-.313-1.078-.691-1.383-1.137-.297-.445-.445-.984-.445-1.617 0-1 .418-1.824 1.254-2.473.836-.656 1.906-.984 3.211-.984 1.414 0 2.547.352 3.398 1.055.859.695 1.289 1.605 1.289 2.73h-1.406c0-.742-.313-1.359-.938-1.851-.617-.493-1.398-.739-2.343-.739-.922 0-1.664.207-2.227.621-.555.407-.832.938-.832 1.594 0 .633.23 1.125.691 1.477.469.344 1.317.66 2.543.949 1.235.289 2.157.598 2.766.926.617.328 1.074.722 1.371 1.183.297.461.445 1.02.445 1.676 0 1.07-.433 1.926-1.3 2.567-.86.64-1.985.96-3.375.96-1.477 0-2.676-.355-3.598-1.066-.914-.719-1.371-1.625-1.371-2.719h1.406c.055.821.399 1.461 1.031 1.922.641.453 1.485.68 2.532.68.976 0 1.765-.215 2.367-.645.601-.429.902-.972.902-1.629zm12.574 3.223c-.14-.398-.23-.988-.269-1.769a4.937 4.937 0 0 1-1.887 1.488 5.77 5.77 0 0 1-2.414.515c-1.219 0-2.207-.339-2.965-1.019-.75-.68-1.125-1.539-1.125-2.578 0-1.235.512-2.211 1.535-2.93 1.032-.719 2.465-1.078 4.301-1.078h2.543v-1.441c0-.907-.281-1.618-.844-2.133-.554-.524-1.367-.785-2.437-.785-.977 0-1.785.25-2.426.75-.64.5-.961 1.101-.961 1.804l-1.406-.011c0-1.008.469-1.879 1.406-2.614.938-.742 2.09-1.113 3.457-1.113 1.414 0 2.528.356 3.34 1.066.82.704 1.242 1.688 1.266 2.954v6c0 1.226.129 2.144.386 2.753v.141h-1.5zm-4.406-1.008c.938 0 1.774-.226 2.508-.679.742-.454 1.281-1.059 1.617-1.817v-2.789h-2.508c-1.398.016-2.492.274-3.281.774-.789.492-1.184 1.171-1.184 2.039 0 .711.262 1.3.786 1.769.531.469 1.218.703 2.062.703zm13.031-.925l3.856-10.747h1.441l-4.734 12.68h-1.137l-4.758-12.68h1.442l3.89 10.747zm9.176 1.933h-1.406v-12.68h1.406v12.68zm-1.652-16.348a.93.93 0 0 1 .258-.668c.172-.187.406-.281.703-.281.297 0 .531.094.703.281.18.18.269.403.269.668a.904.904 0 0 1-.269.668c-.172.18-.406.27-.703.27-.297 0-.531-.09-.703-.27a.927.927 0 0 1-.258-.668zm6.808 3.668l.047 2.168c.477-.781 1.071-1.375 1.782-1.781a4.593 4.593 0 0 1 2.355-.621c1.359 0 2.371.383 3.035 1.148.664.766 1 1.915 1.008 3.446v8.32h-1.395v-8.332c-.007-1.133-.25-1.976-.726-2.531-.469-.555-1.223-.832-2.262-.832a3.55 3.55 0 0 0-2.308.82c-.664.539-1.157 1.27-1.477 2.192v8.683h-1.394v-12.68h1.335zm11.297 6.223c0-1.984.438-3.555 1.313-4.711.883-1.164 2.078-1.746 3.586-1.746 1.726 0 3.039.688 3.937 2.063l.071-1.829h1.312v12.422c0 1.633-.457 2.926-1.371 3.879-.914.953-2.152 1.43-3.715 1.43a5.626 5.626 0 0 1-2.531-.598c-.797-.39-1.426-.914-1.887-1.57l.785-.844c.992 1.219 2.172 1.828 3.539 1.828 1.172 0 2.086-.347 2.743-1.043.656-.687.996-1.644 1.019-2.871v-1.594c-.898 1.25-2.207 1.875-3.926 1.875-1.468 0-2.648-.585-3.539-1.757-.89-1.172-1.336-2.754-1.336-4.746v-.188zm1.418.246c0 1.617.324 2.895.973 3.832.648.93 1.562 1.395 2.742 1.395 1.727 0 2.949-.774 3.668-2.321v-5.894c-.328-.813-.801-1.43-1.418-1.852-.617-.429-1.359-.644-2.226-.644-1.18 0-2.098.465-2.754 1.394-.657.922-.985 2.285-.985 4.09zm20.051 2.988c0-.695-.281-1.253-.844-1.675-.554-.422-1.394-.75-2.519-.985-1.125-.242-2-.515-2.625-.82-.617-.313-1.078-.691-1.383-1.137-.297-.445-.445-.984-.445-1.617 0-1 .418-1.824 1.254-2.473.835-.656 1.906-.984 3.211-.984 1.414 0 2.546.352 3.398 1.055.859.695 1.289 1.605 1.289 2.73h-1.406c0-.742-.313-1.359-.938-1.851-.617-.493-1.398-.739-2.343-.739-.922 0-1.665.207-2.227.621-.555.407-.832.938-.832 1.594 0 .633.23 1.125.691 1.477.469.344 1.317.66 2.543.949 1.235.289 2.157.598 2.766.926.617.328 1.074.722 1.371 1.183.297.461.445 1.02.445 1.676 0 1.07-.433 1.926-1.3 2.567-.86.64-1.985.96-3.375.96-1.477 0-2.676-.355-3.598-1.066-.914-.719-1.371-1.625-1.371-2.719h1.406c.055.821.398 1.461 1.031 1.922.641.453 1.485.68 2.532.68.976 0 1.765-.215 2.367-.645.601-.429.902-.972.902-1.629zM768.459 30.83h-7.981v6.96h9.176v1.219h-10.617V21.946h10.558v1.23h-9.117v6.434h7.981v1.22zm4.922 8.179V27.477h-2.098V26.33h2.098v-1.535c0-1.297.328-2.293.984-2.988.664-.696 1.586-1.043 2.766-1.043.531 0 1.027.066 1.488.199l-.106 1.172a5.46 5.46 0 0 0-1.277-.14c-.773 0-1.375.241-1.805.726-.429.476-.644 1.156-.644 2.039v1.57h5.402v-1.3c0-1.352.367-2.4 1.102-3.141.734-.75 1.769-1.125 3.105-1.125 1.047 0 2.125.23 3.235.691l-.235 1.207c-.976-.414-1.949-.621-2.918-.621-1.929 0-2.894 1.012-2.894 3.035v1.254h2.976v1.148h-2.976V39.01h-1.395V27.477h-5.402V39.01h-1.406zm15.011 0h-1.406v-12.68h1.406v12.68zm8.543-.95c.977 0 1.793-.273 2.45-.82.664-.554 1.023-1.27 1.078-2.144h1.347a4.002 4.002 0 0 1-.726 2.12 4.563 4.563 0 0 1-1.782 1.49 5.31 5.31 0 0 1-2.367.538c-1.664 0-2.984-.578-3.961-1.734-.968-1.157-1.453-2.711-1.453-4.664v-.422c0-1.25.219-2.356.656-3.317.438-.96 1.063-1.703 1.875-2.226.821-.524 1.778-.785 2.872-.785 1.39 0 2.535.414 3.433 1.242.906.828 1.391 1.918 1.453 3.27h-1.347c-.063-.993-.422-1.793-1.078-2.403-.649-.61-1.469-.914-2.461-.914-1.266 0-2.25.457-2.954 1.371-.695.914-1.043 2.195-1.043 3.844v.41c0 1.617.348 2.879 1.043 3.785.704.906 1.692 1.36 2.965 1.36zm9.258.95h-1.406v-12.68h1.406v12.68zm-1.652-16.348c0-.266.086-.488.258-.668.171-.187.406-.281.703-.281.297 0 .531.094.703.281.18.18.269.402.269.668a.905.905 0 0 1-.269.668c-.172.18-.406.27-.703.27-.297 0-.532-.09-.703-.27a.928.928 0 0 1-.258-.668zm10.383 16.582c-1.079 0-2.055-.266-2.93-.797-.867-.531-1.543-1.27-2.027-2.215-.485-.953-.727-2.02-.727-3.199v-.504c0-1.218.234-2.316.703-3.293.477-.976 1.137-1.742 1.981-2.296a4.844 4.844 0 0 1 2.742-.844c1.539 0 2.758.527 3.656 1.582.906 1.047 1.359 2.48 1.359 4.3v.786h-9.046v.27c0 1.437.41 2.636 1.23 3.597.828.953 1.867 1.43 3.117 1.43.75 0 1.41-.137 1.981-.41.578-.274 1.101-.712 1.57-1.313l.879.668c-1.031 1.492-2.527 2.238-4.488 2.238zm-.258-11.953c-1.055 0-1.946.387-2.672 1.16-.719.774-1.156 1.813-1.313 3.117h7.606v-.152c-.039-1.219-.387-2.21-1.043-2.976-.656-.766-1.516-1.149-2.578-1.149zm9.082-.96l.047 2.167c.476-.781 1.07-1.375 1.781-1.781a4.595 4.595 0 0 1 2.355-.621c1.36 0 2.371.383 3.036 1.148.664.766 1 1.914 1.007 3.446v8.32h-1.394v-8.332c-.008-1.133-.25-1.977-.727-2.532-.468-.554-1.222-.831-2.261-.831-.868 0-1.637.273-2.309.82-.664.539-1.156 1.27-1.477 2.191v8.684h-1.394v-12.68h1.336zm16.547 11.73c.976 0 1.793-.274 2.449-.82.664-.555 1.023-1.27 1.078-2.145h1.348a4.003 4.003 0 0 1-.727 2.12 4.56 4.56 0 0 1-1.781 1.49 5.335 5.335 0 0 1-2.367.538c-1.664 0-2.985-.578-3.961-1.734-.969-1.157-1.453-2.711-1.453-4.664v-.422c0-1.25.218-2.356.656-3.317.437-.96 1.062-1.703 1.875-2.226.82-.524 1.777-.785 2.871-.785 1.391 0 2.535.414 3.434 1.242.906.828 1.39 1.918 1.453 3.27h-1.348c-.062-.993-.422-1.793-1.078-2.403-.649-.61-1.469-.914-2.461-.914-1.266 0-2.25.457-2.953 1.371-.695.914-1.043 2.195-1.043 3.844v.41c0 1.617.348 2.879 1.043 3.785.703.906 1.691 1.36 2.965 1.36zm11.707-1.067l3.703-10.664h1.512l-5.415 14.836-.281.656c-.695 1.54-1.769 2.309-3.222 2.309a3.94 3.94 0 0 1-1.079-.164l-.011-1.16.726.07c.688 0 1.242-.172 1.664-.516.43-.336.793-.918 1.09-1.746l.621-1.71-4.781-12.575h1.535l3.938 10.664zm14.8 2.016h-1.406v-12.68h1.406v12.68zM865.15 22.66c0-.266.086-.488.258-.668.172-.187.406-.281.703-.281.297 0 .531.094.703.281.18.18.27.402.27.668s-.09.488-.27.668c-.172.18-.406.27-.703.27-.297 0-.531-.09-.703-.27a.928.928 0 0 1-.258-.668zm6.809 3.668l.047 2.168c.476-.781 1.07-1.375 1.781-1.781a4.595 4.595 0 0 1 2.355-.621c1.36 0 2.371.383 3.035 1.148.665.766 1 1.914 1.008 3.446v8.32h-1.394v-8.332c-.008-1.133-.25-1.977-.727-2.532-.469-.554-1.222-.831-2.262-.831-.867 0-1.636.273-2.308.82-.664.539-1.156 1.27-1.477 2.191v8.684h-1.394v-12.68h1.336zm22.605 12.914c-1.078 0-2.054-.266-2.929-.797-.868-.531-1.543-1.27-2.028-2.215-.484-.953-.726-2.02-.726-3.199v-.504c0-1.218.234-2.316.703-3.293.476-.976 1.136-1.742 1.98-2.296a4.848 4.848 0 0 1 2.742-.844c1.539 0 2.758.527 3.657 1.582.906 1.047 1.359 2.48 1.359 4.3v.786h-9.047v.27c0 1.437.41 2.636 1.231 3.597.828.953 1.867 1.43 3.117 1.43.75 0 1.41-.137 1.98-.41.578-.274 1.102-.712 1.571-1.313l.878.668c-1.031 1.492-2.527 2.238-4.488 2.238zm-.258-11.953c-1.054 0-1.945.387-2.671 1.16-.719.774-1.157 1.813-1.313 3.117h7.605v-.152c-.039-1.219-.386-2.21-1.042-2.976-.657-.766-1.516-1.149-2.579-1.149zm9.082-.96l.047 2.167c.477-.781 1.071-1.375 1.782-1.781a4.593 4.593 0 0 1 2.355-.621c1.359 0 2.371.383 3.035 1.148.664.766 1 1.914 1.008 3.446v8.32h-1.395v-8.332c-.007-1.133-.25-1.977-.726-2.532-.469-.554-1.223-.831-2.262-.831a3.55 3.55 0 0 0-2.308.82c-.664.539-1.157 1.27-1.477 2.191v8.684h-1.395v-12.68h1.336zm16.77 12.913c-1.078 0-2.055-.266-2.93-.797-.867-.531-1.543-1.27-2.027-2.215-.484-.953-.727-2.02-.727-3.199v-.504c0-1.218.235-2.316.703-3.293.477-.976 1.137-1.742 1.981-2.296a4.848 4.848 0 0 1 2.742-.844c1.539 0 2.758.527 3.656 1.582.907 1.047 1.36 2.48 1.36 4.3v.786h-9.047v.27c0 1.437.41 2.636 1.23 3.597.828.953 1.868 1.43 3.118 1.43.75 0 1.41-.137 1.98-.41.578-.274 1.102-.712 1.57-1.313l.879.668c-1.031 1.492-2.527 2.238-4.488 2.238zM919.9 27.29c-1.055 0-1.945.387-2.672 1.16-.718.774-1.156 1.813-1.312 3.117h7.605v-.152c-.039-1.219-.386-2.21-1.043-2.976-.656-.766-1.515-1.149-2.578-1.149zm13.606.234a5.246 5.246 0 0 0-.95-.082c-.875 0-1.617.247-2.226.739-.602.484-1.031 1.191-1.289 2.12v8.708h-1.395v-12.68h1.371l.024 2.016c.742-1.5 1.933-2.25 3.574-2.25.391 0 .699.05.926.152l-.035 1.277zm1.429 5.028c0-1.985.438-3.555 1.313-4.711.883-1.164 2.078-1.746 3.586-1.746 1.726 0 3.039.687 3.937 2.062l.071-1.828h1.312v12.422c0 1.633-.457 2.926-1.371 3.879-.914.953-2.152 1.43-3.715 1.43-.883 0-1.726-.2-2.531-.598-.797-.39-1.426-.914-1.887-1.57l.785-.844c.992 1.219 2.172 1.828 3.539 1.828 1.172 0 2.086-.348 2.743-1.043.656-.688.996-1.645 1.019-2.871v-1.594c-.898 1.25-2.207 1.875-3.926 1.875-1.468 0-2.648-.586-3.539-1.758-.89-1.172-1.336-2.754-1.336-4.746v-.187zm1.418.246c0 1.617.324 2.894.973 3.832.648.93 1.562 1.394 2.742 1.394 1.727 0 2.949-.773 3.668-2.32V29.81c-.328-.813-.801-1.43-1.418-1.852-.617-.43-1.359-.644-2.226-.644-1.18 0-2.098.464-2.754 1.394-.657.922-.985 2.285-.985 4.09zm16.477 4.195l3.703-10.664h1.512l-5.414 14.836-.282.656c-.695 1.54-1.769 2.309-3.222 2.309-.336 0-.696-.055-1.078-.164l-.012-1.16.726.07c.688 0 1.243-.172 1.664-.516.43-.336.793-.918 1.09-1.746l.621-1.71-4.781-12.575h1.535l3.938 10.664zM758.146 67.552c0-1.985.438-3.555 1.313-4.711.883-1.164 2.078-1.746 3.586-1.746 1.726 0 3.039.687 3.937 2.062l.07-1.828h1.313v12.422c0 1.633-.457 2.926-1.371 3.879-.914.953-2.152 1.43-3.715 1.43-.883 0-1.727-.2-2.531-.598-.797-.39-1.426-.914-1.887-1.57l.785-.844c.992 1.219 2.172 1.828 3.539 1.828 1.172 0 2.086-.348 2.742-1.043.657-.688.997-1.644 1.02-2.871v-1.594c-.898 1.25-2.207 1.875-3.926 1.875-1.469 0-2.648-.586-3.539-1.758-.89-1.171-1.336-2.754-1.336-4.746v-.187zm1.418.246c0 1.617.324 2.894.973 3.832.648.93 1.562 1.394 2.742 1.394 1.727 0 2.949-.773 3.668-2.32V64.81c-.328-.813-.801-1.43-1.418-1.852-.617-.43-1.359-.645-2.227-.645-1.179 0-2.097.465-2.753 1.395-.657.922-.985 2.285-.985 4.09zm17.367 6.445c-1.078 0-2.054-.265-2.929-.797-.867-.531-1.543-1.27-2.028-2.215-.484-.953-.726-2.02-.726-3.199v-.504c0-1.218.234-2.316.703-3.293.476-.976 1.137-1.742 1.98-2.297a4.85 4.85 0 0 1 2.743-.843c1.539 0 2.757.527 3.656 1.582.906 1.047 1.359 2.48 1.359 4.3v.786h-9.047v.27c0 1.437.41 2.636 1.231 3.597.828.953 1.867 1.43 3.117 1.43.75 0 1.41-.137 1.98-.41.579-.274 1.102-.712 1.571-1.313l.879.668c-1.032 1.492-2.528 2.238-4.489 2.238zm-.257-11.953c-1.055 0-1.946.387-2.672 1.16-.719.774-1.157 1.813-1.313 3.117h7.606v-.152c-.039-1.219-.387-2.21-1.043-2.977-.657-.765-1.516-1.148-2.578-1.148zm9.082-.96l.046 2.167c.477-.781 1.071-1.375 1.782-1.781a4.595 4.595 0 0 1 2.355-.621c1.36 0 2.371.383 3.035 1.148.664.766 1 1.914 1.008 3.446v8.32h-1.394v-8.332c-.008-1.133-.25-1.977-.727-2.532-.469-.554-1.223-.832-2.262-.832-.867 0-1.636.274-2.308.82-.664.54-1.156 1.27-1.477 2.192v8.684h-1.394v-12.68h1.336zm16.769 12.913c-1.078 0-2.055-.265-2.93-.797-.867-.531-1.543-1.27-2.027-2.215-.484-.953-.726-2.02-.726-3.199v-.504c0-1.218.234-2.316.703-3.293.476-.976 1.136-1.742 1.98-2.297a4.848 4.848 0 0 1 2.742-.843c1.539 0 2.758.527 3.657 1.582.906 1.047 1.359 2.48 1.359 4.3v.786h-9.047v.27c0 1.437.41 2.636 1.231 3.597.828.953 1.867 1.43 3.117 1.43.75 0 1.41-.137 1.98-.41.578-.274 1.102-.712 1.571-1.313l.878.668c-1.031 1.492-2.527 2.238-4.488 2.238zm-.258-11.953c-1.054 0-1.945.387-2.672 1.16-.718.774-1.156 1.813-1.312 3.117h7.605v-.152c-.039-1.219-.386-2.21-1.043-2.977-.656-.765-1.515-1.148-2.578-1.148zm13.606.234a5.235 5.235 0 0 0-.949-.082c-.875 0-1.618.246-2.227.739-.602.484-1.031 1.191-1.289 2.12v8.708h-1.395v-12.68h1.372l.023 2.016c.742-1.5 1.934-2.25 3.574-2.25.391 0 .699.05.926.152l-.035 1.277zm9.762 11.485c-.141-.399-.231-.989-.27-1.77a4.927 4.927 0 0 1-1.887 1.489 5.774 5.774 0 0 1-2.414.515c-1.219 0-2.207-.34-2.965-1.02-.75-.68-1.125-1.538-1.125-2.578 0-1.234.512-2.21 1.536-2.93 1.031-.718 2.464-1.077 4.3-1.077h2.543v-1.442c0-.906-.281-1.617-.843-2.133-.555-.523-1.368-.785-2.438-.785-.977 0-1.785.25-2.426.75-.64.5-.961 1.102-.961 1.805l-1.406-.012c0-1.008.469-1.879 1.406-2.613.938-.742 2.09-1.113 3.457-1.113 1.414 0 2.528.355 3.34 1.066.82.703 1.242 1.688 1.266 2.953v6c0 1.227.129 2.145.387 2.754v.14h-1.5zM821.228 73c.938 0 1.774-.227 2.508-.68.742-.453 1.281-1.058 1.617-1.816v-2.79h-2.508c-1.398.016-2.492.274-3.281.774-.789.492-1.183 1.172-1.183 2.04 0 .71.261 1.3.785 1.769.531.469 1.219.703 2.062.703zm11.449-14.918v3.246h2.625v1.148h-2.625v8.45c0 .703.125 1.226.375 1.57.258.344.684.516 1.278.516.234 0 .613-.04 1.137-.118l.058 1.149c-.367.133-.867.2-1.5.2-.961 0-1.66-.278-2.098-.833-.437-.562-.656-1.387-.656-2.472v-8.461h-2.332v-1.149h2.332v-3.246h1.406zm7.102 15.926h-1.406v-12.68h1.406v12.68zm-1.652-16.348c0-.266.086-.488.258-.668.171-.187.406-.281.703-.281.297 0 .531.094.703.281a.91.91 0 0 1 .269.668.91.91 0 0 1-.269.668c-.172.18-.406.27-.703.27-.297 0-.532-.09-.703-.27a.928.928 0 0 1-.258-.668zm4.699 9.82c0-1.218.234-2.316.703-3.292.477-.977 1.145-1.735 2.004-2.274.867-.547 1.848-.82 2.941-.82 1.688 0 3.055.593 4.102 1.781 1.047 1.18 1.57 2.746 1.57 4.7v.292c0 1.227-.238 2.332-.715 3.317-.468.976-1.132 1.73-1.992 2.261-.859.532-1.84.797-2.941.797-1.68 0-3.047-.59-4.102-1.77-1.047-1.187-1.57-2.757-1.57-4.71v-.282zm1.406.387c0 1.516.391 2.762 1.172 3.738.789.97 1.82 1.454 3.094 1.454 1.265 0 2.289-.485 3.07-1.454.789-.976 1.184-2.261 1.184-3.855v-.27c0-.968-.18-1.855-.539-2.66-.36-.804-.864-1.425-1.512-1.863-.649-.445-1.391-.668-2.227-.668-1.25 0-2.269.492-3.058 1.477-.789.976-1.184 2.257-1.184 3.843v.258zm14.156-6.539l.047 2.168c.477-.781 1.071-1.375 1.782-1.781a4.593 4.593 0 0 1 2.355-.621c1.359 0 2.371.383 3.035 1.148.664.766 1 1.914 1.008 3.446v8.32h-1.395v-8.332c-.007-1.133-.25-1.977-.726-2.532-.469-.554-1.223-.832-2.262-.832-.867 0-1.637.274-2.308.82-.664.54-1.157 1.27-1.477 2.192v8.684h-1.395v-12.68h1.336zm57.839 149.657h-7.957v7.969h-1.442v-17.062h10.57v1.23h-9.128v6.633h7.957v1.23zm11.378 7.969c-.14-.398-.23-.988-.269-1.769a4.937 4.937 0 0 1-1.887 1.488 5.77 5.77 0 0 1-2.414.515c-1.219 0-2.207-.339-2.965-1.019-.75-.68-1.125-1.539-1.125-2.578 0-1.235.512-2.211 1.535-2.93 1.032-.719 2.465-1.078 4.301-1.078h2.543v-1.441c0-.907-.281-1.618-.844-2.133-.554-.524-1.367-.785-2.437-.785-.977 0-1.785.25-2.426.75-.64.5-.961 1.101-.961 1.804l-1.406-.011c0-1.008.469-1.879 1.406-2.614.938-.742 2.09-1.113 3.457-1.113 1.414 0 2.528.356 3.34 1.066.82.704 1.242 1.688 1.266 2.954v6c0 1.226.129 2.144.386 2.753v.141h-1.5zm-4.406-1.008c.938 0 1.774-.226 2.508-.679.742-.454 1.281-1.059 1.617-1.817v-2.789h-2.508c-1.398.016-2.492.274-3.281.774-.789.492-1.183 1.171-1.183 2.039 0 .711.261 1.3.785 1.769.531.469 1.218.703 2.062.703zm13.957.059c.977 0 1.793-.274 2.449-.82.665-.555 1.024-1.27 1.079-2.145h1.347a4.002 4.002 0 0 1-.726 2.121 4.558 4.558 0 0 1-1.782 1.488 5.302 5.302 0 0 1-2.367.539c-1.664 0-2.984-.578-3.961-1.734-.968-1.156-1.453-2.711-1.453-4.664v-.422c0-1.25.219-2.355.656-3.316.438-.961 1.063-1.703 1.875-2.227.821-.523 1.778-.785 2.872-.785 1.39 0 2.535.414 3.433 1.242.906.828 1.391 1.918 1.453 3.27h-1.347c-.063-.992-.422-1.793-1.079-2.403-.648-.609-1.468-.914-2.46-.914-1.266 0-2.25.457-2.954 1.371-.695.915-1.043 2.196-1.043 3.844v.41c0 1.618.348 2.879 1.043 3.786.704.906 1.692 1.359 2.965 1.359zm9.258.949h-1.406v-12.68h1.406v12.68zm-1.652-16.348a.93.93 0 0 1 .258-.668c.171-.187.406-.281.703-.281.297 0 .531.094.703.281a.91.91 0 0 1 .269.668c0 .266-.09.489-.269.668-.172.18-.406.27-.703.27-.297 0-.532-.09-.703-.27a.927.927 0 0 1-.258-.668zm7.043 16.348h-1.407v-18h1.407v18zm5.39 0h-1.406v-12.68h1.406v12.68zm-1.652-16.348a.93.93 0 0 1 .258-.668c.172-.187.406-.281.703-.281.297 0 .531.094.703.281.18.18.27.403.27.668 0 .266-.09.489-.27.668-.172.18-.406.27-.703.27-.297 0-.531-.09-.703-.27a.927.927 0 0 1-.258-.668zm7.652.422v3.246h2.625v1.149h-2.625v8.449c0 .703.125 1.227.375 1.57.258.344.684.516 1.278.516.234 0 .613-.039 1.136-.117l.059 1.148c-.367.133-.867.199-1.5.199-.961 0-1.66-.277-2.098-.832-.437-.562-.656-1.386-.656-2.472v-8.461h-2.332v-1.149h2.332v-3.246h1.406zm9.551 13.91l3.703-10.664h1.512l-5.414 14.836-.281.657c-.696 1.539-1.77 2.308-3.223 2.308a3.91 3.91 0 0 1-1.078-.164l-.012-1.16.727.07c.687 0 1.242-.172 1.664-.515.429-.336.793-.918 1.09-1.746l.621-1.711-4.782-12.575h1.536l3.937 10.664zm14.508-10.664l.047 2.063c.469-.766 1.054-1.34 1.758-1.723.703-.383 1.484-.574 2.343-.574 2 0 3.27.82 3.809 2.461a4.715 4.715 0 0 1 1.816-1.816 4.994 4.994 0 0 1 2.508-.645c2.715 0 4.105 1.484 4.165 4.453v8.461h-1.41v-8.355c-.01-1.133-.25-1.973-.74-2.52-.48-.547-1.26-.82-2.343-.82-1.008.015-1.859.344-2.555.984-.695.633-1.082 1.406-1.16 2.32v8.391h-1.406v-8.461c-.008-1.086-.266-1.894-.774-2.426-.5-.539-1.273-.808-2.32-.808-.883 0-1.64.254-2.273.762-.633.5-1.102 1.246-1.407 2.238v8.695h-1.406v-12.68h1.348zm28.006 12.68c-.14-.398-.23-.988-.27-1.769a4.944 4.944 0 0 1-1.88 1.488c-.76.344-1.57.515-2.42.515-1.22 0-2.21-.339-2.96-1.019-.75-.68-1.13-1.539-1.13-2.578 0-1.235.51-2.211 1.54-2.93 1.03-.719 2.46-1.078 4.3-1.078h2.54v-1.441c0-.907-.28-1.618-.84-2.133-.56-.524-1.37-.785-2.44-.785-.98 0-1.79.25-2.43.75-.64.5-.96 1.101-.96 1.804l-1.4-.011c0-1.008.47-1.879 1.4-2.614.94-.742 2.09-1.113 3.46-1.113 1.41 0 2.53.356 3.34 1.066.82.704 1.24 1.688 1.27 2.954v6c0 1.226.12 2.144.38 2.753v.141h-1.5zm-4.4-1.008c.93 0 1.77-.226 2.5-.679a3.98 3.98 0 0 0 1.62-1.817v-2.789h-2.51c-1.4.016-2.49.274-3.28.774-.79.492-1.18 1.171-1.18 2.039 0 .711.26 1.3.78 1.769.53.469 1.22.703 2.07.703zm10.84 1.008h-1.41v-12.68h1.41v12.68zm-1.66-16.348a.94.94 0 0 1 .26-.668c.17-.187.41-.281.7-.281.3 0 .54.094.71.281.18.18.27.403.27.668 0 .266-.09.489-.27.668-.17.18-.41.27-.71.27-.29 0-.53-.09-.7-.27a.937.937 0 0 1-.26-.668zm6.81 3.668l.05 2.168c.48-.781 1.07-1.375 1.78-1.781.71-.414 1.5-.621 2.36-.621 1.35 0 2.37.383 3.03 1.148.66.766 1 1.915 1.01 3.446v8.32h-1.4v-8.332c0-1.133-.25-1.976-.72-2.531-.47-.555-1.23-.832-2.26-.832-.87 0-1.64.273-2.31.82-.67.539-1.16 1.27-1.48 2.192v8.683h-1.39v-12.68h1.33zm14.04-3.246v3.246h2.63v1.149h-2.63v8.449c0 .703.13 1.227.38 1.57.25.344.68.516 1.27.516.24 0 .62-.039 1.14-.117l.06 1.148c-.37.133-.87.199-1.5.199-.96 0-1.66-.277-2.1-.832-.44-.562-.66-1.386-.66-2.472v-8.461h-2.33v-1.149h2.33v-3.246h1.41zm10.44 16.16c-1.08 0-2.05-.265-2.93-.796a5.462 5.462 0 0 1-2.02-2.215c-.49-.953-.73-2.02-.73-3.199v-.504c0-1.219.23-2.317.7-3.293.48-.977 1.14-1.743 1.98-2.297.85-.563 1.76-.844 2.74-.844 1.54 0 2.76.527 3.66 1.582.91 1.047 1.36 2.481 1.36 4.301v.785h-9.05v.27c0 1.437.41 2.636 1.23 3.597.83.953 1.87 1.43 3.12 1.43.75 0 1.41-.137 1.98-.41.58-.274 1.1-.711 1.57-1.313l.88.668c-1.03 1.492-2.53 2.238-4.49 2.238zm-.26-11.953c-1.05 0-1.94.387-2.67 1.161-.72.773-1.15 1.812-1.31 3.117h7.61v-.153c-.04-1.218-.39-2.211-1.05-2.976-.65-.766-1.51-1.149-2.58-1.149zm9.09-.961l.04 2.168c.48-.781 1.07-1.375 1.78-1.781.72-.414 1.5-.621 2.36-.621 1.36 0 2.37.383 3.04 1.148.66.766 1 1.915 1 3.446v8.32h-1.39v-8.332c-.01-1.133-.25-1.976-.73-2.531-.47-.555-1.22-.832-2.26-.832-.87 0-1.64.273-2.31.82-.66.539-1.15 1.27-1.48 2.192v8.683h-1.39v-12.68h1.34zm19.86 12.68c-.14-.398-.23-.988-.27-1.769a4.902 4.902 0 0 1-1.89 1.488c-.75.344-1.56.515-2.41.515-1.22 0-2.21-.339-2.97-1.019-.75-.68-1.12-1.539-1.12-2.578 0-1.235.51-2.211 1.53-2.93 1.04-.719 2.47-1.078 4.31-1.078h2.54v-1.441c0-.907-.28-1.618-.85-2.133-.55-.524-1.36-.785-2.43-.785-.98 0-1.79.25-2.43.75-.64.5-.96 1.101-.96 1.804l-1.41-.011c0-1.008.47-1.879 1.41-2.614.94-.742 2.09-1.113 3.46-1.113 1.41 0 2.52.356 3.34 1.066.82.704 1.24 1.688 1.26 2.954v6c0 1.226.13 2.144.39 2.753v.141h-1.5zm-4.41-1.008c.94 0 1.78-.226 2.51-.679.74-.454 1.28-1.059 1.62-1.817v-2.789h-2.51c-1.4.016-2.49.274-3.28.774-.79.492-1.18 1.171-1.18 2.039 0 .711.26 1.3.78 1.769.53.469 1.22.703 2.06.703zm10.61-11.672l.05 2.168c.47-.781 1.07-1.375 1.78-1.781a4.572 4.572 0 0 1 2.35-.621c1.36 0 2.37.383 3.04 1.148.66.766 1 1.915 1.01 3.446v8.32h-1.4v-8.332c-.01-1.133-.25-1.976-.73-2.531-.46-.555-1.22-.832-2.26-.832-.86 0-1.63.273-2.31.82-.66.539-1.15 1.27-1.47 2.192v8.683h-1.4v-12.68h1.34zm16.55 11.731c.97 0 1.79-.274 2.44-.82.67-.555 1.03-1.27 1.08-2.145h1.35a3.972 3.972 0 0 1-.73 2.121c-.44.633-1.03 1.129-1.78 1.488-.73.36-1.52.539-2.36.539-1.67 0-2.99-.578-3.97-1.734-.96-1.156-1.45-2.711-1.45-4.664v-.422c0-1.25.22-2.355.66-3.316.44-.961 1.06-1.703 1.87-2.227.82-.523 1.78-.785 2.87-.785 1.39 0 2.54.414 3.44 1.242.9.828 1.39 1.918 1.45 3.27h-1.35c-.06-.992-.42-1.793-1.08-2.403-.64-.609-1.46-.914-2.46-.914-1.26 0-2.25.457-2.95 1.371-.69.915-1.04 2.196-1.04 3.844v.41c0 1.618.35 2.879 1.04 3.786.7.906 1.69 1.359 2.97 1.359zm12.59 1.183c-1.07 0-2.05-.265-2.93-.796a5.462 5.462 0 0 1-2.02-2.215c-.49-.953-.73-2.02-.73-3.199v-.504c0-1.219.23-2.317.7-3.293.48-.977 1.14-1.743 1.98-2.297.85-.563 1.76-.844 2.75-.844 1.53 0 2.75.527 3.65 1.582.91 1.047 1.36 2.481 1.36 4.301v.785h-9.05v.27c0 1.437.41 2.636 1.23 3.597.83.953 1.87 1.43 3.12 1.43.75 0 1.41-.137 1.98-.41.58-.274 1.1-.711 1.57-1.313l.88.668c-1.03 1.492-2.53 2.238-4.49 2.238zm-.25-11.953c-1.06 0-1.95.387-2.68 1.161-.72.773-1.15 1.812-1.31 3.117h7.61v-.153c-.04-1.218-.39-2.211-1.05-2.976-.65-.766-1.51-1.149-2.57-1.149zm-203.7 46.953c-1.078 0-2.055-.265-2.93-.796-.867-.532-1.542-1.27-2.027-2.215-.484-.953-.726-2.02-.726-3.199v-.504c0-1.219.234-2.317.703-3.293.476-.977 1.136-1.743 1.98-2.297a4.845 4.845 0 0 1 2.742-.844c1.539 0 2.758.527 3.657 1.582.906 1.047 1.359 2.481 1.359 4.301v.785h-9.047v.27c0 1.437.41 2.636 1.231 3.597.828.953 1.867 1.43 3.117 1.43.75 0 1.41-.137 1.98-.41.578-.274 1.102-.711 1.571-1.313l.878.668c-1.031 1.492-2.527 2.238-4.488 2.238zm-.258-11.953c-1.054 0-1.945.387-2.672 1.161-.718.773-1.156 1.812-1.312 3.117h7.605v-.153c-.039-1.218-.386-2.211-1.043-2.976-.656-.766-1.515-1.149-2.578-1.149zm8.754 11.719v-11.531h-2.097v-1.149h2.097v-1.535c0-1.297.328-2.293.985-2.988.664-.695 1.586-1.043 2.765-1.043a5.35 5.35 0 0 1 1.489.199l-.106 1.172a5.454 5.454 0 0 0-1.277-.141c-.774 0-1.375.243-1.805.727-.43.477-.645 1.156-.645 2.039v1.57h5.403v-1.3c0-1.352.367-2.399 1.101-3.141.735-.75 1.77-1.125 3.106-1.125 1.047 0 2.125.23 3.234.691l-.234 1.207c-.977-.414-1.949-.621-2.918-.621-1.93 0-2.895 1.012-2.895 3.036v1.253h2.977v1.149h-2.977v11.531h-1.394v-11.531h-5.403v11.531h-1.406zm15.012 0h-1.406v-12.68h1.406v12.68zm8.543-.949c.977 0 1.793-.274 2.449-.82.664-.555 1.024-1.27 1.078-2.145h1.348a3.994 3.994 0 0 1-.727 2.121 4.555 4.555 0 0 1-1.781 1.488 5.302 5.302 0 0 1-2.367.539c-1.664 0-2.984-.578-3.961-1.734-.969-1.156-1.453-2.711-1.453-4.664v-.422c0-1.25.219-2.355.656-3.316.438-.961 1.063-1.703 1.875-2.227.82-.523 1.777-.785 2.871-.785 1.391 0 2.535.414 3.434 1.242.906.828 1.39 1.918 1.453 3.27h-1.348c-.062-.992-.422-1.793-1.078-2.403-.648-.609-1.469-.914-2.461-.914-1.265 0-2.25.457-2.953 1.371-.695.915-1.043 2.196-1.043 3.844v.41c0 1.618.348 2.879 1.043 3.786.703.906 1.692 1.359 2.965 1.359zm9.258.949h-1.407v-12.68h1.407v12.68zm-1.653-16.348a.93.93 0 0 1 .258-.668c.172-.187.406-.281.703-.281.297 0 .532.094.703.281.18.18.27.403.27.668 0 .266-.09.489-.27.668-.171.18-.406.27-.703.27-.297 0-.531-.09-.703-.27a.927.927 0 0 1-.258-.668zm10.383 16.582c-1.078 0-2.054-.265-2.929-.796-.868-.532-1.543-1.27-2.028-2.215-.484-.953-.726-2.02-.726-3.199v-.504c0-1.219.234-2.317.703-3.293.476-.977 1.136-1.743 1.98-2.297a4.845 4.845 0 0 1 2.742-.844c1.539 0 2.758.527 3.657 1.582.906 1.047 1.359 2.481 1.359 4.301v.785h-9.047v.27c0 1.437.41 2.636 1.231 3.597.828.953 1.867 1.43 3.117 1.43.75 0 1.41-.137 1.98-.41.578-.274 1.102-.711 1.571-1.313l.879.668c-1.032 1.492-2.528 2.238-4.489 2.238zm-.258-11.953c-1.054 0-1.945.387-2.671 1.161-.719.773-1.157 1.812-1.313 3.117h7.605v-.153c-.039-1.218-.386-2.211-1.042-2.976-.657-.766-1.516-1.149-2.579-1.149zm9.082-.961l.047 2.168c.477-.781 1.071-1.375 1.782-1.781a4.593 4.593 0 0 1 2.355-.621c1.359 0 2.371.383 3.035 1.148.664.766 1 1.915 1.008 3.446v8.32h-1.395v-8.332c-.007-1.133-.25-1.976-.726-2.531-.469-.555-1.223-.832-2.262-.832a3.55 3.55 0 0 0-2.308.82c-.664.539-1.157 1.27-1.477 2.192v8.683h-1.394v-12.68h1.335zm16.547 11.731c.977 0 1.793-.274 2.45-.82.664-.555 1.023-1.27 1.078-2.145h1.347a4.002 4.002 0 0 1-.726 2.121 4.562 4.562 0 0 1-1.781 1.488 5.31 5.31 0 0 1-2.368.539c-1.664 0-2.984-.578-3.961-1.734-.968-1.156-1.453-2.711-1.453-4.664v-.422c0-1.25.219-2.355.656-3.316.438-.961 1.063-1.703 1.876-2.227.82-.523 1.777-.785 2.871-.785 1.39 0 2.535.414 3.433 1.242.906.828 1.391 1.918 1.453 3.27h-1.347c-.063-.992-.422-1.793-1.078-2.403-.649-.609-1.469-.914-2.461-.914-1.266 0-2.25.457-2.954 1.371-.695.915-1.043 2.196-1.043 3.844v.41c0 1.618.348 2.879 1.043 3.786.704.906 1.692 1.359 2.965 1.359zm11.707-1.067l3.703-10.664h1.51l-5.412 14.836-.281.657c-.695 1.539-1.77 2.308-3.223 2.308a3.91 3.91 0 0 1-1.078-.164l-.012-1.16.727.07c.687 0 1.242-.172 1.664-.515.43-.336.793-.918 1.09-1.746l.621-1.711-4.781-12.575h1.535l3.937 10.664zM161.328 387.727c0-.946-.332-1.692-.996-2.239-.664-.554-1.879-1.078-3.645-1.57-1.765-.5-3.054-1.043-3.867-1.629-1.156-.828-1.734-1.914-1.734-3.258 0-1.304.535-2.363 1.605-3.176 1.078-.82 2.453-1.23 4.125-1.23 1.133 0 2.145.219 3.035.656.899.438 1.594 1.047 2.086 1.828.492.782.739 1.653.739 2.614h-1.454c0-1.164-.398-2.098-1.195-2.801-.797-.711-1.867-1.067-3.211-1.067-1.305 0-2.344.293-3.117.879-.773.578-1.16 1.336-1.16 2.274 0 .867.347 1.574 1.043 2.121.695.547 1.808 1.031 3.34 1.453 1.531.414 2.691.848 3.48 1.301.789.445 1.383.98 1.781 1.605.399.625.598 1.364.598 2.215 0 1.344-.539 2.422-1.617 3.235-1.07.812-2.485 1.218-4.242 1.218-1.203 0-2.309-.215-3.317-.644-1-.43-1.761-1.032-2.285-1.805-.516-.773-.773-1.66-.773-2.66h1.441c0 1.203.449 2.152 1.348 2.848.898.695 2.093 1.043 3.586 1.043 1.328 0 2.394-.293 3.199-.879.805-.586 1.207-1.364 1.207-2.332zm12.398 2.589c-.843 1.227-2.191 1.84-4.043 1.84-1.351 0-2.379-.39-3.082-1.172-.703-.789-1.062-1.953-1.078-3.492v-8.25h1.395v8.074c0 2.414.976 3.622 2.929 3.622 2.032 0 3.317-.84 3.856-2.52v-9.176h1.406v12.68h-1.359l-.024-1.606zm12.633-1.617c0-.695-.281-1.254-.844-1.676-.554-.421-1.394-.75-2.519-.984-1.125-.242-2-.516-2.625-.82-.617-.313-1.078-.692-1.383-1.137-.297-.445-.445-.984-.445-1.617 0-1 .418-1.824 1.254-2.473.836-.656 1.906-.984 3.211-.984 1.414 0 2.546.351 3.398 1.054.859.696 1.289 1.606 1.289 2.731h-1.406c0-.742-.313-1.359-.938-1.852-.617-.492-1.398-.738-2.343-.738-.922 0-1.664.207-2.227.621-.555.406-.832.938-.832 1.594 0 .633.23 1.125.691 1.477.469.343 1.317.66 2.543.949 1.235.289 2.157.597 2.766.926.617.328 1.074.722 1.371 1.183.297.461.445 1.02.445 1.676 0 1.07-.433 1.926-1.3 2.566-.86.641-1.985.961-3.375.961-1.477 0-2.676-.355-3.598-1.066-.914-.719-1.371-1.625-1.371-2.719h1.406c.055.82.399 1.461 1.031 1.922.641.453 1.485.68 2.532.68.976 0 1.765-.215 2.367-.645.601-.43.902-.973.902-1.629zm6.75-12.703v3.246h2.625v1.149h-2.625v8.449c0 .703.125 1.226.375 1.57.258.344.684.516 1.277.516.235 0 .614-.039 1.137-.117l.059 1.148c-.367.133-.867.199-1.5.199-.961 0-1.66-.277-2.098-.832-.437-.562-.656-1.386-.656-2.472v-8.461h-2.332v-1.149h2.332v-3.246h1.406zm13.535 15.926c-.14-.399-.23-.988-.269-1.77a4.93 4.93 0 0 1-1.887 1.489 5.786 5.786 0 0 1-2.414.515c-1.219 0-2.207-.34-2.965-1.019-.75-.68-1.125-1.539-1.125-2.578 0-1.235.512-2.211 1.535-2.93 1.032-.719 2.465-1.078 4.301-1.078h2.543v-1.442c0-.906-.281-1.617-.844-2.132-.554-.524-1.367-.786-2.437-.786-.977 0-1.785.25-2.426.75-.641.5-.961 1.102-.961 1.805l-1.406-.012c0-1.007.469-1.879 1.406-2.613.938-.742 2.09-1.113 3.457-1.113 1.414 0 2.527.355 3.34 1.066.82.703 1.242 1.688 1.266 2.953v6c0 1.227.128 2.145.386 2.754v.141h-1.5zm-4.406-1.008c.938 0 1.773-.226 2.508-.68.742-.453 1.281-1.058 1.617-1.816v-2.789h-2.508c-1.398.016-2.492.273-3.281.773-.789.493-1.184 1.172-1.184 2.039 0 .711.262 1.301.786 1.77.531.469 1.218.703 2.062.703zm10.84 1.008h-1.406v-12.68h1.406v12.68zm-1.652-16.348a.93.93 0 0 1 .257-.668c.172-.187.407-.281.703-.281.297 0 .532.094.704.281a.91.91 0 0 1 .269.668.91.91 0 0 1-.269.668c-.172.18-.407.27-.704.27-.296 0-.531-.09-.703-.27a.928.928 0 0 1-.257-.668zm6.808 3.668l.047 2.168c.477-.781 1.07-1.375 1.781-1.781a4.596 4.596 0 0 1 2.356-.621c1.359 0 2.371.383 3.035 1.148.664.766 1 1.914 1.008 3.446v8.32h-1.395v-8.332c-.008-1.133-.25-1.977-.726-2.531-.469-.555-1.223-.832-2.262-.832-.867 0-1.637.273-2.309.82-.664.539-1.156 1.269-1.476 2.191v8.684h-1.395v-12.68h1.336zm19.863 12.68c-.14-.399-.23-.988-.269-1.77a4.93 4.93 0 0 1-1.887 1.489 5.786 5.786 0 0 1-2.414.515c-1.219 0-2.207-.34-2.965-1.019-.75-.68-1.125-1.539-1.125-2.578 0-1.235.512-2.211 1.535-2.93 1.032-.719 2.465-1.078 4.301-1.078h2.543v-1.442c0-.906-.281-1.617-.844-2.132-.554-.524-1.367-.786-2.437-.786-.977 0-1.785.25-2.426.75-.64.5-.961 1.102-.961 1.805l-1.406-.012c0-1.007.469-1.879 1.406-2.613.938-.742 2.09-1.113 3.457-1.113 1.414 0 2.528.355 3.34 1.066.82.703 1.242 1.688 1.266 2.953v6c0 1.227.129 2.145.386 2.754v.141h-1.5zm-4.406-1.008c.938 0 1.774-.226 2.508-.68.742-.453 1.281-1.058 1.617-1.816v-2.789h-2.508c-1.398.016-2.492.273-3.281.773-.789.493-1.183 1.172-1.183 2.039 0 .711.261 1.301.785 1.77.531.469 1.218.703 2.062.703zm19.477-5.203c0 1.977-.438 3.547-1.313 4.711-.875 1.156-2.051 1.734-3.527 1.734-1.766 0-3.102-.656-4.008-1.968l-.059 1.734h-1.312v-18h1.395v7.16c.89-1.383 2.21-2.074 3.96-2.074 1.5 0 2.684.574 3.551 1.722.875 1.141 1.313 2.731 1.313 4.77v.211zm-1.407-.246c0-1.672-.324-2.961-.972-3.867-.649-.914-1.563-1.371-2.742-1.371-.899 0-1.661.222-2.286.668-.625.437-1.097 1.082-1.417 1.933v5.719c.703 1.594 1.945 2.391 3.726 2.391 1.156 0 2.059-.458 2.707-1.372.656-.914.984-2.281.984-4.101zm6.083 6.457h-1.407v-12.68h1.407v12.68zm-1.653-16.348a.93.93 0 0 1 .258-.668c.172-.187.406-.281.703-.281.297 0 .531.094.703.281.18.18.27.403.27.668 0 .266-.09.488-.27.668-.172.18-.406.27-.703.27-.297 0-.531-.09-.703-.27a.928.928 0 0 1-.258-.668zm7.043 16.348h-1.406v-18h1.406v18zm5.391 0h-1.406v-12.68h1.406v12.68zm-1.653-16.348a.93.93 0 0 1 .258-.668c.172-.187.406-.281.703-.281.297 0 .532.094.703.281.18.18.27.403.27.668 0 .266-.09.488-.27.668-.171.18-.406.27-.703.27-.297 0-.531-.09-.703-.27a.928.928 0 0 1-.258-.668zm7.653.422v3.246h2.625v1.149h-2.625v8.449c0 .703.125 1.226.375 1.57.258.344.683.516 1.277.516.234 0 .613-.039 1.137-.117l.058 1.148c-.367.133-.867.199-1.5.199-.961 0-1.66-.277-2.097-.832-.438-.562-.656-1.386-.656-2.472v-8.461h-2.333v-1.149h2.333v-3.246h1.406zm9.551 13.91l3.703-10.664h1.511l-5.414 14.836-.281.656c-.695 1.539-1.769 2.309-3.223 2.309-.336 0-.695-.055-1.078-.164l-.011-1.16.726.07c.688 0 1.242-.172 1.664-.516.43-.335.793-.918 1.09-1.746l.621-1.711-4.781-12.574h1.535l3.938 10.664zm21.234 2.016c-.141-.399-.231-.988-.27-1.77a4.934 4.934 0 0 1-1.886 1.489 5.79 5.79 0 0 1-2.414.515c-1.219 0-2.207-.34-2.965-1.019-.75-.68-1.125-1.539-1.125-2.578 0-1.235.511-2.211 1.535-2.93 1.031-.719 2.465-1.078 4.301-1.078h2.543v-1.442c0-.906-.282-1.617-.844-2.132-.555-.524-1.367-.786-2.438-.786-.976 0-1.785.25-2.425.75-.641.5-.961 1.102-.961 1.805l-1.407-.012c0-1.007.469-1.879 1.407-2.613.937-.742 2.09-1.113 3.457-1.113 1.414 0 2.527.355 3.34 1.066.82.703 1.242 1.688 1.265 2.953v6c0 1.227.129 2.145.387 2.754v.141h-1.5zm-4.406-1.008c.937 0 1.773-.226 2.507-.68.743-.453 1.282-1.058 1.618-1.816v-2.789h-2.508c-1.399.016-2.492.273-3.281.773-.789.493-1.184 1.172-1.184 2.039 0 .711.262 1.301.785 1.77.531.469 1.219.703 2.063.703zm10.605-11.672l.047 2.168c.477-.781 1.07-1.375 1.781-1.781a4.596 4.596 0 0 1 2.356-.621c1.359 0 2.371.383 3.035 1.148.664.766 1 1.914 1.008 3.446v8.32h-1.395v-8.332c-.008-1.133-.25-1.977-.726-2.531-.469-.555-1.223-.832-2.262-.832-.867 0-1.637.273-2.309.82-.664.539-1.156 1.269-1.476 2.191v8.684h-1.395v-12.68h1.336zm11.297 6.223c0-1.969.438-3.535 1.313-4.699.882-1.172 2.078-1.758 3.585-1.758 1.711 0 3.016.676 3.915 2.027v-7.113h1.394v18h-1.312l-.059-1.688c-.898 1.282-2.219 1.922-3.961 1.922-1.461 0-2.641-.586-3.539-1.758-.891-1.179-1.336-2.769-1.336-4.769v-.164zm1.418.246c0 1.617.324 2.894.973 3.832.648.93 1.562 1.395 2.742 1.395 1.726 0 2.953-.762 3.68-2.286v-5.953c-.727-1.648-1.946-2.472-3.657-2.472-1.179 0-2.097.464-2.754 1.394-.656.922-.984 2.285-.984 4.09zm-169.945 38.293l.211 1.09.281-1.149 3.047-9.703h1.195l3.012 9.621.328 1.336.269-1.23 2.602-9.727h1.453l-3.691 12.68h-1.196l-3.257-10.055-.153-.691-.152.703-3.199 10.043h-1.196l-3.679-12.68h1.441l2.684 9.762zm19.968 3.152c-1.078 0-2.054-.265-2.929-.797-.867-.531-1.543-1.269-2.028-2.214-.484-.954-.726-2.02-.726-3.2v-.504c0-1.218.234-2.316.703-3.293.477-.976 1.137-1.742 1.98-2.296a4.845 4.845 0 0 1 2.743-.844c1.539 0 2.757.527 3.656 1.582.906 1.047 1.359 2.48 1.359 4.301v.785h-9.047v.269c0 1.438.411 2.637 1.231 3.598.828.953 1.867 1.43 3.117 1.43.75 0 1.41-.137 1.98-.411.579-.273 1.102-.71 1.571-1.312l.879.668c-1.032 1.492-2.528 2.238-4.489 2.238zm-.257-11.953c-1.055 0-1.946.387-2.672 1.16-.719.774-1.157 1.813-1.313 3.117h7.606v-.152c-.039-1.219-.387-2.211-1.043-2.976-.657-.766-1.516-1.149-2.578-1.149zm9.316 11.719H182v-18h1.406v18zm5.391 0h-1.407v-18h1.407v18zm5.156-12.68l.047 2.168c.476-.781 1.07-1.375 1.781-1.781a4.595 4.595 0 0 1 2.355-.621c1.36 0 2.372.383 3.036 1.148.664.766 1 1.914 1.007 3.446v8.32h-1.394v-8.332c-.008-1.133-.25-1.977-.727-2.531-.468-.555-1.222-.832-2.261-.832-.868 0-1.637.273-2.309.82-.664.539-1.156 1.269-1.477 2.191v8.684h-1.394v-12.68h1.336zm16.769 12.914c-1.078 0-2.054-.265-2.929-.797-.867-.531-1.543-1.269-2.028-2.214-.484-.954-.726-2.02-.726-3.2v-.504c0-1.218.234-2.316.703-3.293.477-.976 1.137-1.742 1.98-2.296a4.845 4.845 0 0 1 2.743-.844c1.539 0 2.757.527 3.656 1.582.906 1.047 1.359 2.48 1.359 4.301v.785h-9.047v.269c0 1.438.411 2.637 1.231 3.598.828.953 1.867 1.43 3.117 1.43.75 0 1.41-.137 1.98-.411.579-.273 1.102-.71 1.571-1.312l.879.668c-1.032 1.492-2.528 2.238-4.489 2.238zm-.257-11.953c-1.055 0-1.946.387-2.672 1.16-.719.774-1.157 1.813-1.313 3.117h7.606v-.152c-.039-1.219-.387-2.211-1.043-2.976-.657-.766-1.516-1.149-2.578-1.149zm15.339 8.496c0-.695-.281-1.254-.843-1.676-.555-.421-1.395-.75-2.52-.984-1.125-.242-2-.516-2.625-.82-.617-.313-1.078-.692-1.383-1.137-.297-.445-.445-.984-.445-1.617 0-1 .418-1.824 1.254-2.473.836-.656 1.906-.984 3.211-.984 1.414 0 2.547.351 3.398 1.054.86.696 1.289 1.606 1.289 2.731h-1.406c0-.742-.312-1.359-.937-1.852-.618-.492-1.399-.738-2.344-.738-.922 0-1.664.207-2.227.621-.554.406-.832.938-.832 1.594 0 .633.231 1.125.692 1.477.468.343 1.316.66 2.543.949 1.234.289 2.156.597 2.765.926.617.328 1.075.722 1.371 1.183.297.461.446 1.02.446 1.676 0 1.07-.434 1.926-1.301 2.566-.859.641-1.984.961-3.375.961-1.477 0-2.676-.355-3.598-1.066-.914-.719-1.371-1.625-1.371-2.719h1.406c.055.82.399 1.461 1.032 1.922.64.453 1.484.68 2.531.68.976 0 1.766-.215 2.367-.645.602-.43.902-.973.902-1.629zm12.165 0c0-.695-.282-1.254-.844-1.676-.555-.421-1.395-.75-2.52-.984-1.125-.242-2-.516-2.625-.82-.617-.313-1.078-.692-1.383-1.137-.296-.445-.445-.984-.445-1.617 0-1 .418-1.824 1.254-2.473.836-.656 1.906-.984 3.211-.984 1.414 0 2.547.351 3.398 1.054.86.696 1.289 1.606 1.289 2.731h-1.406c0-.742-.312-1.359-.937-1.852-.617-.492-1.399-.738-2.344-.738-.922 0-1.664.207-2.227.621-.554.406-.832.938-.832 1.594 0 .633.231 1.125.692 1.477.469.343 1.316.66 2.543.949 1.234.289 2.156.597 2.765.926.618.328 1.075.722 1.371 1.183.297.461.446 1.02.446 1.676 0 1.07-.434 1.926-1.301 2.566-.859.641-1.984.961-3.375.961-1.477 0-2.676-.355-3.598-1.066-.914-.719-1.371-1.625-1.371-2.719h1.406c.055.82.399 1.461 1.032 1.922.64.453 1.484.68 2.531.68.977 0 1.766-.215 2.367-.645.602-.43.903-.973.903-1.629z" fill="#002B67"/><circle cx="51.125" cy="51.155" r="50.614" stroke="#C96164" stroke-dasharray="5 5"/><circle cx="51.125" cy="398.836" r="50.614" stroke="#C96164" stroke-dasharray="5 5"/><circle cx="201.575" cy="224.996" r="50.614" stroke="#C96164" stroke-dasharray="5 5"/><circle cx="654.544" cy="51.155" r="50.614" stroke="#C96164" stroke-dasharray="5 5"/><circle cx="804.994" cy="224.996" r="50.614" stroke="#C96164" stroke-dasharray="5 5"/><path stroke="#C96164" stroke-dasharray="5 5" d="M82.259 91.136l83.508 97.302m-83.508 169.81l83.509-97.303M689.961 88.136l83.509 97.302M606.857 68.716L247.237 201.12"/><path stroke="#C96164" d="M34.485 34.704l3.085 3.085m28.195-3.085l-3.085 3.085m.364 25.573l3.085 3.086m-29.266-3.086l-3.085 3.085m-1.644-15.655h-4.628m45.237 0h-4.627M50.477 32.747v-4.362"/><path d="M50.977 63.715v-7.092m0 0s.466-4.118 2.242-5.745c1.84-1.685 6.165-1.681 6.165-1.681s-.087 4.931-2.242 6.586c-1.927 1.48-6.165.84-6.165.84zm0 4.819V56.57m0 0s-.32-2.828-1.54-3.946c-1.264-1.157-4.234-1.154-4.234-1.154s.06 3.387 1.54 4.523c1.323 1.016 4.234.577 4.234.577zm-6.689 5.41v4.34a6.689 6.689 0 0 0 6.689 6.689v0a6.689 6.689 0 0 0 6.689-6.689v-4.34" stroke="#002B67"/><circle cx="50.977" cy="51.051" r="12.756" stroke="#002B67"/><path stroke="#002B67" d="M57.666 66.995h-5.605m-1.936 0h-1.704"/><path d="M217.481 229.753l-9.387-9.771a.524.524 0 0 0-.659-.079l-5.207 3.304v-9.306a.525.525 0 1 0-1.049 0v9.393l-5.158-2.706 3.525-12.237h1.633v3.448a.525.525 0 1 0 1.049 0v-3.974a.526.526 0 0 0-.525-.526h-2.552a.525.525 0 0 0-.504.38l-3.753 13.029c-.069.24.04.496.261.612l5.46 2.865-1.681.972-.003.002-11.613 6.717a.527.527 0 0 0-.193.718l1.276 2.214a.526.526 0 0 0 .581.248l8.562-2.124-.394 2.604a12.291 12.291 0 0 1-2.74-1.541.524.524 0 0 0-.734.108.527.527 0 0 0 .108.736 13.307 13.307 0 0 0 3.204 1.763l-.831 5.485a.524.524 0 0 0 .519.604h10.055a.525.525 0 0 0 .518-.604l-.26-1.717a.523.523 0 1 0-1.037.158l.168 1.112h-8.834l.712-4.698c1.189.347 2.425.524 3.677.524a13.446 13.446 0 0 0 3.733-.529l.193 1.278a.525.525 0 1 0 1.038-.157l-.221-1.457a13.192 13.192 0 0 0 5.943-4.506.526.526 0 0 0-.109-.735.523.523 0 0 0-.734.109 12.16 12.16 0 0 1-5.261 4.067l-1.352-8.915 10.66 6.165a.518.518 0 0 0 .398.053.522.522 0 0 0 .318-.245l1.276-2.214a.526.526 0 0 0-.076-.627zm-29.184 2.771l12.918-7.472.239 5.828-12.341 3.06-.816-1.416zm16.952 3.364c-.572.173-1.161.305-1.762.393a12.17 12.17 0 0 1-5.33-.388l.49-3.234 3.475-.862a.525.525 0 0 0 .398-.532l-.253-6.169 1.475.852 1.507 9.94zm10.386-4.275l-12.918-7.471 4.918-3.122 8.816 9.177-.816 1.416z" fill="#002B67"/><path fill-rule="evenodd" clip-rule="evenodd" d="M208.094 219.983l9.387 9.77a.527.527 0 0 1 .076.628l-1.276 2.214a.53.53 0 0 1-.454.262.517.517 0 0 1-.262-.07l-11.823-6.838-1.475-.853.253 6.17a.526.526 0 0 1-.398.532l-3.475.862-9.665 2.396a.528.528 0 0 1-.581-.247l-1.276-2.214a.527.527 0 0 1 .193-.718l11.613-6.718.003-.001 1.681-.973-5.46-2.865a.526.526 0 0 1-.261-.611l3.753-13.029a.525.525 0 0 1 .504-.38h2.552c.29 0 .525.235.525.526v3.973a.526.526 0 0 1-1.049 0v-3.448h-1.633l-3.525 12.237 5.158 2.706v-9.392a.526.526 0 1 1 1.049 0v9.306l5.207-3.305a.525.525 0 0 1 .659.08zm-6.879 5.07l-12.918 7.471.816 1.417 12.341-3.061-.239-5.827zm1.502-.911l12.918 7.472.816-1.417-8.816-9.176-4.918 3.121z" fill="#C96164"/><path d="M203.438 212.034a12.22 12.22 0 0 1 5.558 2.296 12.221 12.221 0 0 1 4.91 10.641c-.019.29.2.54.49.559l.034.001a.526.526 0 0 0 .523-.492 13.27 13.27 0 0 0-5.331-11.553 13.276 13.276 0 0 0-6.036-2.493.525.525 0 0 0-.148 1.041zm-13.479 17.637a.525.525 0 0 0 .483-.73 12.342 12.342 0 0 1-.893-6.138 12.253 12.253 0 0 1 2.339-5.946 12.134 12.134 0 0 1 4.113-3.534.526.526 0 0 0-.489-.93 13.153 13.153 0 0 0-4.466 3.837 13.311 13.311 0 0 0-1.571 13.12.525.525 0 0 0 .484.321z" fill="#002B67"/><path d="M643.82 43.483v13.615c0 5.63 4.564 10.195 10.195 10.195v0c5.63 0 10.195-4.565 10.195-10.195v-4.89" stroke="#002B67"/><path d="M660.683 46.676v2.682a3.527 3.527 0 0 0 3.527 3.527v0a3.527 3.527 0 0 0 3.527-3.527v-2.682m-28.888-2.203v1.251a4.971 4.971 0 0 0 4.971 4.971v0a4.971 4.971 0 0 0 4.971-4.97v-1.252m11.273 1.703h8.3m-5.871-.537v-2.088m3.804 2.088v-2.088" stroke="#002B67"/><path d="M643.94 43.887l-.12.114a13.103 13.103 0 0 1-1.109-1.177 8.165 8.165 0 0 1-.968-1.421c-.26-.503-.411-.986-.411-1.42 0-.433.151-.916.411-1.42.258-.498.608-.986.968-1.42a13.12 13.12 0 0 1 1.109-1.177l.12.114c.27.261.63.63.989 1.063.359.434.709.922.967 1.42.26.504.411.987.411 1.42 0 .434-.151.917-.411 1.42-.258.5-.608.987-.967 1.421-.359.433-.719.802-.989 1.063zm4.847.146a13.735 13.735 0 0 1-.166-.004l-.004-.166c-.006-.376 0-.891.052-1.45a8.256 8.256 0 0 1 .321-1.69c.172-.54.407-.988.713-1.294.307-.306.755-.542 1.295-.713a8.193 8.193 0 0 1 1.689-.321 13.245 13.245 0 0 1 1.616-.048l.004.165c.007.376 0 .892-.052 1.45a8.188 8.188 0 0 1-.321 1.69c-.171.54-.407.988-.713 1.295-.306.306-.755.541-1.294.713a8.202 8.202 0 0 1-1.69.32c-.559.053-1.074.06-1.45.053zm-9.958 0l.165-.004a13.044 13.044 0 0 0-.048-1.616 8.187 8.187 0 0 0-.32-1.69c-.172-.54-.407-.988-.714-1.294-.306-.306-.754-.542-1.294-.713a8.193 8.193 0 0 0-1.689-.321 13.253 13.253 0 0 0-1.616-.048 13.044 13.044 0 0 0 .048 1.616 8.2 8.2 0 0 0 .32 1.69c.172.539.407.987.714 1.294.306.306.754.541 1.294.713.536.17 1.128.268 1.689.32.56.053 1.075.06 1.451.053zm176.54 171.931v-5.477m0 0s.36-3.182 1.732-4.438c1.421-1.302 4.762-1.299 4.762-1.299s-.067 3.81-1.732 5.087c-1.489 1.143-4.762.65-4.762.65zm0 3.721v-3.762m0 0s-.247-2.184-1.189-3.047c-.977-.894-3.271-.892-3.271-.892s.046 2.616 1.189 3.493c1.023.785 3.271.446 3.271.446z" stroke="#C96164"/><path d="M787.677 237.253v-14.444h2.791v-5.253l7.55-3.939v9.192h3.447v-5.253l7.222-3.939v9.192h3.283v-5.253l7.551-3.939v9.192h2.79v14.444h-34.634z" stroke="#002B67"/><circle cx="794.661" cy="230.448" r="2.051" stroke="#C96164"/><circle cx="804.994" cy="230.448" r="2.051" stroke="#C96164"/><circle cx="815.328" cy="230.448" r="2.051" stroke="#C96164"/><path d="M60.326 388.786a4.757 4.757 0 0 0-2.8-.921c-1.564 0-2.934.949-3.676 2.361-.741-1.412-2.111-2.361-3.676-2.361-1.741 0-3.356.974-4.32 2.606a.561.561 0 0 0 .218.778c.28.157.64.063.8-.211.752-1.273 1.986-2.033 3.302-2.033 1.704 0 3.09 1.632 3.09 3.638a.58.58 0 0 0 .586.571.58.58 0 0 0 .587-.571c0-2.006 1.386-3.638 3.09-3.638.743 0 1.469.241 2.099.696.26.188.627.136.82-.117a.56.56 0 0 0-.12-.798z" fill="#E15C66"/><path d="M61.39 406.825a.593.593 0 0 0-.767-.307l-5.127 2.08a4.779 4.779 0 0 1-3.25.121l-12.029-3.853a3.303 3.303 0 0 0-2.306.107l-.477.203a.564.564 0 0 0-.303.751c.13.289.476.42.773.294l.478-.204a2.103 2.103 0 0 1 1.468-.067l12.028 3.853a5.989 5.989 0 0 0 4.07-.153l5.127-2.079a.565.565 0 0 0 .316-.746z" fill="#002B67"/><path d="M69.01 401.418a.078.078 0 0 1-.005-.009l-.004-.01c-.528-1.19-1.858-1.833-3.133-1.566a2.192 2.192 0 0 0-.079-1.545 2.288 2.288 0 0 0-1.273-1.224l-.017-.006c-1.134-.438-2.436.056-2.965 1.125l-1.848 3.731-2.995 1.019c-.56.19-1.175.19-1.733 0l-.085-.029c3.772-2.044 7.836-5.521 7.836-9.208 0-1.286-.363-2.503-1.05-3.521a.597.597 0 0 0-.813-.164.561.561 0 0 0-.168.79c.56.831.857 1.832.857 2.895 0 3.128-3.816 6.464-7.685 8.45a23.358 23.358 0 0 1-2.998-1.839 18.285 18.285 0 0 1-2.128-1.789l5.977 1.987c1.183.394 2.502-.17 3.001-1.284a2.298 2.298 0 0 0 .004-1.873 2.366 2.366 0 0 0-1.355-1.264l-10.608-3.956a6.408 6.408 0 0 0-.262-.093c-2.08-.695-4.454-.378-6.346.848l-5.644 3.655a.56.56 0 0 0-.163.791c.18.262.544.333.814.158l5.643-3.655c1.59-1.03 3.577-1.299 5.316-.718.084.028.151.052.216.077l10.615 3.958c.315.117.563.348.697.651.138.312.138.654-.002.964-.257.574-.936.865-1.546.662l-6.734-2.239a2.341 2.341 0 0 0-1.644.062 2.228 2.228 0 0 0-1.306 1.472c-.303 1.114.337 2.285 1.457 2.667l7.717 2.622a3.924 3.924 0 0 0 2.506 0l8.848-3.01c.79-.269 1.667.105 2 .856l.004.007c.166.383.17.807.007 1.192-.162.387-.47.688-.866.849l-4.725 1.916a.565.565 0 0 0-.315.746.587.587 0 0 0 .541.351.619.619 0 0 0 .226-.044l4.725-1.916a2.722 2.722 0 0 0 1.5-1.47 2.61 2.61 0 0 0-.013-2.069zm-21.769-1.107a1.082 1.082 0 0 1-.71-1.298c.073-.267.245-.491.482-.636.825.978 1.878 1.933 3.138 2.845l.212.15-3.122-1.061zm17.47-.715l-.3.711-3.159 1.074 1.34-2.703c.263-.532.91-.778 1.473-.56l.01.003c.287.114.512.33.632.608.121.279.122.587.004.867z" fill="#002B67"/><path fill-rule="evenodd" clip-rule="evenodd" d="M47.013 398.377c.825.978 1.878 1.933 3.138 2.845.024.017.989.542 1.926 1.052.887.482 1.75.951 1.773.968l1.023-.338c3.772-2.044 7.836-5.521 7.836-9.208 0-1.286-.363-2.503-1.05-3.521a.597.597 0 0 0-.813-.164.561.561 0 0 0-.168.79c.56.831.857 1.832.857 2.895 0 3.128-3.816 6.464-7.685 8.45a23.357 23.357 0 0 1-2.998-1.839 18.285 18.285 0 0 1-2.128-1.789c-.538-.179-1.188-.36-1.711-.141z" fill="#C96164"/></svg>