<svg width="857" height="450" fill="none" xmlns="http://www.w3.org/2000/svg"><circle cx="51.125" cy="51.155" r="50.614" stroke="#C96164" stroke-dasharray="5 5"/><circle cx="51.125" cy="398.836" r="50.614" stroke="#C96164" stroke-dasharray="5 5"/><circle cx="201.575" cy="224.996" r="50.614" stroke="#C96164" stroke-dasharray="5 5"/><circle cx="654.544" cy="51.155" r="50.614" stroke="#C96164" stroke-dasharray="5 5"/><circle cx="804.994" cy="224.996" r="50.614" stroke="#C96164" stroke-dasharray="5 5"/><path stroke="#C96164" stroke-dasharray="5 5" d="M82.259 91.136l83.508 97.302m-83.508 169.81l83.509-97.303M689.961 88.136l83.509 97.302M606.857 68.716L247.237 201.12"/><path stroke="#C96164" d="M34.485 34.704l3.085 3.085m28.195-3.085l-3.085 3.085m.364 25.573l3.085 3.086m-29.266-3.086l-3.085 3.085m-1.644-15.655h-4.628m45.237 0h-4.627M50.477 32.747v-4.362"/><path d="M50.977 63.715v-7.092m0 0s.466-4.118 2.242-5.745c1.84-1.685 6.165-1.681 6.165-1.681s-.087 4.931-2.242 6.586c-1.927 1.48-6.165.84-6.165.84zm0 4.819V56.57m0 0s-.32-2.828-1.54-3.946c-1.264-1.157-4.234-1.154-4.234-1.154s.06 3.387 1.54 4.523c1.323 1.016 4.234.577 4.234.577zm-6.689 5.41v4.34a6.689 6.689 0 0 0 6.689 6.689v0a6.689 6.689 0 0 0 6.689-6.689v-4.34" stroke="#002B67"/><circle cx="50.977" cy="51.051" r="12.756" stroke="#002B67"/><path stroke="#002B67" d="M57.666 66.995h-5.605m-1.936 0h-1.704"/><path d="M217.481 229.753l-9.387-9.771a.524.524 0 0 0-.659-.079l-5.207 3.304v-9.306a.525.525 0 1 0-1.049 0v9.393l-5.158-2.706 3.525-12.237h1.633v3.448a.525.525 0 1 0 1.049 0v-3.974a.526.526 0 0 0-.525-.526h-2.552a.525.525 0 0 0-.504.38l-3.753 13.029c-.069.24.04.496.261.612l5.46 2.865-1.681.972-.003.002-11.613 6.717a.527.527 0 0 0-.193.718l1.276 2.214a.526.526 0 0 0 .581.248l8.562-2.124-.394 2.604a12.291 12.291 0 0 1-2.74-1.541.524.524 0 0 0-.734.108.527.527 0 0 0 .108.736 13.307 13.307 0 0 0 3.204 1.763l-.831 5.485a.524.524 0 0 0 .519.604h10.055a.525.525 0 0 0 .518-.604l-.26-1.717a.523.523 0 1 0-1.037.158l.168 1.112h-8.834l.712-4.698c1.189.347 2.425.524 3.677.524a13.446 13.446 0 0 0 3.733-.529l.193 1.278a.525.525 0 1 0 1.038-.157l-.221-1.457a13.192 13.192 0 0 0 5.943-4.506.526.526 0 0 0-.109-.735.523.523 0 0 0-.734.109 12.16 12.16 0 0 1-5.261 4.067l-1.352-8.915 10.66 6.165a.518.518 0 0 0 .398.053.522.522 0 0 0 .318-.245l1.276-2.214a.526.526 0 0 0-.076-.627zm-29.184 2.771l12.918-7.472.239 5.828-12.341 3.06-.816-1.416zm16.952 3.364c-.572.173-1.161.305-1.762.393a12.17 12.17 0 0 1-5.33-.388l.49-3.234 3.475-.862a.525.525 0 0 0 .398-.532l-.253-6.169 1.475.852 1.507 9.94zm10.386-4.275l-12.918-7.471 4.918-3.122 8.816 9.177-.816 1.416z" fill="#002B67"/><path fill-rule="evenodd" clip-rule="evenodd" d="M208.094 219.983l9.387 9.77a.527.527 0 0 1 .076.628l-1.276 2.214a.53.53 0 0 1-.454.262.517.517 0 0 1-.262-.07l-11.823-6.838-1.475-.853.253 6.17a.526.526 0 0 1-.398.532l-3.475.862-9.665 2.396a.528.528 0 0 1-.581-.247l-1.276-2.214a.527.527 0 0 1 .193-.718l11.613-6.718.003-.001 1.681-.973-5.46-2.865a.526.526 0 0 1-.261-.611l3.753-13.029a.525.525 0 0 1 .504-.38h2.552c.29 0 .525.235.525.526v3.973a.526.526 0 0 1-1.049 0v-3.448h-1.633l-3.525 12.237 5.158 2.706v-9.392a.526.526 0 1 1 1.049 0v9.306l5.207-3.305a.525.525 0 0 1 .659.08zm-6.879 5.07l-12.918 7.471.816 1.417 12.341-3.061-.239-5.827zm1.502-.911l12.918 7.472.816-1.417-8.816-9.176-4.918 3.121z" fill="#C96164"/><path d="M203.438 212.034a12.22 12.22 0 0 1 5.558 2.296 12.221 12.221 0 0 1 4.91 10.641c-.019.29.2.54.49.559l.034.001a.526.526 0 0 0 .523-.492 13.27 13.27 0 0 0-5.331-11.553 13.276 13.276 0 0 0-6.036-2.493.525.525 0 0 0-.148 1.041zm-13.479 17.637a.525.525 0 0 0 .483-.73 12.342 12.342 0 0 1-.893-6.138 12.253 12.253 0 0 1 2.339-5.946 12.134 12.134 0 0 1 4.113-3.534.526.526 0 0 0-.489-.93 13.153 13.153 0 0 0-4.466 3.837 13.311 13.311 0 0 0-1.571 13.12.525.525 0 0 0 .484.321z" fill="#002B67"/><path d="M643.82 43.483v13.615c0 5.63 4.564 10.195 10.195 10.195v0c5.63 0 10.195-4.565 10.195-10.195v-4.89" stroke="#002B67"/><path d="M660.683 46.676v2.682a3.527 3.527 0 0 0 3.527 3.527v0a3.527 3.527 0 0 0 3.527-3.527v-2.682m-28.888-2.203v1.251a4.971 4.971 0 0 0 4.971 4.971v0a4.971 4.971 0 0 0 4.971-4.97v-1.252m11.273 1.703h8.3m-5.871-.537v-2.088m3.804 2.088v-2.088" stroke="#002B67"/><path d="M643.94 43.887l-.12.114a13.103 13.103 0 0 1-1.109-1.177 8.165 8.165 0 0 1-.968-1.421c-.26-.503-.411-.986-.411-1.42 0-.433.151-.916.411-1.42.258-.498.608-.986.968-1.42a13.12 13.12 0 0 1 1.109-1.177l.12.114c.27.261.63.63.989 1.063.359.434.709.922.967 1.42.26.504.411.987.411 1.42 0 .434-.151.917-.411 1.42-.258.5-.608.987-.967 1.421-.359.433-.719.802-.989 1.063zm4.847.146a13.735 13.735 0 0 1-.166-.004l-.004-.166c-.006-.376 0-.891.052-1.45a8.256 8.256 0 0 1 .321-1.69c.172-.54.407-.988.713-1.294.307-.306.755-.542 1.295-.713a8.193 8.193 0 0 1 1.689-.321 13.245 13.245 0 0 1 1.616-.048l.004.165c.007.376 0 .892-.052 1.45a8.188 8.188 0 0 1-.321 1.69c-.171.54-.407.988-.713 1.295-.306.306-.755.541-1.294.713a8.202 8.202 0 0 1-1.69.32c-.559.053-1.074.06-1.45.053zm-9.958 0l.165-.004a13.044 13.044 0 0 0-.048-1.616 8.187 8.187 0 0 0-.32-1.69c-.172-.54-.407-.988-.714-1.294-.306-.306-.754-.542-1.294-.713a8.193 8.193 0 0 0-1.689-.321 13.253 13.253 0 0 0-1.616-.048 13.044 13.044 0 0 0 .048 1.616 8.2 8.2 0 0 0 .32 1.69c.172.539.407.987.714 1.294.306.306.754.541 1.294.713.536.17 1.128.268 1.689.32.56.053 1.075.06 1.451.053zm176.54 171.931v-5.477m0 0s.36-3.182 1.732-4.438c1.421-1.302 4.762-1.299 4.762-1.299s-.067 3.81-1.732 5.087c-1.489 1.143-4.762.65-4.762.65zm0 3.721v-3.762m0 0s-.247-2.184-1.189-3.047c-.977-.894-3.271-.892-3.271-.892s.046 2.616 1.189 3.493c1.023.785 3.271.446 3.271.446z" stroke="#C96164"/><path d="M787.677 237.253v-14.444h2.791v-5.253l7.55-3.939v9.192h3.447v-5.253l7.222-3.939v9.192h3.283v-5.253l7.551-3.939v9.192h2.79v14.444h-34.634z" stroke="#002B67"/><circle cx="794.661" cy="230.448" r="2.051" stroke="#C96164"/><circle cx="804.994" cy="230.448" r="2.051" stroke="#C96164"/><circle cx="815.328" cy="230.448" r="2.051" stroke="#C96164"/><path d="M60.326 388.786a4.757 4.757 0 0 0-2.8-.921c-1.564 0-2.934.949-3.676 2.361-.741-1.412-2.111-2.361-3.676-2.361-1.741 0-3.356.974-4.32 2.606a.561.561 0 0 0 .218.778c.28.157.64.063.8-.211.752-1.273 1.986-2.033 3.302-2.033 1.704 0 3.09 1.632 3.09 3.638a.58.58 0 0 0 .586.571.58.58 0 0 0 .587-.571c0-2.006 1.386-3.638 3.09-3.638.743 0 1.469.241 2.099.696.26.188.627.136.82-.117a.56.56 0 0 0-.12-.798z" fill="#E15C66"/><path d="M61.39 406.825a.593.593 0 0 0-.767-.307l-5.127 2.08a4.779 4.779 0 0 1-3.25.121l-12.029-3.853a3.303 3.303 0 0 0-2.306.107l-.477.203a.564.564 0 0 0-.303.751c.13.289.476.42.773.294l.478-.204a2.103 2.103 0 0 1 1.468-.067l12.028 3.853a5.989 5.989 0 0 0 4.07-.153l5.127-2.079a.565.565 0 0 0 .316-.746z" fill="#002B67"/><path d="M69.01 401.418a.078.078 0 0 1-.005-.009l-.004-.01c-.528-1.19-1.858-1.833-3.133-1.566a2.192 2.192 0 0 0-.079-1.545 2.288 2.288 0 0 0-1.273-1.224l-.017-.006c-1.134-.438-2.436.056-2.965 1.125l-1.848 3.731-2.995 1.019c-.56.19-1.175.19-1.733 0l-.085-.029c3.772-2.044 7.836-5.521 7.836-9.208 0-1.286-.363-2.503-1.05-3.521a.597.597 0 0 0-.813-.164.561.561 0 0 0-.168.79c.56.831.857 1.832.857 2.895 0 3.128-3.816 6.464-7.685 8.45a23.358 23.358 0 0 1-2.998-1.839 18.285 18.285 0 0 1-2.128-1.789l5.977 1.987c1.183.394 2.502-.17 3.001-1.284a2.298 2.298 0 0 0 .004-1.873 2.366 2.366 0 0 0-1.355-1.264l-10.608-3.956a6.408 6.408 0 0 0-.262-.093c-2.08-.695-4.454-.378-6.346.848l-5.644 3.655a.56.56 0 0 0-.163.791c.18.262.544.333.814.158l5.643-3.655c1.59-1.03 3.577-1.299 5.316-.718.084.028.151.052.216.077l10.615 3.958c.315.117.563.348.697.651.138.312.138.654-.002.964-.257.574-.936.865-1.546.662l-6.734-2.239a2.341 2.341 0 0 0-1.644.062 2.228 2.228 0 0 0-1.306 1.472c-.303 1.114.337 2.285 1.457 2.667l7.717 2.622a3.924 3.924 0 0 0 2.506 0l8.848-3.01c.79-.269 1.667.105 2 .856l.004.007c.166.383.17.807.007 1.192-.162.387-.47.688-.866.849l-4.725 1.916a.565.565 0 0 0-.315.746.587.587 0 0 0 .541.351.619.619 0 0 0 .226-.044l4.725-1.916a2.722 2.722 0 0 0 1.5-1.47 2.61 2.61 0 0 0-.013-2.069zm-21.769-1.107a1.082 1.082 0 0 1-.71-1.298c.073-.267.245-.491.482-.636.825.978 1.878 1.933 3.138 2.845l.212.15-3.122-1.061zm17.47-.715l-.3.711-3.159 1.074 1.34-2.703c.263-.532.91-.778 1.473-.56l.01.003c.287.114.512.33.632.608.121.279.122.587.004.867z" fill="#002B67"/><path fill-rule="evenodd" clip-rule="evenodd" d="M47.013 398.377c.825.978 1.878 1.933 3.138 2.845.024.017.989.542 1.926 1.052.887.482 1.75.951 1.773.968l1.023-.338c3.772-2.044 7.836-5.521 7.836-9.208 0-1.286-.363-2.503-1.05-3.521a.597.597 0 0 0-.813-.164.561.561 0 0 0-.168.79c.56.831.857 1.832.857 2.895 0 3.128-3.816 6.464-7.685 8.45a23.357 23.357 0 0 1-2.998-1.839 18.285 18.285 0 0 1-2.128-1.789c-.538-.179-1.188-.36-1.711-.141z" fill="#C96164"/></svg>