<svg width="62" height="456" fill="none" xmlns="http://www.w3.org/2000/svg"><circle cx="31.437" cy="30.59" r="29.194" stroke="#C96164" stroke-dasharray="5 5"/><path stroke="#C96164" d="M21.918 20.885l1.792 1.792m16.084-1.792L38 22.678m.509 14.855l1.792 1.792m-17.298-1.792l-1.792 1.793m-.807-8.737h-2.688m26.28 0h-2.689M30.851 19.896v-2.533"/><path d="M31.35 37.886v-4.12m0 0s.271-2.392 1.303-3.337c1.07-.98 3.582-.977 3.582-.977s-.05 2.865-1.303 3.826c-1.12.86-3.581.488-3.581.488zm0 2.8v-2.83m0 0s-.185-1.643-.894-2.292c-.734-.672-2.46-.67-2.46-.67s.035 1.967.895 2.627c.769.59 2.46.335 2.46.335zm-3.885 3.142V39.4a3.886 3.886 0 0 0 3.886 3.885v0a3.886 3.886 0 0 0 3.885-3.885v-2.522" stroke="#002B67"/><circle cx="31.351" cy="30.53" r="7.201" stroke="#002B67"/><path stroke="#002B67" d="M35.236 40.002H31.98m-1.124 0h-.99"/><circle cx="30.584" cy="129.417" r="29.194" stroke="#C96164" stroke-dasharray="5 5"/><path d="M39.824 132.181l-5.453-5.676a.305.305 0 0 0-.382-.047l-3.025 1.92v-5.406a.305.305 0 1 0-.61 0v5.456l-2.996-1.572 2.047-7.109h.949v2.004a.305.305 0 0 0 .61 0v-2.309a.305.305 0 0 0-.305-.305h-1.483a.305.305 0 0 0-.293.22l-2.18 7.569c-.04.14.023.288.151.355l3.173 1.665-.977.565-.002.001-6.746 3.902a.306.306 0 0 0-.112.417l.741 1.287a.304.304 0 0 0 .337.143l4.975-1.233-.23 1.512a7.144 7.144 0 0 1-1.591-.895.305.305 0 0 0-.364.49c.58.431 1.205.774 1.861 1.025l-.482 3.186a.306.306 0 0 0 .301.351h5.841a.306.306 0 0 0 .301-.351l-.15-.997a.304.304 0 1 0-.603.091l.098.646h-5.133l.414-2.729a7.64 7.64 0 0 0 3.278.22c.35-.051.692-.126 1.027-.223l.112.743a.305.305 0 1 0 .603-.092l-.128-.846a7.662 7.662 0 0 0 3.452-2.617.305.305 0 0 0-.49-.365 7.061 7.061 0 0 1-3.056 2.363l-.785-5.179 6.192 3.582a.305.305 0 0 0 .416-.112l.742-1.286a.305.305 0 0 0-.045-.364zM22.87 133.79l7.505-4.34.139 3.385-7.17 1.778-.474-.823zm9.848 1.955c-.332.1-.674.177-1.023.228a7.063 7.063 0 0 1-3.096-.226l.284-1.878 2.019-.501a.306.306 0 0 0 .231-.309l-.147-3.584.857.496.875 5.774zm6.034-2.484l-7.505-4.34 2.858-1.813 5.121 5.33-.474.823z" fill="#002B67"/><path fill-rule="evenodd" clip-rule="evenodd" d="M34.371 126.505l5.453 5.676a.305.305 0 0 1 .045.364l-.742 1.287a.305.305 0 0 1-.416.111l-6.868-3.972-.857-.495.147 3.584a.306.306 0 0 1-.231.309l-2.019.5-5.614 1.393a.305.305 0 0 1-.337-.144l-.742-1.286a.306.306 0 0 1 .112-.417l6.746-3.903.002-.001.977-.565-3.173-1.664a.306.306 0 0 1-.151-.355l2.18-7.569a.305.305 0 0 1 .293-.221h1.483c.168 0 .304.137.304.306v2.308a.304.304 0 1 1-.61 0v-2.003h-.948l-2.047 7.109 2.996 1.572v-5.457a.305.305 0 0 1 .61 0v5.407l3.025-1.92a.305.305 0 0 1 .382.046zm-3.996 2.945l-7.505 4.341.475.823 7.169-1.778-.14-3.386zm.872-.529l7.505 4.341.474-.823-5.121-5.331-2.857 1.813z" fill="#C96164"/><path d="M31.666 121.888a7.102 7.102 0 0 1 3.23 1.333 7.102 7.102 0 0 1 2.852 6.182.306.306 0 0 0 .284.325h.02c.16 0 .293-.124.304-.285a7.71 7.71 0 0 0-3.097-6.712 7.716 7.716 0 0 0-3.507-1.448.306.306 0 0 0-.086.605zm-7.83 10.245a.306.306 0 0 0 .28-.424 7.117 7.117 0 0 1 .84-7.02 7.042 7.042 0 0 1 2.39-2.053.305.305 0 0 0-.284-.54 7.636 7.636 0 0 0-2.594 2.229 7.73 7.73 0 0 0-.913 7.621.304.304 0 0 0 .281.187z" fill="#002B67"/><circle cx="30.565" cy="227.848" r="29.213" stroke="#C96164" stroke-dasharray="5 5"/><path d="M24.331 223.388v7.914a5.926 5.926 0 0 0 5.927 5.926v0a5.926 5.926 0 0 0 5.926-5.926v-2.842" stroke="#002B67"/><path d="M34.133 225.244v1.559a2.05 2.05 0 0 0 2.05 2.05v0a2.05 2.05 0 0 0 2.051-2.05v-1.559m-16.792-1.281v.727a2.89 2.89 0 0 0 2.89 2.89v0a2.89 2.89 0 0 0 2.889-2.89v-.727m6.553.781h4.825m-3.622-.104v-1.213m2.211 1.213v-1.213" stroke="#002B67"/><path d="M24.814 222.871c-.17.206-.341.386-.483.527a7.473 7.473 0 0 1-.483-.527 4.526 4.526 0 0 1-.538-.789c-.143-.276-.215-.523-.215-.729 0-.205.072-.452.215-.729a4.57 4.57 0 0 1 .538-.789c.17-.205.341-.386.483-.526.142.14.313.321.483.526.204.246.397.517.538.789.143.277.216.524.216.729 0 .206-.073.453-.216.729a4.44 4.44 0 0 1-.538.789zm3.228.597a7.34 7.34 0 0 1-.714.031c0-.2.006-.448.03-.714.03-.318.085-.646.178-.938.094-.297.218-.523.363-.668.146-.146.372-.269.668-.363a4.58 4.58 0 0 1 .938-.178 7.31 7.31 0 0 1 .714-.03c.001.199-.005.448-.03.714a4.59 4.59 0 0 1-.178.938c-.094.296-.217.522-.363.668-.145.145-.371.268-.668.363-.292.093-.62.147-.938.177zm-7.436 0c.266.025.515.032.714.031.001-.2-.005-.448-.03-.714a4.537 4.537 0 0 0-.178-.938c-.094-.297-.217-.523-.363-.668-.145-.146-.371-.269-.668-.363a4.58 4.58 0 0 0-.938-.178 7.31 7.31 0 0 0-.714-.03c0 .199.006.448.03.714.03.317.085.645.178.938.094.296.218.522.363.668.146.145.372.268.668.363.292.093.621.147.938.177z" stroke="#C96164"/><circle cx="30.565" cy="326.714" r="29.213" stroke="#C96164" stroke-dasharray="5 5"/><path d="M36.596 321.464v-3.185m0 0s.21-1.849 1.007-2.579c.826-.757 2.768-.755 2.768-.755s-.04 2.214-1.007 2.957c-.865.664-2.768.377-2.768.377zm0 2.164v-2.187m0 0s-.144-1.27-.691-1.772c-.568-.519-1.901-.518-1.901-.518s.026 1.52.69 2.031c.595.456 1.902.259 1.902.259z" stroke="#C96164"/><path d="M20.499 333.839v-8.397h1.622v-3.053l4.389-2.29v5.343h2.004v-3.053l4.198-2.29v5.343h1.908v-3.053l4.39-2.29v5.343h1.622v8.397H20.499z" stroke="#002B67"/><circle cx="24.558" cy="329.883" r=".983" stroke="#C96164"/><circle cx="30.565" cy="329.883" r=".983" stroke="#C96164"/><circle cx="36.572" cy="329.883" r=".983" stroke="#C96164"/><circle cx="30.584" cy="425.56" r="29.194" stroke="#C96164" stroke-dasharray="5 5"/><path d="M35.93 419.722a2.766 2.766 0 0 0-1.627-.535c-.908 0-1.704.552-2.135 1.372-.43-.82-1.227-1.372-2.136-1.372-1.011 0-1.95.566-2.509 1.514a.326.326 0 0 0 .126.452.347.347 0 0 0 .465-.122c.437-.74 1.154-1.181 1.918-1.181.99 0 1.795.948 1.795 2.113 0 .183.153.331.34.331.19 0 .342-.148.342-.331 0-1.165.805-2.113 1.794-2.113.432 0 .854.139 1.22.404a.347.347 0 0 0 .477-.068.326.326 0 0 0-.07-.464z" fill="#E15C66"/><path d="M36.548 430.201a.345.345 0 0 0-.445-.178l-2.98 1.208a2.77 2.77 0 0 1-1.887.071l-6.988-2.238a1.915 1.915 0 0 0-1.34.061l-.277.118a.329.329 0 0 0-.175.437.344.344 0 0 0 .448.17l.278-.118c.27-.115.573-.129.853-.039l6.987 2.238a3.46 3.46 0 0 0 2.364-.088l2.98-1.208a.329.329 0 0 0 .182-.434z" fill="#002B67"/><path d="M40.974 427.062l-.002-.006-.003-.005c-.306-.692-1.08-1.066-1.82-.91.094-.295.08-.61-.046-.898a1.328 1.328 0 0 0-.75-.715c-.658-.254-1.414.033-1.721.654l-1.074 2.167-1.74.592a1.562 1.562 0 0 1-1.006 0l-.05-.016c2.191-1.188 4.552-3.208 4.552-5.35 0-.746-.211-1.454-.61-2.045a.346.346 0 0 0-.472-.095.325.325 0 0 0-.098.458c.326.484.498 1.065.498 1.682 0 1.818-2.217 3.756-4.464 4.909a13.442 13.442 0 0 1-1.742-1.068c-.46-.333-.877-.684-1.236-1.039l3.472 1.154c.687.229 1.453-.099 1.744-.746.155-.344.156-.741.002-1.088a1.376 1.376 0 0 0-.787-.734l-6.163-2.298a2.685 2.685 0 0 0-.152-.055c-1.209-.403-2.587-.219-3.687.493l-3.278 2.124a.325.325 0 0 0-.095.459.347.347 0 0 0 .473.092l3.278-2.123c.924-.599 2.078-.755 3.088-.418.05.017.088.03.125.045l6.167 2.3a.705.705 0 0 1 .405.377.68.68 0 0 1 0 .561.735.735 0 0 1-.9.384l-3.911-1.301a1.361 1.361 0 0 0-.956.036c-.377.159-.653.47-.758.856-.176.647.195 1.327.846 1.549l4.483 1.523c.47.159.986.159 1.456 0l5.14-1.749a.942.942 0 0 1 1.163.498l.001.004a.874.874 0 0 1 .005.693.91.91 0 0 1-.503.492l-2.745 1.114a.328.328 0 0 0-.184.433.342.342 0 0 0 .446.178l2.745-1.113a1.58 1.58 0 0 0 .872-.854c.163-.388.16-.815-.008-1.201zm-12.646-.644a.629.629 0 0 1-.412-.754.624.624 0 0 1 .28-.369c.48.568 1.091 1.123 1.823 1.652.04.03.082.058.123.088l-1.814-.617zm10.149-.415l-.175.413-1.834.624.778-1.571a.685.685 0 0 1 .856-.325l.005.002a.663.663 0 0 1 .368.353.64.64 0 0 1 .002.504z" fill="#002B67"/><path fill-rule="evenodd" clip-rule="evenodd" d="M28.196 425.294c.479.569 1.09 1.123 1.823 1.653.014.01.574.315 1.119.611.515.28 1.016.553 1.03.562l.594-.196c2.191-1.187 4.552-3.207 4.552-5.349 0-.747-.211-1.454-.61-2.045a.347.347 0 0 0-.472-.096.326.326 0 0 0-.098.459 2.99 2.99 0 0 1 .498 1.682c0 1.817-2.217 3.755-4.464 4.909a13.56 13.56 0 0 1-1.742-1.069c-.46-.333-.877-.684-1.236-1.039-.313-.104-.69-.209-.994-.082z" fill="#C96164"/><path stroke="#C96164" stroke-dasharray="5 5" d="M31.48 60.284v39.44m0 59.387v39.44m.371 59.709v39.44m0 59.092v39.44"/></svg>