<svg width="217" height="220" viewBox="0 0 217 220" fill="none" xmlns="http://www.w3.org/2000/svg">
<path d="M72.0516 90.9377L108.839 69.6984L145.627 90.9377V133.416L108.839 154.655L72.0516 133.416V90.9377Z" stroke="#002B67"/>
<line x1="71.8444" y1="90.8365" x2="109.084" y2="111.741" stroke="#002B67"/>
<line x1="146.507" y1="91.7146" x2="108.628" y2="111.719" stroke="#002B67"/>
<line y1="-0.5" x2="42.8491" y2="-0.5" transform="matrix(-0.0233377 0.999728 -1 0 109.395 111.277)" stroke="#002B67"/>
<line x1="126.965" y1="79.7469" x2="88.0111" y2="100.292" stroke="#002B67" stroke-dasharray="4 4"/>
<path d="M142.952 75.5772L173.871 45.9684L166.728 38.165L185.192 36.2571L182.004 54.4962" stroke="#C96164"/>
<path d="M74.726 75.5772L43.807 45.9684L50.9506 38.165L32.4865 36.2571L35.6742 54.4962" stroke="#C96164"/>
<path d="M59.2775 110.552L16.4698 110.963L16.1307 100.389L1.58546 111.922L16.6072 122.746" stroke="#C96164"/>
<path d="M157.511 111.237L200.319 111.648L200.658 101.074L215.203 112.606L200.181 123.431" stroke="#C96164"/>
<path d="M108.269 161.27L108.206 204.079L97.6292 204.301L109 218.973L119.99 204.072" stroke="#C96164"/>
<path d="M108.269 59.3953L108.206 16.5857L97.6292 16.3636L109 1.69164L119.99 16.5927" stroke="#C96164"/>
<path d="M72.9116 146.897L41.9925 176.506L49.1362 184.31L30.6721 186.218L33.8597 167.978" stroke="#C96164"/>
<path d="M141.138 146.897L172.057 176.506L164.913 184.31L183.377 186.218L180.19 167.978" stroke="#C96164"/>
</svg>
