<svg width="20" height="16" viewBox="0 0 20 16" fill="none" xmlns="http://www.w3.org/2000/svg">
<path d="M19.7425 2.42369C19.0181 2.73074 18.2408 2.93898 17.424 3.03194C18.258 2.55428 18.8963 1.79663 19.1989 0.896607C18.4166 1.33896 17.5532 1.66016 16.6331 1.83428C15.8964 1.08251 14.8485 0.614258 13.6861 0.614258C11.4562 0.614258 9.64815 2.3437 9.64815 4.4755C9.64815 4.77784 9.68382 5.07315 9.75271 5.35553C6.39737 5.19432 3.42209 3.65666 1.43078 1.32013C1.08269 1.88957 0.884665 2.55308 0.884665 3.26135C0.884665 4.60138 1.59805 5.78376 2.68043 6.47551C2.0187 6.45434 1.39633 6.28022 0.851474 5.9908V6.03903C0.851474 7.90965 2.2438 9.47084 4.08997 9.82616C3.75172 9.91323 3.39504 9.96146 3.02605 9.96146C2.76531 9.96146 2.51316 9.93676 2.26593 9.88969C2.78004 11.425 4.27078 12.5415 6.03702 12.5721C4.65576 13.6074 2.91412 14.2227 1.02245 14.2227C0.696517 14.2227 0.375476 14.2039 0.0593872 14.1698C1.84654 15.2675 3.96823 15.9075 6.24859 15.9075C13.6763 15.9075 17.7365 10.0227 17.7365 4.91905L17.7229 4.41905C18.5163 3.87782 19.2026 3.19782 19.7425 2.42369Z" fill="#002B67"/>
</svg>
